OpenSansCondensed-CondensedSemiBold.ufo
<glyph name="exclam" format="2">
  <advance width="519.8380952380952"/>
  <unicode hex="0021"/>
  <note>
exclam
</note>
  <outline>
    <contour>
      <point x="177.54" y="435.5733333333333" type="line"/>
      <point x="341.42333333333335" y="435.5733333333333" type="line"/>
      <point x="387.08" y="1462.0" type="line"/>
      <point x="133.27333333333334" y="1462.0" type="line"/>
    </contour>
    <contour>
      <point x="258.8233333333333" y="-23.413333333333334" type="curve" smooth="yes"/>
      <point x="342.5966666666667" y="-23.413333333333334"/>
      <point x="395.2033333333333" y="26.973333333333333"/>
      <point x="395.2033333333333" y="121.04333333333335" type="curve" smooth="yes"/>
      <point x="395.2033333333333" y="217.64999999999998"/>
      <point x="345.84000000000003" y="265.5733333333334"/>
      <point x="258.8233333333333" y="265.5733333333334" type="curve" smooth="yes"/>
      <point x="168.83" y="265.5733333333334"/>
      <point x="123.37" y="213.82"/>
      <point x="123.37" y="121.04333333333335" type="curve" smooth="yes"/>
      <point x="123.37" y="28.73"/>
      <point x="169.29333333333332" y="-23.413333333333334"/>
    </contour>
  </outline>
</glyph>
<glyph name="parenleft" format="2">
  <advance width="631.8523809523809"/>
  <unicode hex="0028"/>
  <note>
parenleft
</note>
  <outline>
    <contour>
      <point x="383.8566666666667" y="-324.0" type="curve"/>
      <point x="564.7166666666667" y="-324.0" type="line"/>
      <point x="391.6933333333333" y="-87.58666666666666"/>
      <point x="286.84" y="235.29333333333332"/>
      <point x="286.84" y="563.0" type="curve" smooth="yes"/>
      <point x="286.84" y="885.56"/>
      <point x="382.15666666666664" y="1203.0966666666668"/>
      <point x="566.7166666666667" y="1462.0" type="curve"/>
      <point x="383.8566666666667" y="1462.0" type="line"/>
      <point x="191.22333333333333" y="1230.7566666666664"/>
      <point x="84.07666666666667" y="911.5600000000001"/>
      <point x="84.07666666666667" y="561.0" type="curve" smooth="yes"/>
      <point x="84.07666666666667" y="213.75666666666666"/>
      <point x="189.15" y="-97.75666666666666"/>
    </contour>
  </outline>
</glyph>
<glyph name="asterisk" format="2">
  <advance width="882.0142857142857"/>
  <unicode hex="002A"/>
  <note>
asterisk
</note>
  <outline>
    <contour>
      <point x="322.8666666666667" y="817.0033333333333" type="line"/>
      <point x="439.8666666666667" y="1069.9033333333334" type="line"/>
      <point x="561.7666666666667" y="818.0766666666666" type="line"/>
      <point x="726.4133333333333" y="905.7033333333333" type="line"/>
      <point x="550.9533333333334" y="1145.2133333333334" type="line"/>
      <point x="816.8733333333334" y="1159.7" type="line"/>
      <point x="789.9" y="1344.54" type="line"/>
      <point x="506.08" y="1268.5433333333335" type="line"/>
      <point x="539.64" y="1556.0" type="line"/>
      <point x="341.7266666666667" y="1556.0" type="line"/>
      <point x="375.21333333333337" y="1268.5433333333335" type="line"/>
      <point x="97.10000000000001" y="1344.3933333333334" type="line"/>
      <point x="66.66333333333334" y="1161.4066666666665" type="line"/>
      <point x="327.97333333333336" y="1145.2133333333334" type="line"/>
      <point x="156.73333333333335" y="905.7033333333333" type="line"/>
    </contour>
  </outline>
</glyph>
<glyph name="plus" format="2">
  <advance width="884.5285714285715"/>
  <unicode hex="002B"/>
  <note>
plus
</note>
  <outline>
    <contour>
      <point x="362.97666666666663" y="250.0" type="line"/>
      <point x="521.4266666666667" y="250.0" type="line"/>
      <point x="521.4266666666667" y="639.3733333333333" type="line"/>
      <point x="793.8233333333334" y="639.3733333333333" type="line"/>
      <point x="793.8233333333334" y="804.7733333333333" type="line"/>
      <point x="521.4266666666667" y="804.7733333333333" type="line"/>
      <point x="521.4266666666667" y="1198.0" type="line"/>
      <point x="362.97666666666663" y="1198.0" type="line"/>
      <point x="362.97666666666663" y="804.7733333333333" type="line"/>
      <point x="90.04333333333334" y="804.7733333333333" type="line"/>
      <point x="90.04333333333334" y="639.3733333333333" type="line"/>
      <point x="362.97666666666663" y="639.3733333333333" type="line"/>
    </contour>
  </outline>
</glyph>
<glyph name="comma" format="2">
  <advance width="508.7095238095239"/>
  <unicode hex="002C"/>
  <outline>
    <contour>
      <point x="60.39333333333333" y="-264.0" type="curve"/>
      <point x="215.59666666666666" y="-264.0" type="line"/>
      <point x="293.7166666666667" y="-91.98000000000002"/>
      <point x="350.57" y="63.50666666666666"/>
      <point x="388.5466666666666" y="203.77666666666667" type="curve"/>
      <point x="374.5466666666667" y="226.77666666666664" type="line"/>
      <point x="160.85666666666665" y="226.77666666666664" type="line"/>
      <point x="139.22333333333333" y="74.97333333333333"/>
      <point x="105.29666666666667" y="-88.90333333333334"/>
    </contour>
  </outline>
</glyph>
<glyph name="hyphen" format="2">
  <advance width="602.7095238095238"/>
  <unicode hex="002D"/>
  <outline>
    <contour>
      <point x="65.57619047619048" y="455.6666666666667" type="line"/>
      <point x="536.4714285714285" y="455.6666666666667" type="line"/>
      <point x="536.4714285714285" y="645.0380952380951" type="line"/>
      <point x="65.57619047619048" y="645.0380952380951" type="line"/>
    </contour>
  </outline>
</glyph>
<glyph name="zero" format="2">
  <advance width="904.3857142857142"/>
  <unicode hex="0030"/>
  <outline>
    <contour>
      <point x="452.0166666666666" y="-20.0" type="curve" smooth="yes"/>
      <point x="565.04" y="-20.0"/>
      <point x="653.38" y="26.85666666666667"/>
      <point x="715.7199999999999" y="132.07999999999998" type="curve" smooth="yes"/>
      <point x="791.4233333333333" y="253.05666666666667"/>
      <point x="824.9099999999999" y="454.49333333333334"/>
      <point x="824.9099999999999" y="731.61" type="curve" smooth="yes"/>
      <point x="824.9099999999999" y="1020.2133333333334"/>
      <point x="789.6433333333334" y="1237.8666666666666"/>
      <point x="704.8199999999999" y="1351.6733333333334" type="curve" smooth="yes"/>
      <point x="644.9433333333334" y="1444.63"/>
      <point x="556.0666666666666" y="1484.39"/>
      <point x="454.7966666666666" y="1484.39" type="curve" smooth="yes"/>
      <point x="353.16333333333336" y="1484.39"/>
      <point x="272.2133333333333" y="1447.7533333333333"/>
      <point x="212.26333333333332" y="1365.6033333333335" type="curve" smooth="yes"/>
      <point x="120.46333333333334" y="1249.9433333333334"/>
      <point x="78.73333333333333" y="1036.58"/>
      <point x="78.73333333333333" y="731.1466666666666" type="curve" smooth="yes"/>
      <point x="78.73333333333333" y="460.44000000000005"/>
      <point x="107.90333333333334" y="248.05333333333334"/>
      <point x="183.46" y="127.81" type="curve" smooth="yes"/>
      <point x="243.6533333333333" y="24.636666666666667"/>
      <point x="334.3833333333333" y="-20.0"/>
    </contour>
    <contour>
      <point x="451.5533333333333" y="164.35" type="curve" smooth="yes"/>
      <point x="393.23333333333335" y="164.35"/>
      <point x="353.5233333333333" y="205.45"/>
      <point x="329.18" y="291.3566666666667" type="curve" smooth="yes"/>
      <point x="305.3" y="375.33666666666664"/>
      <point x="293.3233333333334" y="521.8033333333333"/>
      <point x="293.3233333333334" y="730.6833333333333" type="curve" smooth="yes"/>
      <point x="293.3233333333334" y="940.1"/>
      <point x="305.3" y="1087.4933333333336"/>
      <point x="329.18" y="1172.3266666666666" type="curve" smooth="yes"/>
      <point x="353.52333333333337" y="1259.94"/>
      <point x="394.62333333333333" y="1299.1133333333332"/>
      <point x="450.1633333333333" y="1299.1133333333332" type="curve" smooth="yes"/>
      <point x="502.8966666666667" y="1299.1133333333332"/>
      <point x="543.4833333333333" y="1261.5033333333333"/>
      <point x="567.4366666666666" y="1186.2833333333333" type="curve" smooth="yes"/>
      <point x="596.9766666666667" y="1106.23"/>
      <point x="611.2466666666667" y="962.37"/>
      <point x="611.2466666666667" y="780.26" type="curve" smooth="yes"/>
      <point x="611.2466666666667" y="514.7233333333332"/>
      <point x="596.7566666666667" y="312.58"/>
      <point x="549.7800000000001" y="230.2833333333333" type="curve" smooth="yes"/>
      <point x="525.4366666666667" y="185.37666666666667"/>
      <point x="491.48333333333335" y="164.35"/>
    </contour>
  </outline>
</glyph>
<glyph name="two" format="2">
  <advance width="904.3857142857142"/>
  <unicode hex="0032"/>
  <outline>
    <contour>
      <point x="74.0" y="0.0" type="line"/>
      <point x="814.7166666666667" y="0.0" type="line"/>
      <point x="814.7166666666667" y="190.54333333333332" type="line"/>
      <point x="313.4166666666667" y="190.54333333333332" type="line"/>
      <point x="313.4166666666667" y="198.54333333333335" type="line"/>
      <point x="445.1166666666667" y="371.39"/>
      <point x="543.8466666666667" y="508.4866666666666"/>
      <point x="592.61" y="580.79" type="curve" smooth="yes"/>
      <point x="640.76" y="650.1366666666667"/>
      <point x="676.7866666666666" y="711.6766666666667"/>
      <point x="703.5433333333334" y="766.7266666666666" type="curve" smooth="yes"/>
      <point x="756.9833333333333" y="877.2900000000001"/>
      <point x="782.6433333333333" y="978.7333333333332"/>
      <point x="782.6433333333333" y="1107.6633333333334" type="curve" smooth="yes"/>
      <point x="782.6433333333333" y="1338.27"/>
      <point x="649.8166666666667" y="1483.0"/>
      <point x="428.42999999999995" y="1483.0" type="curve" smooth="yes"/>
      <point x="295.58" y="1483.0"/>
      <point x="197.65666666666667" y="1443.1000000000001"/>
      <point x="72.22333333333333" y="1313.2566666666667" type="curve"/>
      <point x="190.55333333333334" y="1181.73" type="line"/>
      <point x="272.52666666666664" y="1264.53"/>
      <point x="326.7233333333333" y="1295.2366666666667"/>
      <point x="408.53000000000003" y="1295.2366666666667" type="curve" smooth="yes"/>
      <point x="505.90333333333336" y="1295.2366666666667"/>
      <point x="572.5166666666667" y="1218.7933333333333"/>
      <point x="572.5166666666667" y="1103.9566666666665" type="curve" smooth="yes"/>
      <point x="572.5166666666667" y="993.0033333333333"/>
      <point x="553.6633333333333" y="907.7333333333332"/>
      <point x="496.9566666666667" y="798.1466666666666" type="curve" smooth="yes"/>
      <point x="467.51666666666665" y="738.68"/>
      <point x="416.51666666666665" y="658.1666666666667"/>
      <point x="345.83333333333337" y="555.0433333333333" type="curve" smooth="yes"/>
      <point x="74.0" y="160.47333333333336" type="line"/>
    </contour>
  </outline>
</glyph>
<glyph name="three" format="2">
  <advance width="904.3857142857142"/>
  <unicode hex="0033"/>
  <outline>
    <contour>
      <point x="379.46" y="-20.0" type="curve" smooth="yes"/>
      <point x="646.33" y="-20.0"/>
      <point x="811.2033333333334" y="149.41333333333333"/>
      <point x="811.2033333333334" y="412.6066666666667" type="curve" smooth="yes"/>
      <point x="811.2033333333334" y="608.85"/>
      <point x="709.18" y="730.8033333333333"/>
      <point x="531.7433333333333" y="762.17" type="curve"/>
      <point x="531.7433333333333" y="770.17" type="line"/>
      <point x="694.45" y="821.1466666666666"/>
      <point x="784.0333333333333" y="950.2933333333333"/>
      <point x="784.0333333333333" y="1133.7566666666667" type="curve" smooth="yes"/>
      <point x="784.0333333333333" y="1348.7066666666665"/>
      <point x="645.7433333333333" y="1483.0"/>
      <point x="417.60333333333335" y="1483.0" type="curve" smooth="yes"/>
      <point x="279.43666666666667" y="1483.0"/>
      <point x="166.19666666666666" y="1438.1233333333334"/>
      <point x="67.19666666666666" y="1340.27" type="curve"/>
      <point x="169.89666666666665" y="1199.3566666666668" type="line"/>
      <point x="247.45999999999995" y="1269.9199999999998"/>
      <point x="317.87333333333333" y="1299.5533333333333"/>
      <point x="398.29" y="1299.5533333333333" type="curve" smooth="yes"/>
      <point x="509.73333333333335" y="1299.5533333333333"/>
      <point x="573.4433333333334" y="1226.4266666666667"/>
      <point x="573.4433333333334" y="1092.7866666666666" type="curve" smooth="yes"/>
      <point x="573.4433333333334" y="928.83"/>
      <point x="476.44000000000005" y="835.8966666666668"/>
      <point x="314.24333333333334" y="835.8966666666668" type="curve" smooth="yes"/>
      <point x="234.70666666666665" y="835.8966666666668" type="line"/>
      <point x="234.70666666666665" y="669.7633333333334" type="line"/>
      <point x="314.26666666666665" y="669.7633333333334" type="line" smooth="yes"/>
      <point x="368.0466666666667" y="669.7633333333334"/>
      <point x="413.97333333333336" y="663.2266666666666"/>
      <point x="452.50999999999993" y="649.2266666666667" type="curve" smooth="yes"/>
      <point x="549.1966666666667" y="615.1033333333332"/>
      <point x="598.0766666666666" y="536.7333333333333"/>
      <point x="598.0766666666666" y="419.85" type="curve" smooth="yes"/>
      <point x="598.0766666666666" y="247.28333333333333"/>
      <point x="513.7333333333333" y="160.20333333333335"/>
      <point x="355.83" y="160.20333333333335" type="curve" smooth="yes"/>
      <point x="259.0733333333334" y="160.20333333333335"/>
      <point x="156.41666666666669" y="189.76333333333332"/>
      <point x="70.1" y="241.5433333333333" type="curve"/>
      <point x="70.1" y="44.12" type="line"/>
      <point x="152.29333333333332" y="1.706666666666666"/>
      <point x="255.87666666666664" y="-20.0"/>
    </contour>
  </outline>
</glyph>
<glyph name="four" format="2">
  <advance width="904.3857142857142"/>
  <unicode hex="0034"/>
  <outline>
    <contour>
      <point x="523.3933333333333" y="0.0" type="line"/>
      <point x="725.0333333333334" y="0.0" type="line"/>
      <point x="725.0333333333334" y="315.32" type="line"/>
      <point x="875.4733333333335" y="315.32" type="line"/>
      <point x="875.4733333333335" y="494.7433333333333" type="line"/>
      <point x="725.0333333333334" y="494.7433333333333" type="line"/>
      <point x="725.0333333333334" y="1467.4166666666667" type="line"/>
      <point x="491.4433333333334" y="1467.4166666666667" type="line"/>
      <point x="37.0" y="490.1333333333333" type="line"/>
      <point x="37.0" y="315.32" type="line"/>
      <point x="523.3933333333333" y="315.32" type="line"/>
    </contour>
    <contour>
      <point x="222.71666666666664" y="494.7433333333333" type="line"/>
      <point x="451.39333333333326" y="1000.08" type="line" smooth="yes"/>
      <point x="477.32" y="1060.3"/>
      <point x="502.71" y="1124.6166666666668"/>
      <point x="526.3199999999999" y="1193.6399999999999" type="curve"/>
      <point x="533.71" y="1193.6399999999999" type="line"/>
      <point x="529.1733333333334" y="1122.6633333333334"/>
      <point x="523.3933333333333" y="1008.8399999999999"/>
      <point x="523.3933333333333" y="937.5700000000002" type="curve" smooth="yes"/>
      <point x="523.3933333333333" y="494.7433333333333" type="line"/>
    </contour>
  </outline>
</glyph>
<glyph name="seven" format="2">
  <advance width="904.3857142857142"/>
  <unicode hex="0037"/>
  <outline>
    <contour>
      <point x="185.26999999999998" y="0.0" type="line"/>
      <point x="405.42" y="0.0" type="line"/>
      <point x="824.4499999999999" y="1311.4266666666667" type="line"/>
      <point x="824.4499999999999" y="1460.6100000000001" type="line"/>
      <point x="72.29" y="1460.6100000000001" type="line"/>
      <point x="72.29" y="1269.7733333333333" type="line"/>
      <point x="610.08" y="1269.7733333333333" type="line"/>
    </contour>
  </outline>
</glyph>
<glyph name="semicolon" format="2">
  <advance width="508.7095238095238"/>
  <unicode hex="003B"/>
  <note>
semicolon
</note>
  <outline>
    <contour>
      <point x="60.39333333333334" y="-264.0" type="curve"/>
      <point x="215.59666666666666" y="-264.0" type="line"/>
      <point x="293.7166666666667" y="-91.97999999999999"/>
      <point x="350.57" y="63.50666666666666"/>
      <point x="388.5466666666666" y="203.77666666666667" type="curve"/>
      <point x="374.5466666666667" y="226.77666666666667" type="line"/>
      <point x="160.85666666666665" y="226.77666666666667" type="line"/>
      <point x="139.22333333333333" y="74.97333333333333"/>
      <point x="105.29666666666667" y="-88.90333333333334"/>
    </contour>
    <contour>
      <point x="254.09" y="830.9100000000001" type="curve" smooth="yes"/>
      <point x="338.32666666666665" y="830.9100000000001"/>
      <point x="390.47" y="881.37"/>
      <point x="390.47" y="975.4399999999999" type="curve" smooth="yes"/>
      <point x="390.47" y="1069.1433333333334"/>
      <point x="343.61999999999995" y="1120.36"/>
      <point x="254.09" y="1120.36" type="curve" smooth="yes"/>
      <point x="164.56" y="1120.36"/>
      <point x="118.17333333333332" y="1068.68"/>
      <point x="118.17333333333332" y="975.4399999999999" type="curve" smooth="yes"/>
      <point x="118.17333333333332" y="883.1266666666667"/>
      <point x="165.0233333333333" y="830.9100000000001"/>
    </contour>
  </outline>
</glyph>
<glyph name="less" format="2">
  <advance width="884.5285714285715"/>
  <unicode hex="003C"/>
  <note>
less
</note>
  <outline>
    <contour>
      <point x="794.8966666666668" y="235.57" type="line"/>
      <point x="794.8966666666668" y="418.65333333333336" type="line"/>
      <point x="269.49333333333334" y="723.0" type="line"/>
      <point x="794.8966666666668" y="1025.9566666666667" type="line"/>
      <point x="794.8966666666668" y="1208.4299999999998" type="line"/>
      <point x="90.04333333333334" y="786.7266666666666" type="line"/>
      <point x="90.04333333333334" y="660.3466666666667" type="line"/>
    </contour>
  </outline>
</glyph>
<glyph name="B" format="2">
  <advance width="993.7095238095237"/>
  <unicode hex="0042"/>
  <anchor x="497.0900000000001" y="0.0" name="bottom"/>
  <anchor x="497.0900000000001" y="1462.0" name="top"/>
  <outline>
    <contour>
      <point x="139.14999999999998" y="0.0" type="line"/>
      <point x="544.65" y="0.0" type="line" smooth="yes"/>
      <point x="778.6699999999998" y="0.0"/>
      <point x="919.6666666666666" y="158.24333333333334"/>
      <point x="919.6666666666666" y="421.56" type="curve" smooth="yes"/>
      <point x="919.6666666666666" y="614.44"/>
      <point x="847.08" y="726.8299999999999"/>
      <point x="681.47" y="766.0" type="curve"/>
      <point x="681.47" y="775.39" type="line"/>
      <point x="814.4233333333334" y="801.1466666666666"/>
      <point x="890.5933333333334" y="921.0966666666667"/>
      <point x="890.5933333333334" y="1099.1733333333332" type="curve" smooth="yes"/>
      <point x="890.5933333333334" y="1347.17"/>
      <point x="759.3499999999999" y="1462.0"/>
      <point x="481.2366666666666" y="1462.0" type="curve" smooth="yes"/>
      <point x="139.14999999999998" y="1462.0" type="line"/>
    </contour>
    <contour>
      <point x="342.3266666666667" y="1276.09" type="line"/>
      <point x="479.38333333333327" y="1276.09" type="line" smooth="yes"/>
      <point x="613.17" y="1276.09"/>
      <point x="676.0766666666667" y="1212.89"/>
      <point x="676.0766666666667" y="1077.08" type="curve" smooth="yes"/>
      <point x="676.0766666666667" y="927.6800000000001"/>
      <point x="625.0" y="852.7"/>
      <point x="486.9433333333333" y="852.7" type="curve" smooth="yes"/>
      <point x="342.3266666666667" y="852.7" type="line"/>
    </contour>
    <contour>
      <point x="496.70000000000005" y="671.8866666666667" type="line" smooth="yes"/>
      <point x="631.0966666666667" y="671.8866666666667"/>
      <point x="701.8333333333334" y="592.15"/>
      <point x="701.8333333333334" y="439.77666666666664" type="curve" smooth="yes"/>
      <point x="701.8333333333334" y="269.89"/>
      <point x="637.9766666666667" y="187.76333333333332"/>
      <point x="508.4833333333334" y="187.76333333333332" type="curve" smooth="yes"/>
      <point x="342.3266666666667" y="187.76333333333332" type="line"/>
      <point x="342.3266666666667" y="671.8866666666667" type="line"/>
    </contour>
  </outline>
</glyph>
<glyph name="D" format="2">
  <advance width="1092.9619047619046"/>
  <unicode hex="0044"/>
  <anchor x="547.1133333333333" y="0.0" name="bottom"/>
  <anchor x="547.1133333333333" y="731.0" name="center"/>
  <anchor x="547.1133333333333" y="1462.0" name="top"/>
  <outline>
    <contour>
      <point x="1000.3700000000001" y="745.0" type="curve" smooth="yes"/>
      <point x="1000.3700000000001" y="1202.8799999999999"/>
      <point x="815.0333333333333" y="1462.0"/>
      <point x="488.55" y="1462.0" type="curve" smooth="yes"/>
      <point x="139.14999999999998" y="1462.0" type="line"/>
      <point x="139.14999999999998" y="0.0" type="line"/>
      <point x="464.48" y="0.0" type="line" smooth="yes"/>
      <point x="813.8633333333335" y="0.0"/>
      <point x="1000.3700000000001" y="257.26666666666665"/>
    </contour>
    <contour>
      <point x="780.61" y="737.61" type="curve" smooth="yes"/>
      <point x="780.61" y="374.38"/>
      <point x="680.9000000000001" y="187.7633333333333"/>
      <point x="463.5766666666667" y="187.7633333333333" type="curve" smooth="yes"/>
      <point x="352.52000000000004" y="187.7633333333333" type="line"/>
      <point x="352.52000000000004" y="1276.09" type="line"/>
      <point x="480.38000000000005" y="1276.09" type="line" smooth="yes"/>
      <point x="679.8499999999999" y="1276.09"/>
      <point x="780.61" y="1093.5466666666666"/>
    </contour>
  </outline>
</glyph>
<glyph name="F" format="2">
  <advance width="801.1476190476191"/>
  <unicode hex="0046"/>
  <anchor x="400.67666666666673" y="0.0" name="bottom"/>
  <anchor x="400.67666666666673" y="1462.0" name="top"/>
  <outline>
    <contour>
      <point x="351.59333333333336" y="608.52" type="line"/>
      <point x="727.3066666666667" y="608.52" type="line"/>
      <point x="727.3066666666667" y="796.65" type="line"/>
      <point x="351.59333333333336" y="796.65" type="line"/>
      <point x="351.59333333333336" y="1274.4066666666668" type="line"/>
      <point x="752.6966666666667" y="1274.4066666666668" type="line"/>
      <point x="752.6966666666667" y="1462.0" type="line"/>
      <point x="139.14999999999998" y="1462.0" type="line"/>
      <point x="139.14999999999998" y="0.0" type="line"/>
      <point x="351.59333333333336" y="0.0" type="line"/>
    </contour>
  </outline>
</glyph>
<glyph name="N" format="2">
  <advance width="1217.0857142857142"/>
  <unicode hex="004E"/>
  <anchor x="608.4766666666667" y="0.0" name="bottom"/>
  <anchor x="608.4766666666667" y="1462.0" name="top"/>
  <outline>
    <contour>
      <point x="139.14999999999998" y="0.0" type="line"/>
      <point x="338.47333333333336" y="0.0" type="line"/>
      <point x="338.47333333333336" y="883.1266666666667" type="line" smooth="yes"/>
      <point x="338.47333333333336" y="973.1500000000001"/>
      <point x="332.1566666666667" y="1059.6866666666665"/>
      <point x="318.1333333333333" y="1144.2" type="curve"/>
      <point x="329.84000000000003" y="1144.2" type="line"/>
      <point x="816.12" y="0.0" type="line"/>
      <point x="1077.8033333333333" y="0.0" type="line"/>
      <point x="1077.8033333333333" y="1462.0" type="line"/>
      <point x="879.4066666666668" y="1462.0" type="line"/>
      <point x="879.4066666666668" y="588.2666666666667" type="line" smooth="yes"/>
      <point x="879.4066666666668" y="499.05"/>
      <point x="884.26" y="413.0733333333333"/>
      <point x="894.8199999999999" y="330.02000000000004" type="curve"/>
      <point x="885.5766666666667" y="330.02000000000004" type="line"/>
      <point x="403.2966666666667" y="1462.0" type="line"/>
      <point x="139.14999999999998" y="1462.0" type="line"/>
    </contour>
  </outline>
</glyph>
<glyph name="O" format="2">
  <advance width="1166.9333333333334"/>
  <unicode hex="004F"/>
  <anchor x="583.9666666666666" y="0.0" name="bottom"/>
  <anchor x="583.9666666666666" y="731.0" name="center"/>
  <anchor x="1050.2033333333331" y="10.0" name="ogonek"/>
  <anchor x="583.9666666666666" y="1462.0" name="top"/>
  <anchor x="170.7333333333333" y="1462.0" name="topleft"/>
  <anchor x="1146.9333333333334" y="1462.0" name="topright"/>
  <outline>
    <contour>
      <point x="1073.54" y="733.0" type="curve" smooth="yes"/>
      <point x="1073.54" y="1215.8533333333332"/>
      <point x="901.0566666666667" y="1484.3899999999999"/>
      <point x="585.9666666666666" y="1484.3899999999999" type="curve" smooth="yes"/>
      <point x="264.97333333333336" y="1484.3899999999999"/>
      <point x="93.39333333333333" y="1225.5633333333333"/>
      <point x="93.39333333333333" y="735.0" type="curve" smooth="yes"/>
      <point x="93.39333333333333" y="248.29333333333335"/>
      <point x="265.73" y="-20.0"/>
      <point x="583.43" y="-20.0" type="curve" smooth="yes"/>
      <point x="899.0566666666667" y="-20.0"/>
      <point x="1073.54" y="249.0"/>
    </contour>
    <contour>
      <point x="311.22666666666663" y="733.0" type="curve" smooth="yes"/>
      <point x="311.22666666666663" y="1099.84"/>
      <point x="404.3266666666666" y="1293.5533333333333"/>
      <point x="585.9666666666666" y="1293.5533333333333" type="curve" smooth="yes"/>
      <point x="764.8499999999999" y="1293.5533333333333"/>
      <point x="855.2433333333332" y="1105.3033333333333"/>
      <point x="855.2433333333332" y="733.0" type="curve" smooth="yes"/>
      <point x="855.2433333333332" y="358.8666666666667"/>
      <point x="762.7766666666666" y="171.3"/>
      <point x="583.43" y="171.3" type="curve" smooth="yes"/>
      <point x="405.5466666666666" y="171.3"/>
      <point x="311.22666666666663" y="365.18333333333334"/>
    </contour>
  </outline>
</glyph>
<glyph name="P" format="2">
  <advance width="933.3285714285714"/>
  <unicode hex="0050"/>
  <anchor x="466.7966666666667" y="0.0" name="bottom"/>
  <anchor x="466.7966666666667" y="1462.0" name="top"/>
  <outline>
    <contour>
      <point x="139.14999999999998" y="0.0" type="line"/>
      <point x="352.52000000000004" y="0.0" type="line"/>
      <point x="352.52000000000004" y="554.8866666666667" type="line"/>
      <point x="432.89" y="554.8866666666667" type="line" smooth="yes"/>
      <point x="720.5699999999999" y="554.8866666666667"/>
      <point x="873.9333333333333" y="714.1266666666667"/>
      <point x="873.9333333333333" y="1022.0766666666667" type="curve" smooth="yes"/>
      <point x="873.9333333333333" y="1319.1000000000001"/>
      <point x="737.2033333333334" y="1462.0"/>
      <point x="452.6666666666667" y="1462.0" type="curve" smooth="yes"/>
      <point x="139.14999999999998" y="1462.0" type="line"/>
    </contour>
    <contour>
      <point x="352.52000000000004" y="741.26" type="line"/>
      <point x="352.52000000000004" y="1276.09" type="line"/>
      <point x="433.2566666666667" y="1276.09" type="line" smooth="yes"/>
      <point x="586.5833333333333" y="1276.09"/>
      <point x="658.1" y="1195.9899999999998"/>
      <point x="658.1" y="1014.6633333333333" type="curve" smooth="yes"/>
      <point x="658.1" y="820.8733333333333"/>
      <point x="585.9266666666667" y="741.26"/>
      <point x="420.40333333333336" y="741.26" type="curve" smooth="yes"/>
    </contour>
  </outline>
</glyph>
<glyph name="Q" format="2">
  <advance width="1166.9333333333334"/>
  <unicode hex="0051"/>
  <anchor x="583.9666666666666" y="0.0" name="bottom"/>
  <anchor x="583.9666666666666" y="1462.0" name="top"/>
  <outline>
    <contour>
      <point x="806.9200000000001" y="-348.0" type="line"/>
      <point x="1057.02" y="-348.0" type="line"/>
      <point x="806.9533333333334" y="37.336666666666666" type="line"/>
      <point x="981.1733333333333" y="139.79666666666665"/>
      <point x="1073.54" y="379.75"/>
      <point x="1073.54" y="733.9266666666666" type="curve" smooth="yes"/>
      <point x="1073.54" y="1215.3899999999999"/>
      <point x="900.5933333333334" y="1484.3899999999999"/>
      <point x="585.9666666666666" y="1484.3899999999999" type="curve" smooth="yes"/>
      <point x="263.58333333333337" y="1484.3899999999999"/>
      <point x="93.39333333333333" y="1225.5633333333333"/>
      <point x="93.39333333333333" y="731.7566666666667" type="curve" smooth="yes"/>
      <point x="93.39333333333333" y="249.6833333333333"/>
      <point x="265.26666666666665" y="-19.53666666666667"/>
      <point x="587.1366666666667" y="-20.0" type="curve" smooth="yes"/>
      <point x="596.7233333333334" y="-20.0"/>
      <point x="605.7733333333333" y="-19.46333333333333"/>
      <point x="615.36" y="-17.85333333333333" type="curve"/>
    </contour>
    <contour>
      <point x="584.8199999999999" y="171.3" type="curve" smooth="yes"/>
      <point x="405.5466666666666" y="171.3"/>
      <point x="311.22666666666663" y="364.72"/>
      <point x="311.22666666666663" y="733.4633333333334" type="curve" smooth="yes"/>
      <point x="311.22666666666663" y="1100.3033333333333"/>
      <point x="404.3266666666666" y="1293.5533333333333"/>
      <point x="586.43" y="1293.5533333333333" type="curve" smooth="yes"/>
      <point x="764.3866666666665" y="1293.5533333333333"/>
      <point x="855.2433333333332" y="1104.84"/>
      <point x="855.2433333333332" y="733.9266666666666" type="curve" smooth="yes"/>
      <point x="855.2433333333332" y="359.33"/>
      <point x="762.7766666666666" y="171.3"/>
    </contour>
  </outline>
</glyph>
<glyph name="S" format="2">
  <advance width="833.4904761904761"/>
  <unicode hex="0053"/>
  <anchor x="398.11333333333334" y="0.0" name="bottom"/>
  <anchor x="417.0466666666666" y="1462.0" name="top"/>
  <outline>
    <contour>
      <point x="371.48333333333335" y="-20.0" type="curve" smooth="yes"/>
      <point x="637.31" y="-20.0"/>
      <point x="770.1133333333335" y="142.24666666666667"/>
      <point x="770.1133333333335" y="391.34000000000003" type="curve" smooth="yes"/>
      <point x="770.1133333333335" y="621.5333333333333"/>
      <point x="656.2833333333333" y="718.7033333333333"/>
      <point x="504.11" y="813.41" type="curve" smooth="yes"/>
      <point x="430.74" y="857.1433333333333"/>
      <point x="369.00666666666666" y="896.1433333333333"/>
      <point x="331.85999999999996" y="956.34" type="curve" smooth="yes"/>
      <point x="309.39666666666665" y="992.0966666666667"/>
      <point x="296.46999999999997" y="1035.0"/>
      <point x="296.46999999999997" y="1089.8066666666666" type="curve" smooth="yes"/>
      <point x="296.46999999999997" y="1217.1833333333332"/>
      <point x="360.72" y="1291.48"/>
      <point x="475.58000000000004" y="1291.48" type="curve" smooth="yes"/>
      <point x="549.5300000000001" y="1291.48"/>
      <point x="634.48" y="1253.4833333333333"/>
      <point x="686.7033333333333" y="1224.75" type="curve"/>
      <point x="758.9899999999999" y="1400.2966666666666" type="line"/>
      <point x="676.0933333333332" y="1450.5366666666666"/>
      <point x="567.4599999999999" y="1483.0"/>
      <point x="460.21666666666664" y="1483.0" type="curve" smooth="yes"/>
      <point x="227.12333333333336" y="1483.0"/>
      <point x="85.95333333333333" y="1330.0733333333333"/>
      <point x="85.95333333333333" y="1083.37" type="curve" smooth="yes"/>
      <point x="85.95333333333333" y="1022.0533333333334"/>
      <point x="94.95333333333333" y="967.98"/>
      <point x="112.95333333333333" y="916.6633333333333" type="curve" smooth="yes"/>
      <point x="160.73333333333332" y="781.3"/>
      <point x="246.27000000000004" y="724.35"/>
      <point x="341.7866666666667" y="666.8366666666666" type="curve" smooth="yes"/>
      <point x="464.9366666666667" y="591.7633333333334"/>
      <point x="558.5966666666667" y="522.6433333333333"/>
      <point x="558.5966666666667" y="377.5866666666667" type="curve" smooth="yes"/>
      <point x="558.5966666666667" y="250.5033333333334"/>
      <point x="490.85999999999996" y="168.52"/>
      <point x="361.34000000000003" y="168.52" type="curve" smooth="yes"/>
      <point x="278.0733333333333" y="168.52"/>
      <point x="167.04666666666665" y="201.71333333333334"/>
      <point x="73.95333333333333" y="260.7099999999999" type="curve"/>
      <point x="73.95333333333333" y="46.75333333333333" type="line"/>
      <point x="156.29333333333335" y="0.9499999999999997"/>
      <point x="275.0733333333333" y="-20.0"/>
    </contour>
  </outline>
</glyph>
<glyph name="T" format="2">
  <advance width="826.1714285714286"/>
  <unicode hex="0054"/>
  <anchor x="405.94000000000005" y="0.0" name="bottom"/>
  <anchor x="413.4533333333333" y="731.0" name="center"/>
  <anchor x="413.4533333333333" y="1462.0" name="top"/>
  <outline>
    <contour>
      <point x="518.8333333333334" y="1272.09" type="line"/>
      <point x="802.42" y="1272.09" type="line"/>
      <point x="802.42" y="1462.0" type="line"/>
      <point x="22.803333333333335" y="1462.0" type="line"/>
      <point x="22.803333333333335" y="1272.09" type="line"/>
      <point x="306.39000000000004" y="1272.09" type="line"/>
      <point x="306.39000000000004" y="0.0" type="line"/>
      <point x="518.8333333333334" y="0.0" type="line"/>
    </contour>
  </outline>
</glyph>
<glyph name="U" format="2">
  <advance width="1104.0047619047618"/>
  <unicode hex="0055"/>
  <anchor x="552.3333333333333" y="0.0" name="bottom"/>
  <anchor x="753.3047619047619" y="10.0" name="ogonek"/>
  <anchor x="552.3333333333333" y="1462.0" name="top"/>
  <anchor x="1084.2033333333334" y="1462.0" name="topright"/>
  <outline>
    <contour>
      <point x="548.92" y="-20.0" type="curve" smooth="yes"/>
      <point x="825.6933333333333" y="-20.0"/>
      <point x="972.4199999999998" y="160.29000000000002"/>
      <point x="972.4199999999998" y="502.3366666666666" type="curve" smooth="yes"/>
      <point x="972.4199999999998" y="1462.0" type="line"/>
      <point x="760.4399999999999" y="1462.0" type="line"/>
      <point x="760.4399999999999" y="484.60666666666674" type="line" smooth="yes"/>
      <point x="760.4399999999999" y="281.67"/>
      <point x="687.73" y="171.3"/>
      <point x="554.9433333333334" y="171.3" type="curve" smooth="yes"/>
      <point x="416.5233333333333" y="171.3"/>
      <point x="343.3" y="278.5733333333334"/>
      <point x="343.3" y="487.5566666666667" type="curve" smooth="yes"/>
      <point x="343.3" y="1462.0" type="line"/>
      <point x="131.24666666666667" y="1462.0" type="line"/>
      <point x="131.24666666666667" y="504.6533333333333" type="line" smooth="yes"/>
      <point x="131.24666666666667" y="161.56"/>
      <point x="277.24333333333334" y="-20.0"/>
    </contour>
  </outline>
</glyph>
<glyph name="W" format="2">
  <advance width="1545.252380952381"/>
  <unicode hex="0057"/>
  <anchor x="772.5966666666667" y="0.0" name="bottom"/>
  <anchor x="772.5966666666667" y="1462.0" name="top"/>
  <outline>
    <contour>
      <point x="296.66333333333336" y="0.0" type="line"/>
      <point x="561.3933333333333" y="0.0" type="line"/>
      <point x="727.1099999999999" y="874.99" type="line" smooth="yes"/>
      <point x="742.7433333333333" y="962.9599999999999"/>
      <point x="757.5966666666667" y="1081.8566666666666"/>
      <point x="771.9866666666666" y="1203.2666666666667" type="curve"/>
      <point x="784.0366666666666" y="1061.34"/>
      <point x="801.5966666666667" y="945.6633333333334"/>
      <point x="814.4" y="876.6966666666667" type="curve" smooth="yes"/>
      <point x="985.0433333333333" y="0.0" type="line"/>
      <point x="1250.4566666666667" y="0.0" type="line"/>
      <point x="1529.95" y="1462.0" type="line"/>
      <point x="1317.8233333333333" y="1462.0" type="line"/>
      <point x="1161.35" y="575.0033333333333" type="line" smooth="yes"/>
      <point x="1144.6666666666665" y="474.41999999999996"/>
      <point x="1125.6666666666667" y="339.1066666666667"/>
      <point x="1108.52" y="200.42333333333335" type="curve"/>
      <point x="1093.91" y="348.51666666666665"/>
      <point x="1082.3" y="435.12666666666667"/>
      <point x="1056.2266666666667" y="571.2966666666666" type="curve" smooth="yes"/>
      <point x="885.1233333333334" y="1462.0" type="line"/>
      <point x="660.6066666666667" y="1462.0" type="line"/>
      <point x="488.50333333333333" y="570.0766666666666" type="line" smooth="yes"/>
      <point x="469.6" y="470.4633333333333"/>
      <point x="455.77" y="371.82666666666665"/>
      <point x="437.98999999999995" y="201.34999999999997" type="curve"/>
      <point x="425.7466666666667" y="310.83"/>
      <point x="404.8933333333333" y="462.43333333333334"/>
      <point x="383.40333333333336" y="575.0033333333333" type="curve" smooth="yes"/>
      <point x="226.98" y="1462.0" type="line"/>
      <point x="15.560000000000002" y="1462.0" type="line"/>
    </contour>
  </outline>
</glyph>
<glyph name="Z" format="2">
  <advance width="797.8857142857142"/>
  <unicode hex="005A"/>
  <anchor x="399.84000000000003" y="0.0" name="bottom"/>
  <anchor x="399.84000000000003" y="1462.0" name="top"/>
  <outline>
    <contour>
      <point x="755.8266666666666" y="189.44666666666666" type="line"/>
      <point x="286.9533333333333" y="189.44666666666666" type="line"/>
      <point x="741.9733333333334" y="1305.7433333333336" type="line"/>
      <point x="741.9733333333334" y="1462.0" type="line"/>
      <point x="58.83" y="1462.0" type="line"/>
      <point x="58.83" y="1272.4066666666668" type="line"/>
      <point x="500.4599999999999" y="1272.4066666666668" type="line"/>
      <point x="47.733333333333334" y="155.18333333333334" type="line"/>
      <point x="47.733333333333334" y="0.0" type="line"/>
      <point x="755.8266666666666" y="0.0" type="line"/>
    </contour>
  </outline>
</glyph>
<glyph name="backslash" format="2">
  <advance width="789.7809523809524"/>
  <unicode hex="005C"/>
  <note>
backslash
</note>
  <outline>
    <contour>
      <point x="563.7333333333333" y="0.0" type="line"/>
      <point x="768.52" y="0.0" type="line"/>
      <point x="229.47333333333336" y="1462.0" type="line"/>
      <point x="26.443333333333335" y="1462.0" type="line"/>
    </contour>
  </outline>
</glyph>
<glyph name="bracketright" format="2">
  <advance width="647.6476190476191"/>
  <unicode hex="005D"/>
  <note>
bracketright
</note>
  <outline>
    <contour>
      <point x="56.39333333333333" y="-324.0" type="line"/>
      <point x="500.6533333333333" y="-324.0" type="line"/>
      <point x="500.6533333333333" y="1462.0" type="line"/>
      <point x="56.39333333333333" y="1462.0" type="line"/>
      <point x="56.39333333333333" y="1300.1833333333334" type="line"/>
      <point x="306.11" y="1300.1833333333334" type="line"/>
      <point x="306.11" y="-161.18333333333334" type="line"/>
      <point x="56.39333333333333" y="-161.18333333333334" type="line"/>
    </contour>
  </outline>
</glyph>
<glyph name="asciicircum" format="2">
  <advance width="998.3761904761903"/>
  <unicode hex="005E"/>
  <note>
asciicircum
</note>
  <outline>
    <contour>
      <point x="21.710000000000008" y="604.1733333333333" type="line"/>
      <point x="202.32999999999998" y="604.1733333333333" type="line"/>
      <point x="485.5233333333333" y="1240.5066666666667" type="line"/>
      <point x="795.37" y="604.1733333333333" type="line"/>
      <point x="978.4533333333334" y="604.1733333333333" type="line"/>
      <point x="537.4466666666667" y="1466.95" type="line"/>
      <point x="425.50333333333333" y="1466.95" type="line"/>
    </contour>
  </outline>
</glyph>
<glyph name="underscore" format="2">
  <advance width="745.3619047619047"/>
  <unicode hex="005F"/>
  <note>
underscore
</note>
  <outline>
    <contour>
      <point x="-4.0" y="-304.4566666666667" type="line"/>
      <point x="749.6266666666666" y="-304.4566666666667" type="line"/>
      <point x="749.6266666666666" y="-184.0" type="line"/>
      <point x="-4.0" y="-184.0" type="line"/>
    </contour>
  </outline>
</glyph>
<glyph name="h" format="2">
  <advance width="981.2"/>
  <unicode hex="0068"/>
  <anchor x="490.1366666666666" y="0.0" name="bottom"/>
  <anchor x="490.1366666666666" y="552.2666666666667" name="center"/>
  <anchor x="490.1366666666666" y="1504.4600000000003" name="top"/>
  <outline>
    <contour>
      <point x="123.68666666666665" y="0.0" type="line"/>
      <point x="332.2033333333334" y="0.0" type="line"/>
      <point x="332.2033333333334" y="555.08" type="line" smooth="yes"/>
      <point x="332.2033333333334" y="685.7900000000001"/>
      <point x="347.1066666666667" y="781.1333333333333"/>
      <point x="375.6933333333333" y="846.7433333333333" type="curve" smooth="yes"/>
      <point x="404.89000000000004" y="913.11"/>
      <point x="453.30666666666673" y="945.7199999999999"/>
      <point x="520.65" y="945.7199999999999" type="curve" smooth="yes"/>
      <point x="613.8733333333333" y="945.7199999999999"/>
      <point x="656.7766666666666" y="865.6233333333333"/>
      <point x="656.7766666666666" y="692.8633333333333" type="curve" smooth="yes"/>
      <point x="656.7766666666666" y="0.0" type="line"/>
      <point x="866.1466666666666" y="0.0" type="line"/>
      <point x="866.1466666666666" y="734.1" type="line" smooth="yes"/>
      <point x="866.1466666666666" y="985.5833333333333"/>
      <point x="774.3699999999999" y="1125.46"/>
      <point x="579.2766666666666" y="1125.46" type="curve" smooth="yes"/>
      <point x="466.6166666666666" y="1125.46"/>
      <point x="384.3" y="1066.8"/>
      <point x="334.35" y="959.1666666666666" type="curve"/>
      <point x="322.6433333333333" y="959.1666666666666" type="line"/>
      <point x="328.88666666666666" y="1045.7666666666667"/>
      <point x="332.2033333333334" y="1110.64"/>
      <point x="332.2033333333334" y="1156.1766666666667" type="curve" smooth="yes"/>
      <point x="332.2033333333334" y="1556.0" type="line"/>
      <point x="123.68666666666665" y="1556.0" type="line"/>
    </contour>
  </outline>
</glyph>
<glyph name="n" format="2">
  <advance width="981.2"/>
  <unicode hex="006E"/>
  <anchor x="490.1366666666666" y="0.0" name="bottom"/>
  <anchor x="490.13666666666666" y="1104.4600000000003" name="top"/>
  <outline>
    <contour>
      <point x="123.68666666666665" y="0.0" type="line"/>
      <point x="332.2033333333334" y="0.0" type="line"/>
      <point x="332.2033333333334" y="555.2266666666667" type="line" smooth="yes"/>
      <point x="332.2033333333334" y="696.6433333333333"/>
      <point x="347.57" y="797.6933333333333"/>
      <point x="379.30333333333334" y="858.28" type="curve" smooth="yes"/>
      <point x="411.35333333333335" y="918.9633333333334"/>
      <point x="458.6233333333334" y="945.7199999999999"/>
      <point x="523.65" y="945.7199999999999" type="curve" smooth="yes"/>
      <point x="615.36" y="945.7199999999999"/>
      <point x="656.7766666666666" y="857.5733333333334"/>
      <point x="656.7766666666666" y="692.8633333333333" type="curve" smooth="yes"/>
      <point x="656.7766666666666" y="0.0" type="line"/>
      <point x="866.1466666666666" y="0.0" type="line"/>
      <point x="866.1466666666666" y="734.71" type="line" smooth="yes"/>
      <point x="866.1466666666666" y="995.2933333333333"/>
      <point x="773.3433333333332" y="1125.46"/>
      <point x="576.1533333333333" y="1125.46" type="curve" smooth="yes"/>
      <point x="471.74000000000007" y="1125.46"/>
      <point x="375.03333333333336" y="1063.85"/>
      <point x="328.6433333333333" y="958.5566666666667" type="curve"/>
      <point x="314.5466666666667" y="958.5566666666667" type="line"/>
      <point x="290.33" y="1104.4600000000003" type="line"/>
      <point x="123.68666666666665" y="1104.4600000000003" type="line"/>
    </contour>
  </outline>
</glyph>
<glyph name="o" format="2">
  <advance width="957.2285714285715"/>
  <unicode hex="006F"/>
  <anchor x="478.28333333333336" y="0.0" name="bottom"/>
  <anchor x="478.28333333333336" y="552.2666666666668" name="center"/>
  <anchor x="861.3733333333332" y="10.0" name="ogonek"/>
  <anchor x="478.28333333333336" y="1104.4600000000003" name="top"/>
  <anchor x="937.4933333333333" y="1104.4600000000003" name="topright"/>
  <outline>
    <contour>
      <point x="478.99" y="-20.0" type="curve" smooth="yes"/>
      <point x="725.4966666666667" y="-20.0"/>
      <point x="876.0033333333333" y="189.73"/>
      <point x="876.0033333333333" y="552.4133333333333" type="curve" smooth="yes"/>
      <point x="876.0033333333333" y="908.4133333333333"/>
      <point x="725.74" y="1125.46"/>
      <point x="479.28333333333336" y="1125.46" type="curve" smooth="yes"/>
      <point x="226.77666666666667" y="1125.46"/>
      <point x="80.56333333333333" y="919.9266666666667"/>
      <point x="80.56333333333333" y="554.73" type="curve" smooth="yes"/>
      <point x="80.56333333333333" y="243.68333333333334"/>
      <point x="203.72666666666666" y="-20.0"/>
    </contour>
    <contour>
      <point x="478.21" y="160.35" type="curve" smooth="yes"/>
      <point x="414.06" y="160.35"/>
      <point x="366.18" y="194.76666666666665"/>
      <point x="336.0566666666667" y="265.8433333333333" type="curve" smooth="yes"/>
      <point x="309.54333333333335" y="328.1633333333333"/>
      <point x="294.47" y="425.40999999999997"/>
      <point x="294.47" y="555.6566666666666" type="curve" smooth="yes"/>
      <point x="294.47" y="683.2199999999999"/>
      <point x="308.47" y="776.4666666666667"/>
      <point x="334.3" y="838.25" type="curve" smooth="yes"/>
      <point x="363.81333333333333" y="910.0833333333333"/>
      <point x="412.3033333333333" y="943.7199999999999"/>
      <point x="478.67333333333335" y="943.7199999999999" type="curve" smooth="yes"/>
      <point x="540.3333333333334" y="943.7199999999999"/>
      <point x="584.14" y="912.6466666666666"/>
      <point x="613.3366666666666" y="854.7433333333333" type="curve" smooth="yes"/>
      <point x="648.7533333333333" y="785.0833333333333"/>
      <point x="663.0233333333333" y="676.3"/>
      <point x="663.0233333333333" y="557.51" type="curve" smooth="yes"/>
      <point x="663.0233333333333" y="428.77333333333337"/>
      <point x="648.6566666666668" y="332.62333333333333"/>
      <point x="619.9233333333333" y="266.59666666666664" type="curve" smooth="yes"/>
      <point x="589.2633333333333" y="195.25333333333333"/>
      <point x="541.8466666666667" y="160.35"/>
    </contour>
  </outline>
</glyph>
<glyph name="p" format="2">
  <advance width="974.4142857142857"/>
  <unicode hex="0070"/>
  <anchor x="487.7733333333334" y="0.0" name="bottom"/>
  <anchor x="487.7733333333334" y="1104.4600000000003" name="top"/>
  <outline>
    <contour>
      <point x="123.68666666666665" y="-492.0" type="line"/>
      <point x="333.59333333333336" y="-492.0" type="line"/>
      <point x="333.59333333333336" y="-13.943333333333328" type="line" smooth="yes"/>
      <point x="332.52000000000004" y="16.326666666666682"/>
      <point x="328.5933333333333" y="60.88666666666667"/>
      <point x="320.57" y="134.71" type="curve"/>
      <point x="332.35" y="134.71" type="line"/>
      <point x="388.6166666666666" y="30.173333333333332"/>
      <point x="470.2533333333333" y="-20.0"/>
      <point x="567.67" y="-20.0" type="curve" smooth="yes"/>
      <point x="775.9366666666666" y="-20.0"/>
      <point x="893.5200000000001" y="193.26666666666668"/>
      <point x="893.5200000000001" y="556.5833333333334" type="curve" smooth="yes"/>
      <point x="893.5200000000001" y="922.7066666666667"/>
      <point x="778.7166666666667" y="1125.46"/>
      <point x="569.9599999999999" y="1125.46" type="curve" smooth="yes"/>
      <point x="470.4966666666666" y="1125.46"/>
      <point x="385.35" y="1068.6299999999999"/>
      <point x="331.42333333333335" y="957.7766666666666" type="curve"/>
      <point x="320.57000000000005" y="957.7766666666666" type="line"/>
      <point x="286.4766666666667" y="1104.4600000000003" type="line"/>
      <point x="123.68666666666665" y="1104.4600000000003" type="line"/>
    </contour>
    <contour>
      <point x="510.5066666666667" y="160.52" type="curve" smooth="yes"/>
      <point x="363.76666666666665" y="160.52"/>
      <point x="332.2033333333334" y="346.6733333333333"/>
      <point x="332.2033333333334" y="557.9499999999999" type="curve" smooth="yes"/>
      <point x="332.2033333333334" y="591.2666666666667" type="line" smooth="yes"/>
      <point x="332.2033333333334" y="780.08"/>
      <point x="364.76666666666665" y="945.11"/>
      <point x="508.35999999999996" y="945.11" type="curve" smooth="yes"/>
      <point x="655.1233333333333" y="945.11"/>
      <point x="680.0766666666667" y="760.08"/>
      <point x="680.0766666666667" y="557.9733333333334" type="curve" smooth="yes"/>
      <point x="680.0766666666667" y="357.91666666666663"/>
      <point x="652.8066666666666" y="160.52"/>
    </contour>
  </outline>
</glyph>
<glyph name="r" format="2">
  <advance width="645.7095238095238"/>
  <unicode hex="0072"/>
  <anchor x="197.08095238095234" y="0.0" name="bottom"/>
  <anchor x="323.09000000000003" y="1104.4600000000003" name="top"/>
  <outline>
    <contour>
      <point x="123.68666666666665" y="0.0" type="line"/>
      <point x="332.2033333333334" y="0.0" type="line"/>
      <point x="332.2033333333334" y="573.6099999999999" type="line" smooth="yes"/>
      <point x="332.2033333333334" y="643.0266666666666"/>
      <point x="340.74" y="704.1266666666667"/>
      <point x="356.42333333333335" y="756.3" type="curve" smooth="yes"/>
      <point x="387.3266666666666" y="858.8666666666667"/>
      <point x="451.62000000000006" y="919.3333333333334"/>
      <point x="531.1066666666667" y="919.3333333333334" type="curve" smooth="yes"/>
      <point x="563.52" y="919.3333333333334"/>
      <point x="586.6666666666667" y="915.26"/>
      <point x="607.4233333333333" y="907.5766666666667" type="curve"/>
      <point x="635.52" y="1110.9966666666667" type="line"/>
      <point x="605.5933333333332" y="1120.4600000000003"/>
      <point x="574.52" y="1125.46"/>
      <point x="538.2033333333334" y="1125.46" type="curve" smooth="yes"/>
      <point x="447.96000000000004" y="1125.46"/>
      <point x="381.34999999999997" y="1061.02"/>
      <point x="326.6433333333333" y="924.6533333333333" type="curve"/>
      <point x="318.71666666666664" y="924.6533333333333" type="line"/>
      <point x="295.28" y="1104.4600000000003" type="line"/>
      <point x="123.68666666666665" y="1104.4600000000003" type="line"/>
    </contour>
  </outline>
</glyph>
<glyph name="v" format="2">
  <advance width="825.095238095238"/>
  <unicode hex="0076"/>
  <anchor x="413.17999999999995" y="0.0" name="bottom"/>
  <anchor x="413.17999999999995" y="1104.46" name="top"/>
  <outline>
    <contour>
      <point x="282.68" y="0.0" type="line"/>
      <point x="538.85" y="0.0" type="line"/>
      <point x="822.7733333333334" y="1104.46" type="line"/>
      <point x="607.6966666666667" y="1104.46" type="line"/>
      <point x="439.42333333333335" y="361.78333333333336" type="line" smooth="yes"/>
      <point x="428.96" y="315.07666666666665"/>
      <point x="417.4" y="216.38"/>
      <point x="415.25333333333333" y="182.30666666666667" type="curve"/>
      <point x="410.03333333333336" y="182.30666666666667" type="line"/>
      <point x="400.91" y="248.58"/>
      <point x="382.91" y="374.10999999999996"/>
      <point x="367.6166666666666" y="441.21" type="curve" smooth="yes"/>
      <point x="218.12666666666667" y="1104.46" type="line"/>
      <point x="3.05" y="1104.46" type="line"/>
    </contour>
  </outline>
</glyph>
<glyph name="w" format="2">
  <advance width="1358.638095238095"/>
  <unicode hex="0077"/>
  <anchor x="679.15" y="0.0" name="bottom"/>
  <anchor x="679.15" y="1104.996666666667" name="top"/>
  <outline>
    <contour>
      <point x="246.19666666666666" y="0.0" type="line"/>
      <point x="512.2433333333333" y="0.0" type="line"/>
      <point x="640.2233333333334" y="679.8633333333333" type="line" smooth="yes"/>
      <point x="654.3699999999999" y="755.8633333333335"/>
      <point x="659.98" y="791.01"/>
      <point x="676.3699999999999" y="928.2466666666667" type="curve"/>
      <point x="679.2966666666666" y="928.2466666666667" type="line"/>
      <point x="691.8333333333334" y="840.2966666666666"/>
      <point x="707.1999999999999" y="739.9033333333333"/>
      <point x="717.0766666666666" y="676.6199999999999" type="curve" smooth="yes"/>
      <point x="841.5933333333332" y="0.0" type="line"/>
      <point x="1108.3466666666668" y="0.0" type="line"/>
      <point x="1338.4466666666667" y="1104.996666666667" type="line"/>
      <point x="1134.1733333333334" y="1104.996666666667" type="line"/>
      <point x="1007.3366666666666" y="428.9266666666666" type="line" smooth="yes"/>
      <point x="992.58" y="347.09666666666664"/>
      <point x="982.41" y="270.3"/>
      <point x="973.63" y="174.42999999999998" type="curve"/>
      <point x="969.5566666666666" y="174.42999999999998" type="line"/>
      <point x="955.7500000000001" y="315.53000000000003"/>
      <point x="937.7733333333333" y="435.7033333333333"/>
      <point x="928.7733333333333" y="484.58000000000004" type="curve" smooth="yes"/>
      <point x="810.38" y="1104.996666666667" type="line"/>
      <point x="549.5300000000001" y="1104.996666666667" type="line"/>
      <point x="431.21" y="486.5799999999999" type="line" smooth="yes"/>
      <point x="414.8666666666667" y="406.84000000000003"/>
      <point x="397.72" y="259.31"/>
      <point x="390.74333333333334" y="174.43" type="curve"/>
      <point x="384.74333333333334" y="174.43" type="line"/>
      <point x="372.1566666666667" y="301.23333333333335"/>
      <point x="349.8366666666667" y="435.05"/>
      <point x="342.2033333333334" y="484.5799999999999" type="curve" smooth="yes"/>
      <point x="228.4433333333333" y="1104.996666666667" type="line"/>
      <point x="20.0" y="1104.996666666667" type="line"/>
    </contour>
  </outline>
</glyph>
<glyph name="braceleft" format="2">
  <advance width="737.0"/>
  <unicode hex="007B"/>
  <note>
braceleft
</note>
  <outline>
    <contour>
      <point x="679.3333333333333" y="-324.0" type="curve"/>
      <point x="679.3333333333333" y="-157.29047619047623" type="line"/>
      <point x="629.0666666666667" y="-155.62857142857143"/>
      <point x="591.7428571428572" y="-148.3047619047619"/>
      <point x="566.0523809523809" y="-134.9809523809524" type="curve" smooth="yes"/>
      <point x="513.2190476190476" y="-109.60000000000001"/>
      <point x="489.45714285714286" y="-59.45714285714287"/>
      <point x="489.45714285714286" y="19.13809523809524" type="curve" smooth="yes"/>
      <point x="489.45714285714286" y="334.1380952380953" type="line" smooth="yes"/>
      <point x="489.45714285714286" y="468.66190476190474"/>
      <point x="420.23333333333335" y="539.3238095238095"/>
      <point x="271.2904761904762" y="563.6761904761904" type="curve"/>
      <point x="271.2904761904762" y="574.3238095238096" type="line"/>
      <point x="416.9095238095238" y="598.0142857142857"/>
      <point x="489.45714285714286" y="671.9857142857144"/>
      <point x="489.45714285714286" y="811.8047619047619" type="curve" smooth="yes"/>
      <point x="489.45714285714286" y="1119.8619047619047" type="line" smooth="yes"/>
      <point x="489.45714285714286" y="1204.7809523809524"/>
      <point x="516.2190476190476" y="1255.9238095238095"/>
      <point x="579.3619047619047" y="1279.6285714285714" type="curve" smooth="yes"/>
      <point x="604.3761904761905" y="1288.6285714285714"/>
      <point x="637.6999999999999" y="1293.6285714285714"/>
      <point x="679.3333333333333" y="1295.290476190476" type="curve"/>
      <point x="679.3333333333333" y="1462.0" type="line"/>
      <point x="587.8285714285714" y="1460.661904761905"/>
      <point x="512.6047619047619" y="1450.2952380952381"/>
      <point x="456.66190476190474" y="1429.9142857142858" type="curve" smooth="yes"/>
      <point x="344.81904761904764" y="1387.8428571428572"/>
      <point x="293.15714285714284" y="1303.7714285714285"/>
      <point x="293.15714285714284" y="1167.490476190476" type="curve" smooth="yes"/>
      <point x="293.15714285714284" y="840.8428571428572" type="line" smooth="yes"/>
      <point x="293.15714285714284" y="792.0952380952381"/>
      <point x="282.84761904761905" y="754.052380952381"/>
      <point x="263.8904761904762" y="728.0380952380953" type="curve" smooth="yes"/>
      <point x="225.63809523809522" y="675.0095238095238"/>
      <point x="154.4142857142857" y="654.3047619047619"/>
      <point x="53.4" y="654.3047619047619" type="curve"/>
      <point x="53.4" y="483.37142857142857" type="line"/>
      <point x="128.24285714285713" y="483.37142857142857"/>
      <point x="187.77619047619046" y="471.73809523809524"/>
      <point x="224.05714285714288" y="446.82380952380953" type="curve" smooth="yes"/>
      <point x="271.1428571428571" y="418.82380952380953"/>
      <point x="293.15714285714284" y="372.4714285714286"/>
      <point x="293.15714285714284" y="290.53809523809525" type="curve" smooth="yes"/>
      <point x="293.15714285714284" y="-28.49047619047619" type="line" smooth="yes"/>
      <point x="293.15714285714284" y="-100.46190476190475"/>
      <point x="307.15714285714284" y="-156.15238095238095"/>
      <point x="334.81904761904764" y="-198.85714285714286" type="curve" smooth="yes"/>
      <point x="388.79047619047617" y="-283.5619047619047"/>
      <point x="499.67619047619047" y="-322.32380952380953"/>
    </contour>
  </outline>
</glyph>
<glyph name="braceright" format="2">
  <advance width="737.0"/>
  <unicode hex="007D"/>
  <note>
braceright
</note>
  <outline>
    <contour>
      <point x="57.20333333333333" y="-324.0" type="line"/>
      <point x="197.82999999999998" y="-322.9266666666666"/>
      <point x="295.75333333333333" y="-299.87666666666667"/>
      <point x="357.63" y="-250.65666666666667" type="curve" smooth="yes"/>
      <point x="416.94666666666666" y="-202.14333333333335"/>
      <point x="445.1666666666667" y="-129.09333333333333"/>
      <point x="445.1666666666667" y="-28.55666666666667" type="curve" smooth="yes"/>
      <point x="445.1666666666667" y="290.27333333333337" type="line" smooth="yes"/>
      <point x="445.1666666666667" y="343.39666666666665"/>
      <point x="456.33666666666664" y="382.7633333333334"/>
      <point x="476.75" y="411.2266666666667" type="curve" smooth="yes"/>
      <point x="511.6266666666667" y="461.2033333333333"/>
      <point x="578.2833333333333" y="483.57"/>
      <point x="684.1366666666667" y="483.57" type="curve"/>
      <point x="684.1366666666667" y="654.5033333333332" type="line"/>
      <point x="581.1133333333333" y="654.5033333333333"/>
      <point x="492.6766666666666" y="676.7233333333334"/>
      <point x="460.02" y="747.7733333333334" type="curve" smooth="yes"/>
      <point x="447.31333333333333" y="773.92"/>
      <point x="445.1666666666667" y="809.92"/>
      <point x="445.1666666666667" y="840.7766666666666" type="curve" smooth="yes"/>
      <point x="445.1666666666667" y="1167.5566666666666" type="line" smooth="yes"/>
      <point x="445.1666666666667" y="1280.1666666666667"/>
      <point x="409.8" y="1358.3633333333335"/>
      <point x="333.63" y="1405.4133333333334" type="curve" smooth="yes"/>
      <point x="271.9" y="1443.5600000000002"/>
      <point x="181.51333333333332" y="1460.9266666666667"/>
      <point x="57.20333333333333" y="1462.0" type="curve"/>
      <point x="57.20333333333333" y="1295.3566666666666" type="line"/>
      <point x="106.27666666666669" y="1293.8933333333334"/>
      <point x="144.49666666666667" y="1286.7466666666667"/>
      <point x="172.32666666666665" y="1273.4533333333331" type="curve" smooth="yes"/>
      <point x="226.20666666666668" y="1247.7933333333335"/>
      <point x="248.01333333333335" y="1198.3266666666668"/>
      <point x="248.01333333333335" y="1119.6633333333334" type="curve" smooth="yes"/>
      <point x="248.01333333333335" y="812.0033333333333" type="line" smooth="yes"/>
      <point x="248.01333333333335" y="675.56"/>
      <point x="314.28" y="600.4633333333334"/>
      <point x="467.49666666666667" y="574.3900000000001" type="curve"/>
      <point x="467.49666666666667" y="563.6099999999999" type="line"/>
      <point x="319.62" y="539.39"/>
      <point x="248.01333333333335" y="466.60999999999996"/>
      <point x="248.01333333333335" y="332.02000000000004" type="curve" smooth="yes"/>
      <point x="248.01333333333335" y="19.336666666666666" type="line" smooth="yes"/>
      <point x="248.01333333333335" y="-41.18000000000001"/>
      <point x="234.42666666666668" y="-85.03666666666668"/>
      <point x="204.93666666666667" y="-112.84333333333333" type="curve" smooth="yes"/>
      <point x="175.88666666666668" y="-141.20999999999998"/>
      <point x="129.44666666666666" y="-155.43"/>
      <point x="57.20333333333333" y="-157.35666666666668" type="curve"/>
    </contour>
  </outline>
</glyph>
<glyph name="cent" format="2">
  <advance width="904.3857142857142"/>
  <unicode hex="00A2"/>
  <note>
cent
</note>
  <outline>
    <contour>
      <point x="443.55999999999995" y="-20.0" type="line"/>
      <point x="580.6966666666667" y="-20.0" type="line"/>
      <point x="580.6966666666667" y="275.7" type="line"/>
      <point x="508.79999999999995" y="173.88" type="line"/>
      <point x="522.4566666666667" y="173.41666666666666" type="line" smooth="yes"/>
      <point x="610.1133333333333" y="174.63666666666668"/>
      <point x="683.4033333333333" y="192.34333333333333"/>
      <point x="743.3266666666667" y="231.17000000000002" type="curve"/>
      <point x="743.3266666666667" y="414.3233333333333" type="line"/>
      <point x="679.0600000000001" y="376.6433333333333"/>
      <point x="611.3800000000001" y="355.45"/>
      <point x="557.4300000000001" y="355.45" type="curve" smooth="yes"/>
      <point x="495.50333333333333" y="355.45"/>
      <point x="450.6733333333333" y="383.5466666666667"/>
      <point x="423.8666666666666" y="436.42333333333335" type="curve" smooth="yes"/>
      <point x="385.57000000000005" y="499.7666666666667"/>
      <point x="368.5433333333333" y="609.21"/>
      <point x="368.5433333333333" y="737.3433333333332" type="curve" smooth="yes"/>
      <point x="368.5433333333333" y="878.1800000000001"/>
      <point x="384.74" y="987.6233333333333"/>
      <point x="422.28" y="1052.5766666666666" type="curve" smooth="yes"/>
      <point x="450.0133333333333" y="1107.3566666666666"/>
      <point x="492.7466666666667" y="1136.6733333333332"/>
      <point x="554.65" y="1136.6733333333332" type="curve" smooth="yes"/>
      <point x="593.82" y="1136.6733333333332"/>
      <point x="640.3800000000001" y="1122.5033333333333"/>
      <point x="693.8666666666667" y="1094.2366666666667" type="curve"/>
      <point x="758.2033333333333" y="1261.32" type="line"/>
      <point x="690.4266666666666" y="1299.7566666666667"/>
      <point x="610.5766666666666" y="1320.5600000000002"/>
      <point x="519.8966666666668" y="1324.34" type="curve" smooth="yes"/>
      <point x="510.79999999999995" y="1324.8033333333335" type="line"/>
      <point x="580.6966666666667" y="1219.4233333333334" type="line"/>
      <point x="580.6966666666667" y="1479.7566666666667" type="line"/>
      <point x="443.55999999999995" y="1479.7566666666667" type="line"/>
      <point x="443.55999999999995" y="1310.3899999999999" type="line"/>
      <point x="247.73333333333335" y="1266.9033333333332"/>
      <point x="154.1" y="1071.4399999999998"/>
      <point x="154.1" y="743.61" type="curve" smooth="yes"/>
      <point x="154.1" y="409.97666666666663"/>
      <point x="252.90333333333336" y="230.02333333333334"/>
      <point x="443.55999999999995" y="184.19666666666666" type="curve"/>
    </contour>
  </outline>
</glyph>
<glyph name="yen" format="2">
  <advance width="904.3857142857142"/>
  <unicode hex="00A5"/>
  <note>
yen
</note>
  <outline>
    <contour>
      <point x="346.7333333333333" y="0.0" type="line"/>
      <point x="557.2266666666667" y="0.0" type="line"/>
      <point x="557.2266666666667" y="249.7633333333333" type="line"/>
      <point x="793.98" y="249.7633333333333" type="line"/>
      <point x="793.98" y="390.1433333333333" type="line"/>
      <point x="557.2266666666667" y="390.1433333333333" type="line"/>
      <point x="557.2266666666667" y="551.6866666666666" type="line"/>
      <point x="793.98" y="551.6866666666666" type="line"/>
      <point x="793.98" y="692.0666666666666" type="line"/>
      <point x="604.3933333333333" y="692.0666666666666" type="line"/>
      <point x="863.9000000000001" y="1462.0" type="line"/>
      <point x="643.0433333333333" y="1462.0" type="line"/>
      <point x="453.09000000000003" y="793.7633333333334" type="line"/>
      <point x="259.99" y="1462.0" type="line"/>
      <point x="39.74333333333334" y="1462.0" type="line"/>
      <point x="299.10333333333335" y="692.0666666666666" type="line"/>
      <point x="111.34666666666666" y="692.0666666666666" type="line"/>
      <point x="111.34666666666666" y="551.6866666666666" type="line"/>
      <point x="346.7333333333333" y="551.6866666666666" type="line"/>
      <point x="346.7333333333333" y="390.1433333333333" type="line"/>
      <point x="111.34666666666666" y="390.1433333333333" type="line"/>
      <point x="111.34666666666666" y="249.7633333333333" type="line"/>
      <point x="346.7333333333333" y="249.7633333333333" type="line"/>
    </contour>
  </outline>
</glyph>
<glyph name="brokenbar" format="2">
  <advance width="963.9571428571428"/>
  <unicode hex="00A6"/>
  <note>
brokenbar
</note>
  <outline>
    <contour>
      <point x="397.6766666666666" y="-478.09999999999997" type="line"/>
      <point x="566.8100000000001" y="-478.09999999999997" type="line"/>
      <point x="566.8100000000001" y="327.85" type="line"/>
      <point x="397.6766666666666" y="327.85" type="line"/>
    </contour>
    <contour>
      <point x="397.6766666666666" y="748.27" type="line"/>
      <point x="566.8100000000001" y="748.27" type="line"/>
      <point x="566.8100000000001" y="1552.7566666666667" type="line"/>
      <point x="397.6766666666666" y="1552.7566666666667" type="line"/>
    </contour>
  </outline>
</glyph>
<glyph name="section" format="2">
  <advance width="813.1714285714286"/>
  <unicode hex="00A7"/>
  <note>
section
</note>
  <outline>
    <contour>
      <point x="354.26" y="9.966666666666669" type="curve" smooth="yes"/>
      <point x="593.4933333333333" y="9.966666666666669"/>
      <point x="711.1999999999999" y="124.84333333333335"/>
      <point x="711.1999999999999" y="306.45" type="curve" smooth="yes"/>
      <point x="711.1999999999999" y="405.6666666666667"/>
      <point x="674.5666666666666" y="462.78999999999996"/>
      <point x="594.98" y="523.3033333333334" type="curve"/>
      <point x="673.8566666666667" y="578.3499999999999"/>
      <point x="717.6866666666666" y="667.96"/>
      <point x="717.6866666666666" y="770.3733333333333" type="curve" smooth="yes"/>
      <point x="717.6866666666666" y="923.1899999999999"/>
      <point x="620.7233333333334" y="997.7966666666667"/>
      <point x="539.5333333333333" y="1050.9666666666667" type="curve" smooth="yes"/>
      <point x="521.8733333333333" y="1066.2366666666665"/>
      <point x="487.2366666666666" y="1088.1166666666666"/>
      <point x="433.69666666666666" y="1118.9966666666667" type="curve" smooth="yes"/>
      <point x="320.98333333333335" y="1184.5366666666666"/>
      <point x="284.42333333333335" y="1222.1233333333332"/>
      <point x="284.42333333333335" y="1291.8333333333333" type="curve" smooth="yes"/>
      <point x="284.42333333333335" y="1360.0333333333333"/>
      <point x="331.71999999999997" y="1410.28"/>
      <point x="423.9666666666667" y="1410.28" type="curve" smooth="yes"/>
      <point x="504.35333333333335" y="1410.28"/>
      <point x="593.2233333333334" y="1377.5766666666668"/>
      <point x="651.42" y="1346.38" type="curve"/>
      <point x="707.5633333333334" y="1493.1233333333334" type="line"/>
      <point x="619.8566666666667" y="1533.6366666666665"/>
      <point x="534.3033333333333" y="1557.8533333333332"/>
      <point x="423.79666666666674" y="1557.8533333333332" type="curve" smooth="yes"/>
      <point x="225.8766666666667" y="1557.8533333333332"/>
      <point x="100.61" y="1448.9033333333334"/>
      <point x="100.61" y="1281.2233333333334" type="curve" smooth="yes"/>
      <point x="100.61" y="1185.4933333333336"/>
      <point x="144.0" y="1098.5933333333335"/>
      <point x="224.83" y="1043.3000000000002" type="curve"/>
      <point x="142.63333333333333" y="995.4966666666667"/>
      <point x="89.87666666666667" y="911.3266666666667"/>
      <point x="89.87666666666667" y="802.8633333333333" type="curve" smooth="yes"/>
      <point x="89.87666666666667" y="757.62"/>
      <point x="100.41333333333334" y="714.1333333333334"/>
      <point x="119.09666666666668" y="677.89" type="curve" smooth="yes"/>
      <point x="140.92666666666668" y="634.3533333333334"/>
      <point x="177.58666666666667" y="596.3533333333334"/>
      <point x="229.7833333333333" y="558.9633333333334" type="curve" smooth="yes"/>
      <point x="264.49000000000007" y="532.16"/>
      <point x="306.22" y="504.3566666666667"/>
      <point x="356.21666666666664" y="474.30999999999995" type="curve" smooth="yes"/>
      <point x="397.09666666666664" y="449.7966666666666"/>
      <point x="430.3166666666667" y="427.9666666666667"/>
      <point x="460.02333333333337" y="405.74666666666667" type="curve" smooth="yes"/>
      <point x="510.68" y="368.06333333333333"/>
      <point x="526.85" y="334.77"/>
      <point x="526.85" y="291.11" type="curve" smooth="yes"/>
      <point x="526.85" y="204.71666666666667"/>
      <point x="458.35999999999996" y="155.44333333333333"/>
      <point x="353.65000000000003" y="155.44333333333333" type="curve" smooth="yes"/>
      <point x="259.2366666666667" y="155.44333333333333"/>
      <point x="167.43333333333334" y="180.12666666666667"/>
      <point x="82.0" y="228.51666666666665" type="curve"/>
      <point x="82.0" y="67.35666666666667" type="line"/>
      <point x="140.92666666666665" y="34.526666666666685"/>
      <point x="233.53333333333333" y="9.966666666666669"/>
    </contour>
    <contour>
      <point x="480.2566666666666" y="598.3966666666668" type="curve"/>
      <point x="459.47666666666663" y="608.7866666666666"/>
      <point x="448.96333333333337" y="614.0066666666667"/>
      <point x="422.3066666666667" y="630.81" type="curve" smooth="yes"/>
      <point x="301.30333333333334" y="701.9566666666667"/>
      <point x="262.0333333333333" y="749.8366666666666"/>
      <point x="262.0333333333333" y="820.8866666666665" type="curve" smooth="yes"/>
      <point x="262.0333333333333" y="891.0833333333334"/>
      <point x="295.15666666666664" y="946.2800000000001"/>
      <point x="348.11333333333334" y="969.5733333333334" type="curve"/>
      <point x="396.43333333333334" y="945.2300000000001"/>
      <point x="437.3366666666667" y="919.0833333333333"/>
      <point x="462.8" y="897.6933333333334" type="curve" smooth="yes"/>
      <point x="517.4333333333334" y="851.67"/>
      <point x="539.8233333333333" y="803.11"/>
      <point x="539.8233333333333" y="745.3766666666667" type="curve" smooth="yes"/>
      <point x="539.8233333333333" y="691.86"/>
      <point x="520.4066666666666" y="637.5666666666667"/>
    </contour>
  </outline>
</glyph>
<glyph name="copyright" format="2">
  <advance width="1693.4095238095238"/>
  <unicode hex="00A9"/>
  <note>
copyright
</note>
  <outline>
    <contour>
      <point x="881.3166666666666" y="269.27000000000004" type="curve" smooth="yes"/>
      <point x="961.5833333333333" y="269.27000000000004"/>
      <point x="1038.9233333333332" y="286.12333333333333"/>
      <point x="1112.4833333333331" y="320.2933333333333" type="curve"/>
      <point x="1112.4833333333331" y="470.38" type="line"/>
      <point x="1045.75" y="438.13666666666666"/>
      <point x="955.1933333333334" y="417.65000000000003"/>
      <point x="890.3900000000001" y="417.65000000000003" type="curve" smooth="yes"/>
      <point x="723.6533333333333" y="417.65000000000003"/>
      <point x="646.8199999999999" y="520.6766666666667"/>
      <point x="646.8199999999999" y="727.9033333333333" type="curve" smooth="yes"/>
      <point x="646.8199999999999" y="932.6633333333334"/>
      <point x="736.7266666666666" y="1042.8866666666665"/>
      <point x="893.7566666666667" y="1042.8866666666665" type="curve" smooth="yes"/>
      <point x="953.83" y="1042.8866666666665"/>
      <point x="1024.7800000000002" y="1025.1066666666666"/>
      <point x="1094.4133333333334" y="990.01" type="curve"/>
      <point x="1153.6533333333334" y="1124.4399999999998" type="line"/>
      <point x="1057.5600000000002" y="1171.0233333333333"/>
      <point x="969.0500000000001" y="1191.2666666666667"/>
      <point x="880.3199999999999" y="1191.2666666666667" type="curve" smooth="yes"/>
      <point x="624.4433333333334" y="1191.2666666666667"/>
      <point x="467.68666666666667" y="1016.8266666666667"/>
      <point x="467.68666666666667" y="731.4866666666667" type="curve" smooth="yes"/>
      <point x="467.68666666666667" y="436.5366666666667"/>
      <point x="618.4166666666666" y="269.27000000000004"/>
    </contour>
    <contour>
      <point x="848.2933333333333" y="-20.0" type="curve" smooth="yes"/>
      <point x="982.66" y="-20.0"/>
      <point x="1108.7333333333333" y="13.146666666666667"/>
      <point x="1226.1966666666667" y="82.14666666666666" type="curve" smooth="yes"/>
      <point x="1460.1233333333332" y="220.22000000000003"/>
      <point x="1597.9766666666667" y="464.2933333333333"/>
      <point x="1597.9766666666667" y="731.4633333333334" type="curve" smooth="yes"/>
      <point x="1597.9766666666667" y="865.0733333333334"/>
      <point x="1564.44" y="993.3166666666667"/>
      <point x="1495.1233333333332" y="1112.1699999999998" type="curve" smooth="yes"/>
      <point x="1357.3433333333332" y="1346.56"/>
      <point x="1107.4166666666665" y="1483.0"/>
      <point x="845.05" y="1483.0" type="curve" smooth="yes"/>
      <point x="713.7566666666667" y="1483.0"/>
      <point x="587.3666666666667" y="1449.9266666666667"/>
      <point x="469.44" y="1382.0" type="curve" smooth="yes"/>
      <point x="236.44" y="1247.0"/>
      <point x="94.44" y="998.0"/>
      <point x="94.44" y="730.0733333333334" type="curve" smooth="yes"/>
      <point x="94.44" y="596.6833333333333"/>
      <point x="128.83" y="472.22"/>
      <point x="192.44" y="360.0" type="curve" smooth="yes"/>
      <point x="324.2933333333333" y="127.14666666666668"/>
      <point x="570.9033333333333" y="-20.0"/>
    </contour>
    <contour>
      <point x="846.44" y="100.72666666666667" type="curve" smooth="yes"/>
      <point x="731.61" y="100.72666666666667"/>
      <point x="625.3166666666667" y="130.26333333333332"/>
      <point x="531.2666666666667" y="184.63" type="curve" smooth="yes"/>
      <point x="335.68" y="297.6066666666667"/>
      <point x="215.70333333333335" y="506.51"/>
      <point x="215.70333333333335" y="732.39" type="curve" smooth="yes"/>
      <point x="215.70333333333335" y="842.4399999999999"/>
      <point x="243.85" y="947.7333333333333"/>
      <point x="300.99666666666667" y="1046.5633333333333" type="curve" smooth="yes"/>
      <point x="415.82666666666665" y="1244.15"/>
      <point x="623.0233333333333" y="1362.2733333333333"/>
      <point x="847.3666666666667" y="1362.2733333333333" type="curve" smooth="yes"/>
      <point x="959.0999999999999" y="1362.2733333333333"/>
      <point x="1065.4666666666665" y="1334.0533333333333"/>
      <point x="1164.2966666666669" y="1276.2966666666666" type="curve" smooth="yes"/>
      <point x="1359.03" y="1161.1733333333334"/>
      <point x="1477.1766666666667" y="956.9766666666666"/>
      <point x="1477.1766666666667" y="730.5366666666666" type="curve" smooth="yes"/>
      <point x="1477.1766666666667" y="619.4133333333333"/>
      <point x="1449.4933333333333" y="512.1933333333333"/>
      <point x="1393.2733333333333" y="414.9" type="curve" smooth="yes"/>
      <point x="1281.2233333333334" y="221.63"/>
      <point x="1075.1" y="100.72666666666667"/>
    </contour>
  </outline>
</glyph>
<glyph name="guillemetleft" format="2">
  <advance width="1044.642857142857"/>
  <unicode hex="00AB"/>
  <note>
guillemotleft
</note>
  <outline>
    <contour>
      <point x="816.2714285714285" y="113.9047619047619" type="line"/>
      <point x="967.9380952380952" y="200.54761904761907" type="line"/>
      <point x="748.952380952381" y="547.1952380952381" type="line"/>
      <point x="967.9380952380952" y="893.842857142857" type="line"/>
      <point x="816.2714285714285" y="979.1476190476191" type="line"/>
      <point x="515.3571428571428" y="560.1952380952381" type="line"/>
      <point x="515.3571428571428" y="533.1952380952381" type="line"/>
    </contour>
    <contour>
      <point x="376.9428571428571" y="113.9047619047619" type="line"/>
      <point x="529.2857142857142" y="200.54761904761907" type="line"/>
      <point x="308.96190476190475" y="547.1952380952381" type="line"/>
      <point x="529.2857142857142" y="893.842857142857" type="line"/>
      <point x="376.9428571428571" y="979.1476190476191" type="line"/>
      <point x="76.70476190476191" y="560.1952380952381" type="line"/>
      <point x="76.70476190476191" y="533.1952380952381" type="line"/>
    </contour>
  </outline>
</glyph>
<glyph name="registered" format="2">
  <advance width="1693.4095238095238"/>
  <unicode hex="00AE"/>
  <note>
registered
</note>
  <outline>
    <contour>
      <point x="848.2933333333333" y="-20.0" type="curve" smooth="yes"/>
      <point x="982.66" y="-20.0"/>
      <point x="1108.7333333333333" y="13.146666666666667"/>
      <point x="1226.1966666666667" y="82.14666666666666" type="curve" smooth="yes"/>
      <point x="1460.1233333333332" y="220.22000000000003"/>
      <point x="1597.9766666666667" y="464.2933333333333"/>
      <point x="1597.9766666666667" y="731.4633333333334" type="curve" smooth="yes"/>
      <point x="1597.9766666666667" y="865.0733333333334"/>
      <point x="1564.44" y="993.3166666666667"/>
      <point x="1495.1233333333332" y="1112.1699999999998" type="curve" smooth="yes"/>
      <point x="1357.3433333333332" y="1346.56"/>
      <point x="1107.4166666666665" y="1483.0"/>
      <point x="845.05" y="1483.0" type="curve" smooth="yes"/>
      <point x="713.7566666666667" y="1483.0"/>
      <point x="587.3666666666667" y="1449.9266666666667"/>
      <point x="469.44" y="1382.0" type="curve" smooth="yes"/>
      <point x="236.44" y="1247.0"/>
      <point x="94.44" y="998.0"/>
      <point x="94.44" y="730.0733333333334" type="curve" smooth="yes"/>
      <point x="94.44" y="596.6833333333333"/>
      <point x="128.83" y="472.22"/>
      <point x="192.44" y="360.0" type="curve" smooth="yes"/>
      <point x="324.2933333333333" y="127.14666666666668"/>
      <point x="570.9033333333333" y="-20.0"/>
    </contour>
    <contour>
      <point x="846.44" y="100.72666666666667" type="curve" smooth="yes"/>
      <point x="731.61" y="100.72666666666667"/>
      <point x="625.3166666666667" y="130.26333333333332"/>
      <point x="531.2666666666667" y="184.63" type="curve" smooth="yes"/>
      <point x="335.68" y="297.6066666666667"/>
      <point x="215.70333333333335" y="506.51"/>
      <point x="215.70333333333335" y="732.39" type="curve" smooth="yes"/>
      <point x="215.70333333333335" y="842.4399999999999"/>
      <point x="243.85" y="947.7333333333333"/>
      <point x="300.99666666666667" y="1046.5633333333333" type="curve" smooth="yes"/>
      <point x="415.82666666666665" y="1244.15"/>
      <point x="623.0233333333333" y="1362.2733333333333"/>
      <point x="847.3666666666667" y="1362.2733333333333" type="curve" smooth="yes"/>
      <point x="959.0999999999999" y="1362.2733333333333"/>
      <point x="1065.4666666666665" y="1334.0533333333333"/>
      <point x="1164.2966666666669" y="1276.2966666666666" type="curve" smooth="yes"/>
      <point x="1359.03" y="1161.1733333333334"/>
      <point x="1477.1766666666667" y="956.9766666666666"/>
      <point x="1477.1766666666667" y="730.5366666666666" type="curve" smooth="yes"/>
      <point x="1477.1766666666667" y="619.4133333333333"/>
      <point x="1449.4933333333333" y="512.1933333333333"/>
      <point x="1393.2733333333333" y="414.9" type="curve" smooth="yes"/>
      <point x="1281.2233333333334" y="221.63"/>
      <point x="1075.1" y="100.72666666666667"/>
    </contour>
    <contour>
      <point x="564.91" y="279.4166666666667" type="line"/>
      <point x="741.8966666666666" y="279.4166666666667" type="line"/>
      <point x="741.8966666666666" y="627.8333333333334" type="line"/>
      <point x="838.0566666666666" y="627.8333333333334" type="line"/>
      <point x="1018.5433333333334" y="279.4166666666667" type="line"/>
      <point x="1214.5533333333333" y="279.4166666666667" type="line"/>
      <point x="990.1433333333333" y="674.7566666666668" type="line"/>
      <point x="1089.5333333333333" y="718.6833333333334"/>
      <point x="1137.6066666666668" y="793.1233333333333"/>
      <point x="1137.6066666666668" y="914.2933333333333" type="curve" smooth="yes"/>
      <point x="1137.6066666666668" y="1095.56"/>
      <point x="1028.07" y="1180.73"/>
      <point x="806.9533333333333" y="1180.73" type="curve" smooth="yes"/>
      <point x="564.91" y="1180.73" type="line"/>
    </contour>
    <contour>
      <point x="741.8966666666666" y="760.6533333333333" type="line"/>
      <point x="741.8966666666666" y="1044.2266666666667" type="line"/>
      <point x="803.2466666666667" y="1044.2266666666667" type="line" smooth="yes"/>
      <point x="909.2266666666667" y="1044.2266666666667"/>
      <point x="959.01" y="1006.6866666666666"/>
      <point x="959.01" y="905.1233333333333" type="curve" smooth="yes"/>
      <point x="959.01" y="806.0466666666666"/>
      <point x="908.1766666666667" y="760.6533333333333"/>
      <point x="805.2466666666667" y="760.6533333333333" type="curve" smooth="yes"/>
    </contour>
  </outline>
</glyph>
<glyph name="threesuperior" format="2">
  <advance width="662.9809523809524"/>
  <unicode hex="00B3"/>
  <note>
threesuperior
</note>
  <outline>
    <contour>
      <point x="287.53000000000003" y="569.0" type="curve" smooth="yes"/>
      <point x="477.23333333333335" y="569.0"/>
      <point x="584.38" y="670.6099999999999"/>
      <point x="584.38" y="826.8766666666667" type="curve" smooth="yes"/>
      <point x="584.38" y="931.05"/>
      <point x="529.38" y="1012.0733333333334"/>
      <point x="412.82" y="1040.7566666666667" type="curve"/>
      <point x="412.82" y="1051.6100000000001" type="line"/>
      <point x="507.6966666666668" y="1085.0"/>
      <point x="557.3066666666667" y="1153.9033333333332"/>
      <point x="557.3066666666667" y="1251.7566666666667" type="curve" smooth="yes"/>
      <point x="557.3066666666667" y="1392.9033333333334"/>
      <point x="458.94333333333327" y="1481.7566666666667"/>
      <point x="310.94333333333327" y="1481.7566666666667" type="curve" smooth="yes"/>
      <point x="218.89666666666665" y="1481.7566666666667"/>
      <point x="138.48333333333332" y="1453.61"/>
      <point x="53.95" y="1381.1000000000001" type="curve"/>
      <point x="128.7266666666667" y="1270.01" type="line"/>
      <point x="187.92000000000002" y="1321.7166666666667"/>
      <point x="236.75000000000003" y="1346.1799999999998"/>
      <point x="294.60333333333335" y="1346.1799999999998" type="curve" smooth="yes"/>
      <point x="368.29" y="1346.1799999999998"/>
      <point x="408.0" y="1304.4466666666667"/>
      <point x="408.0" y="1236.8333333333335" type="curve" smooth="yes"/>
      <point x="408.0" y="1146.1966666666667"/>
      <point x="352.80333333333334" y="1100.29"/>
      <point x="250.46" y="1100.29" type="curve" smooth="yes"/>
      <point x="172.95000000000002" y="1100.29" type="line"/>
      <point x="172.95000000000002" y="973.4200000000001" type="line"/>
      <point x="258.04333333333335" y="973.4200000000001" type="line" smooth="yes"/>
      <point x="372.26666666666665" y="973.4200000000001"/>
      <point x="428.7566666666667" y="926.9533333333333"/>
      <point x="428.7566666666667" y="836.6066666666667" type="curve" smooth="yes"/>
      <point x="428.7566666666667" y="751.5066666666668"/>
      <point x="381.17" y="704.1133333333333"/>
      <point x="279.3366666666667" y="704.1133333333333" type="curve" smooth="yes"/>
      <point x="200.60666666666665" y="704.1133333333333"/>
      <point x="128.04666666666665" y="725.2833333333333"/>
      <point x="59.95" y="769.55" type="curve"/>
      <point x="59.95" y="620.8033333333333" type="line"/>
      <point x="121.24333333333335" y="586.7066666666667"/>
      <point x="196.97333333333333" y="569.0"/>
    </contour>
  </outline>
</glyph>
<glyph name="micro" format="2">
  <advance width="982.5523809523809"/>
  <unicode hex="00B5"/>
  <note>
mu
</note>
  <outline>
    <contour>
      <point x="116.27333333333333" y="-492.0" type="line"/>
      <point x="326.6433333333334" y="-492.0" type="line"/>
      <point x="326.6433333333334" y="-199.39666666666665" type="line" smooth="yes"/>
      <point x="326.6433333333334" y="-122.18333333333334"/>
      <point x="323.6433333333333" y="-42.64999999999999"/>
      <point x="317.6433333333333" y="42.446666666666665" type="curve"/>
      <point x="321.5466666666667" y="42.446666666666665" type="line"/>
      <point x="352.62" y="0.17333333333333556"/>
      <point x="393.25666666666666" y="-20.0"/>
      <point x="446.31" y="-20.0" type="curve" smooth="yes"/>
      <point x="533.4566666666666" y="-20.0"/>
      <point x="609.4833333333332" y="33.806666666666665"/>
      <point x="653.5566666666667" y="145.9766666666667" type="curve"/>
      <point x="666.6533333333333" y="145.9766666666667" type="line"/>
      <point x="692.5533333333333" y="0.0" type="line"/>
      <point x="860.5866666666666" y="0.0" type="line"/>
      <point x="860.5866666666666" y="1104.4600000000003" type="line"/>
      <point x="650.7533333333333" y="1104.4600000000003" type="line"/>
      <point x="650.7533333333333" y="549.2333333333333" type="line" smooth="yes"/>
      <point x="650.7533333333333" y="400.42333333333335"/>
      <point x="633.02" y="294.15333333333336"/>
      <point x="595.9433333333334" y="236.64" type="curve" smooth="yes"/>
      <point x="567.7466666666667" y="184.3733333333333"/>
      <point x="521.38" y="158.35"/>
      <point x="458.62333333333333" y="158.35" type="curve" smooth="yes"/>
      <point x="370.30333333333334" y="158.35"/>
      <point x="326.6433333333334" y="230.18333333333334"/>
      <point x="326.6433333333334" y="393.2366666666667" type="curve" smooth="yes"/>
      <point x="326.6433333333334" y="1104.4600000000003" type="line"/>
      <point x="116.27333333333333" y="1104.4600000000003" type="line"/>
    </contour>
  </outline>
</glyph>
<glyph name="paragraph" format="2">
  <advance width="1043.7809523809524"/>
  <unicode hex="00B6"/>
  <note>
paragraph
</note>
  <outline>
    <contour>
      <point x="463.65333333333336" y="-260.0" type="line"/>
      <point x="597.0366666666666" y="-260.0" type="line"/>
      <point x="597.0366666666666" y="1396.5233333333333" type="line"/>
      <point x="754.1566666666666" y="1396.5233333333333" type="line"/>
      <point x="754.1566666666666" y="-260.0" type="line"/>
      <point x="887.0766666666666" y="-260.0" type="line"/>
      <point x="887.0766666666666" y="1556.0" type="line"/>
      <point x="404.27000000000004" y="1556.0" type="line" smooth="yes"/>
      <point x="187.37333333333333" y="1556.0"/>
      <point x="92.54666666666667" y="1383.8533333333335"/>
      <point x="92.54666666666667" y="1042.0" type="curve" smooth="yes"/>
      <point x="92.54666666666667" y="769.0766666666666"/>
      <point x="152.03" y="541.0"/>
      <point x="370.56" y="541.0" type="curve" smooth="yes"/>
      <point x="406.28999999999996" y="541.0"/>
      <point x="437.16666666666663" y="547.0"/>
      <point x="463.65333333333336" y="559.0" type="curve"/>
    </contour>
  </outline>
</glyph>
<glyph name="periodcentered" format="2">
  <advance width="508.7095238095238"/>
  <unicode hex="00B7"/>
  <note>
periodcentered
</note>
  <outline>
    <contour>
      <point x="254.09000000000003" y="577.3966666666666" type="curve" smooth="yes"/>
      <point x="338.32666666666665" y="577.3966666666666"/>
      <point x="390.47" y="627.8566666666667"/>
      <point x="390.47" y="722.3900000000001" type="curve" smooth="yes"/>
      <point x="390.47" y="815.63"/>
      <point x="343.62" y="866.3833333333333"/>
      <point x="254.09000000000003" y="866.3833333333333" type="curve" smooth="yes"/>
      <point x="164.56" y="866.3833333333333"/>
      <point x="118.17333333333333" y="815.1666666666666"/>
      <point x="118.17333333333333" y="722.3900000000001" type="curve" smooth="yes"/>
      <point x="118.17333333333333" y="630.0766666666666"/>
      <point x="165.02333333333334" y="577.3966666666666"/>
    </contour>
  </outline>
</glyph>
<glyph name="onesuperior" format="2">
  <advance width="662.9809523809524"/>
  <unicode hex="00B9"/>
  <note>
onesuperior
</note>
  <outline>
    <contour>
      <point x="306.3666666666667" y="586.0" type="line"/>
      <point x="465.8380952380952" y="586.0" type="line"/>
      <point x="465.8380952380952" y="1462.0" type="line"/>
      <point x="332.90000000000003" y="1462.0" type="line"/>
      <point x="71.40952380952382" y="1253.595238095238" type="line"/>
      <point x="149.53333333333333" y="1154.1761904761906" type="line"/>
      <point x="208.63333333333333" y="1200.8809523809523"/>
      <point x="243.69047619047618" y="1229.5714285714287"/>
      <point x="263.32380952380953" y="1247.5285714285715" type="curve" smooth="yes"/>
      <point x="278.32380952380953" y="1260.1904761904761"/>
      <point x="294.3380952380952" y="1275.5285714285715"/>
      <point x="313.69047619047615" y="1293.8809523809525" type="curve"/>
      <point x="309.69047619047615" y="1245.1619047619047"/>
      <point x="306.3666666666667" y="1164.3333333333335"/>
      <point x="306.3666666666667" y="1098.7285714285715" type="curve" smooth="yes"/>
    </contour>
  </outline>
</glyph>
<glyph name="guillemetright" format="2">
  <advance width="1044.642857142857"/>
  <unicode hex="00BB"/>
  <note>
guillemotright
</note>
  <outline>
    <contour>
      <point x="667.7" y="113.9047619047619" type="line"/>
      <point x="967.9380952380952" y="533.1952380952381" type="line"/>
      <point x="967.9380952380952" y="560.1952380952381" type="line"/>
      <point x="667.7" y="979.1476190476191" type="line"/>
      <point x="515.3571428571429" y="893.842857142857" type="line"/>
      <point x="734.3571428571429" y="547.1952380952381" type="line"/>
      <point x="515.3571428571429" y="200.54761904761907" type="line"/>
    </contour>
    <contour>
      <point x="227.70952380952377" y="113.9047619047619" type="line"/>
      <point x="529.2857142857142" y="533.1952380952381" type="line"/>
      <point x="529.2857142857142" y="560.1952380952381" type="line"/>
      <point x="227.70952380952377" y="979.1476190476191" type="line"/>
      <point x="76.70476190476191" y="893.842857142857" type="line"/>
      <point x="295.02857142857147" y="547.1952380952381" type="line"/>
      <point x="76.70476190476191" y="200.54761904761907" type="line"/>
    </contour>
  </outline>
</glyph>
<glyph name="Oslash" format="2">
  <advance width="1166.9333333333334"/>
  <unicode hex="00D8"/>
  <note>
Oslash
</note>
  <anchor x="583.9666666666666" y="0.0" name="bottom"/>
  <anchor x="583.9666666666666" y="1462.0" name="top"/>
  <outline>
    <contour>
      <point x="258.1566666666667" y="-99.56000000000002" type="line"/>
      <point x="336.40333333333336" y="56.470000000000006" type="line"/>
      <point x="406.25666666666666" y="5.0266666666666655"/>
      <point x="488.15999999999997" y="-20.0"/>
      <point x="583.43" y="-20.0" type="curve" smooth="yes"/>
      <point x="899.0566666666667" y="-20.0"/>
      <point x="1073.54" y="249.0"/>
      <point x="1073.54" y="733.0" type="curve" smooth="yes"/>
      <point x="1073.54" y="968.73"/>
      <point x="1033.273333333333" y="1150.29"/>
      <point x="953.5933333333334" y="1277.753333333333" type="curve"/>
      <point x="1061.7666666666667" y="1488.9533333333334" type="line"/>
      <point x="924.1666666666666" y="1553.5833333333333" type="line"/>
      <point x="843.9200000000001" y="1395.09" type="line"/>
      <point x="769.2133333333333" y="1454.2899999999997"/>
      <point x="682.92" y="1484.3899999999999"/>
      <point x="585.9666666666666" y="1484.3899999999999" type="curve" smooth="yes"/>
      <point x="264.97333333333336" y="1484.3899999999999"/>
      <point x="93.39333333333333" y="1225.5633333333333"/>
      <point x="93.39333333333333" y="735.0" type="curve" smooth="yes"/>
      <point x="93.39333333333333" y="486.12333333333333"/>
      <point x="136.73333333333335" y="296.9533333333333"/>
      <point x="224.26666666666665" y="167.95333333333335" type="curve"/>
      <point x="120.55666666666667" y="-35.68666666666665" type="line"/>
    </contour>
    <contour>
      <point x="345.67" y="408.37000000000006" type="line"/>
      <point x="322.88666666666666" y="491.5933333333333"/>
      <point x="311.22666666666663" y="599.6733333333334"/>
      <point x="311.22666666666663" y="733.0" type="curve" smooth="yes"/>
      <point x="311.22666666666663" y="1099.84"/>
      <point x="404.3266666666666" y="1293.5533333333333"/>
      <point x="585.9666666666666" y="1293.5533333333333" type="curve" smooth="yes"/>
      <point x="657.3366666666667" y="1293.5533333333333"/>
      <point x="714.1199999999999" y="1267.4766666666667"/>
      <point x="754.61" y="1214.3966666666668" type="curve"/>
    </contour>
    <contour>
      <point x="583.43" y="171.3" type="curve" smooth="yes"/>
      <point x="517.5966666666667" y="171.3"/>
      <point x="465.6666666666667" y="193.15666666666667"/>
      <point x="427.1766666666667" y="236.33333333333331" type="curve"/>
      <point x="830.3366666666666" y="1028.7033333333331" type="line"/>
      <point x="847.12" y="955.5266666666666"/>
      <point x="855.2433333333332" y="856.4466666666667"/>
      <point x="855.2433333333332" y="733.0" type="curve" smooth="yes"/>
      <point x="855.2433333333332" y="358.8666666666667"/>
      <point x="762.7766666666666" y="171.3"/>
    </contour>
  </outline>
</glyph>
<glyph name="ae" format="2">
  <advance width="1383.1142857142856"/>
  <unicode hex="00E6"/>
  <note>
ae
</note>
  <anchor x="691.16" y="0.0" name="bottom"/>
  <anchor x="691.16" y="1104.4600000000003" name="top"/>
  <outline>
    <contour>
      <point x="350.53" y="-20.0" type="curve" smooth="yes"/>
      <point x="489.01666666666665" y="-20.0"/>
      <point x="583.9433333333334" y="39.269999999999996"/>
      <point x="655.1366666666667" y="180.2266666666667" type="curve"/>
      <point x="722.89" y="49.46666666666667"/>
      <point x="836.3533333333332" y="-20.0"/>
      <point x="988.4" y="-20.0" type="curve" smooth="yes"/>
      <point x="1090.3233333333333" y="-20.0"/>
      <point x="1184.71" y="4.316666666666666"/>
      <point x="1265.1466666666668" y="52.876666666666665" type="curve"/>
      <point x="1265.1466666666668" y="227.52" type="line"/>
      <point x="1186.4166666666667" y="178.49666666666664"/>
      <point x="1094.93" y="151.71666666666667"/>
      <point x="1017.7366666666666" y="151.71666666666667" type="curve" smooth="yes"/>
      <point x="861.4666666666667" y="151.71666666666667"/>
      <point x="785.66" y="273.65"/>
      <point x="780.5866666666666" y="507.3233333333333" type="curve"/>
      <point x="1308.0233333333333" y="507.3233333333333" type="line"/>
      <point x="1308.0233333333333" y="631.0" type="line" smooth="yes"/>
      <point x="1308.0233333333333" y="938.3633333333333"/>
      <point x="1173.7833333333333" y="1125.46"/>
      <point x="949.0833333333333" y="1125.46" type="curve" smooth="yes"/>
      <point x="848.7399999999999" y="1125.46"/>
      <point x="768.0566666666667" y="1085.6033333333332"/>
      <point x="705.5699999999999" y="1006.7433333333333" type="curve"/>
      <point x="652.5733333333334" y="1086.53"/>
      <point x="570.0866666666666" y="1126.85"/>
      <point x="456.64666666666665" y="1126.85" type="curve" smooth="yes"/>
      <point x="336.96666666666664" y="1126.85"/>
      <point x="235.07" y="1093.5333333333333"/>
      <point x="138.71" y="1032.7566666666667" type="curve"/>
      <point x="213.99666666666667" y="886.4033333333333" type="line"/>
      <point x="293.36" y="934.8166666666666"/>
      <point x="364.2366666666666" y="958.5233333333334"/>
      <point x="430.4066666666667" y="958.5233333333334" type="curve" smooth="yes"/>
      <point x="528.1166666666667" y="958.5233333333334"/>
      <point x="574.4833333333333" y="890.3233333333334"/>
      <point x="574.4833333333333" y="755.5566666666667" type="curve" smooth="yes"/>
      <point x="574.4833333333333" y="673.8966666666666" type="line"/>
      <point x="437.55999999999995" y="667.4333333333333" type="line" smooth="yes"/>
      <point x="189.00333333333336" y="655.97"/>
      <point x="62.709999999999994" y="538.31"/>
      <point x="62.709999999999994" y="314.1666666666667" type="curve" smooth="yes"/>
      <point x="62.709999999999994" y="101.53666666666668"/>
      <point x="167.82999999999998" y="-20.0"/>
    </contour>
    <contour>
      <point x="396.0866666666667" y="145.32666666666665" type="curve" smooth="yes"/>
      <point x="320.4733333333333" y="145.32666666666665"/>
      <point x="278.54333333333335" y="198.25666666666666"/>
      <point x="278.54333333333335" y="314.02" type="curve" smooth="yes"/>
      <point x="278.54333333333335" y="452.49"/>
      <point x="341.5466666666667" y="522.6866666666667"/>
      <point x="482.33333333333337" y="529.8333333333333" type="curve" smooth="yes"/>
      <point x="574.4833333333333" y="534.4433333333333" type="line"/>
      <point x="574.4833333333333" y="433.9533333333333" type="line" smooth="yes"/>
      <point x="574.4833333333333" y="255.20999999999998"/>
      <point x="506.14000000000004" y="145.32666666666665"/>
    </contour>
    <contour>
      <point x="784.9033333333333" y="664.2133333333334" type="line"/>
      <point x="795.66" y="862.98"/>
      <point x="850.9800000000001" y="959.62"/>
      <point x="948.9366666666667" y="959.62" type="curve" smooth="yes"/>
      <point x="1042.82" y="959.62"/>
      <point x="1102.8233333333333" y="858.2466666666667"/>
      <point x="1105.6033333333335" y="664.2133333333334" type="curve"/>
    </contour>
  </outline>
</glyph>
<glyph name="thorn" format="2">
  <advance width="974.4142857142857"/>
  <unicode hex="00FE"/>
  <note>
thorn
</note>
  <anchor x="487.7733333333334" y="0.0" name="bottom"/>
  <anchor x="487.7733333333334" y="1104.4600000000003" name="top"/>
  <outline>
    <contour>
      <point x="123.68666666666665" y="-492.0" type="line"/>
      <point x="334.35" y="-492.0" type="line"/>
      <point x="334.35" y="-13.943333333333335" type="line" smooth="yes"/>
      <point x="334.35" y="19.569999999999993"/>
      <point x="331.2033333333333" y="49.76666666666666"/>
      <point x="320.57000000000005" y="134.71" type="curve"/>
      <point x="332.2033333333334" y="134.71" type="line"/>
      <point x="388.7866666666667" y="28.003333333333337"/>
      <point x="470.03333333333336" y="-20.0"/>
      <point x="569.5233333333333" y="-20.0" type="curve" smooth="yes"/>
      <point x="774.5466666666666" y="-20.0"/>
      <point x="893.5200000000001" y="194.65666666666664"/>
      <point x="893.5200000000001" y="551.4866666666667" type="curve" smooth="yes"/>
      <point x="893.5200000000001" y="923.6333333333333"/>
      <point x="778.7166666666666" y="1125.46"/>
      <point x="571.3499999999999" y="1125.46" type="curve" smooth="yes"/>
      <point x="468.17999999999995" y="1125.46"/>
      <point x="390.69" y="1073.19"/>
      <point x="332.2033333333334" y="957.7766666666666" type="curve"/>
      <point x="321.71666666666664" y="957.7766666666666" type="line"/>
      <point x="327.4233333333334" y="1033.8200000000002"/>
      <point x="332.2033333333334" y="1104.84"/>
      <point x="332.2033333333334" y="1151.6933333333334" type="curve" smooth="yes"/>
      <point x="332.2033333333334" y="1556.0" type="line"/>
      <point x="123.68666666666665" y="1556.0" type="line"/>
    </contour>
    <contour>
      <point x="506.8" y="143.83999999999997" type="curve" smooth="yes"/>
      <point x="374.52666666666664" y="143.83999999999997"/>
      <point x="332.2033333333334" y="289.8166666666666"/>
      <point x="332.2033333333334" y="544.05" type="curve" smooth="yes"/>
      <point x="332.2033333333334" y="591.2666666666667" type="line" smooth="yes"/>
      <point x="332.2033333333334" y="787.9566666666667"/>
      <point x="361.06" y="945.11"/>
      <point x="511.14" y="945.11" type="curve" smooth="yes"/>
      <point x="652.8066666666667" y="945.11"/>
      <point x="679.0033333333333" y="755.2033333333333"/>
      <point x="679.0033333333333" y="556.1199999999999" type="curve" smooth="yes"/>
      <point x="679.0033333333333" y="285.9533333333333"/>
      <point x="626.3966666666666" y="143.83999999999997"/>
    </contour>
  </outline>
</glyph>
<glyph name="Hbar" format="2">
  <advance width="1115.357142857143"/>
  <unicode hex="0126"/>
  <note>
Hbar
</note>
  <outline>
    <contour>
      <point x="139.15" y="0.0" type="line"/>
      <point x="352.52000000000004" y="0.0" type="line"/>
      <point x="352.52000000000004" y="666.4966666666667" type="line"/>
      <point x="762.44" y="666.4966666666667" type="line"/>
      <point x="762.44" y="0.0" type="line"/>
      <point x="975.8100000000002" y="0.0" type="line"/>
      <point x="975.8100000000002" y="1077.32" type="line"/>
      <point x="1123.7633333333333" y="1077.32" type="line"/>
      <point x="1123.7633333333333" y="1232.65" type="line"/>
      <point x="975.8100000000002" y="1232.65" type="line"/>
      <point x="975.8100000000002" y="1462.0" type="line"/>
      <point x="762.44" y="1462.0" type="line"/>
      <point x="762.44" y="1232.65" type="line"/>
      <point x="352.52000000000004" y="1232.65" type="line"/>
      <point x="352.52000000000004" y="1462.0" type="line"/>
      <point x="139.15" y="1462.0" type="line"/>
      <point x="139.15" y="1232.65" type="line"/>
      <point x="-7.876666666666667" y="1232.65" type="line"/>
      <point x="-7.876666666666667" y="1077.32" type="line"/>
      <point x="139.15" y="1077.32" type="line"/>
    </contour>
    <contour>
      <point x="352.52000000000004" y="858.5533333333333" type="line"/>
      <point x="352.52000000000004" y="1077.32" type="line"/>
      <point x="762.44" y="1077.32" type="line"/>
      <point x="762.44" y="858.5533333333333" type="line"/>
    </contour>
  </outline>
</glyph>
<glyph name="hbar" format="2">
  <advance width="981.2"/>
  <unicode hex="0127"/>
  <note>
hbar
</note>
  <outline>
    <contour>
      <point x="123.15714285714284" y="0.0" type="line"/>
      <point x="331.34285714285716" y="0.0" type="line"/>
      <point x="331.34285714285716" y="535.752380952381" type="line" smooth="yes"/>
      <point x="331.34285714285716" y="657.1476190476191"/>
      <point x="344.0333333333333" y="751.895238095238"/>
      <point x="374.7238095238095" y="816.9380952380952" type="curve" smooth="yes"/>
      <point x="405.4428571428571" y="880.7142857142857"/>
      <point x="453.54285714285714" y="912.0952380952382"/>
      <point x="517.0095238095238" y="912.0952380952382" type="curve" smooth="yes"/>
      <point x="614.8" y="912.0952380952382"/>
      <point x="656.1809523809524" y="835.7714285714285"/>
      <point x="656.1809523809524" y="667.9095238095238" type="curve" smooth="yes"/>
      <point x="656.1809523809524" y="0.0" type="line"/>
      <point x="865.3523809523808" y="0.0" type="line"/>
      <point x="865.3523809523808" y="713.5809523809523" type="line" smooth="yes"/>
      <point x="865.3523809523808" y="956.1285714285715"/>
      <point x="770.2" y="1092.1000000000001"/>
      <point x="585.3000000000001" y="1092.1000000000001" type="curve" smooth="yes"/>
      <point x="466.947619047619" y="1092.1000000000001"/>
      <point x="384.3" y="1035.0285714285712"/>
      <point x="334.0190476190476" y="924.7476190476191" type="curve"/>
      <point x="322.04761904761904" y="924.7476190476191" type="line"/>
      <point x="327.6952380952381" y="955.0857142857143"/>
      <point x="331.34285714285716" y="988.4523809523811"/>
      <point x="331.34285714285716" y="1023.8619047619047" type="curve" smooth="yes"/>
      <point x="331.34285714285716" y="1226.314285714286" type="line"/>
      <point x="582.7523809523809" y="1226.314285714286" type="line"/>
      <point x="582.7523809523809" y="1378.4904761904763" type="line"/>
      <point x="331.34285714285716" y="1378.4904761904763" type="line"/>
      <point x="331.34285714285716" y="1556.0" type="line"/>
      <point x="123.15714285714284" y="1556.0" type="line"/>
      <point x="123.15714285714284" y="1378.4904761904763" type="line"/>
      <point x="1.1857142857142868" y="1378.4904761904763" type="line"/>
      <point x="1.1857142857142868" y="1226.314285714286" type="line"/>
      <point x="123.15714285714284" y="1226.314285714286" type="line"/>
    </contour>
  </outline>
</glyph>
<glyph name="kgreenlandic" format="2">
  <advance width="879.1238095238095"/>
  <unicode hex="0138"/>
  <note>
kgreenlandic
</note>
  <anchor x="440.3266666666666" y="0.0" name="bottom"/>
  <anchor x="440.3266666666666" y="1104.4600000000003" name="top"/>
  <outline>
    <contour>
      <point x="123.68666666666665" y="0.0" type="line"/>
      <point x="332.2033333333333" y="0.0" type="line"/>
      <point x="332.2033333333333" y="398.3" type="line"/>
      <point x="441.5466666666666" y="513.6733333333334" type="line"/>
      <point x="654.3800000000001" y="0.0" type="line"/>
      <point x="872.5300000000001" y="0.0" type="line"/>
      <point x="581.9966666666667" y="668.3933333333333" type="line"/>
      <point x="852.3833333333334" y="1104.4600000000003" type="line"/>
      <point x="631.2333333333333" y="1104.4600000000003" type="line"/>
      <point x="397.1266666666666" y="710.13" type="line" smooth="yes"/>
      <point x="371.0066666666667" y="664.7433333333333"/>
      <point x="353.7633333333333" y="633.1833333333333"/>
      <point x="324.47333333333336" y="572.2133333333334" type="curve"/>
      <point x="321.49666666666667" y="572.6766666666666" type="line"/>
      <point x="327.88666666666666" y="641.6733333333334"/>
      <point x="332.2033333333333" y="714.2566666666667"/>
      <point x="332.2033333333333" y="790.8166666666666" type="curve" smooth="yes"/>
      <point x="332.2033333333333" y="1104.4600000000003" type="line"/>
      <point x="123.68666666666665" y="1104.4600000000003" type="line"/>
    </contour>
  </outline>
</glyph>
<glyph name="ldot" format="2">
  <advance width="679.4000000000001"/>
  <unicode hex="0140"/>
  <note>
ldot
</note>
  <outline>
    <contour>
      <point x="332.2033333333334" y="1556.0" type="line"/>
      <point x="123.68666666666665" y="1556.0" type="line"/>
      <point x="123.68666666666665" y="0.0" type="line"/>
      <point x="332.2033333333334" y="0.0" type="line"/>
    </contour>
    <contour>
      <point x="444.47333333333336" y="686.9733333333334" type="curve" smooth="yes"/>
      <point x="444.47333333333336" y="604.0266666666666"/>
      <point x="489.54333333333335" y="560.0766666666666"/>
      <point x="568.8533333333332" y="560.0766666666666" type="curve" smooth="yes"/>
      <point x="645.6266666666667" y="560.0766666666666"/>
      <point x="690.4033333333333" y="604.0266666666668"/>
      <point x="690.4033333333333" y="686.9733333333334" type="curve" smooth="yes"/>
      <point x="690.4033333333333" y="769.6766666666666"/>
      <point x="648.4066666666666" y="813.48"/>
      <point x="568.8533333333332" y="813.48" type="curve" smooth="yes"/>
      <point x="487.22666666666663" y="813.48"/>
      <point x="444.47333333333336" y="769.6766666666666"/>
    </contour>
  </outline>
</glyph>
<glyph name="Lslash" format="2">
  <advance width="812.2714285714285"/>
  <unicode hex="0141"/>
  <note>
Lslash
</note>
  <outline>
    <contour>
      <point x="768.2266666666666" y="0.0" type="line"/>
      <point x="768.2266666666666" y="189.44666666666666" type="line"/>
      <point x="379.8566666666667" y="189.44666666666666" type="line"/>
      <point x="379.8566666666667" y="637.7666666666667" type="line"/>
      <point x="645.4733333333334" y="814.9866666666667" type="line"/>
      <point x="550.8966666666668" y="954.9266666666667" type="line"/>
      <point x="379.8566666666667" y="842.48" type="line"/>
      <point x="379.8566666666667" y="1462.0" type="line"/>
      <point x="166.95" y="1462.0" type="line"/>
      <point x="166.95" y="692.35" type="line"/>
      <point x="-9.75333333333333" y="572.55" type="line"/>
      <point x="84.04333333333334" y="432.44" type="line"/>
      <point x="166.95" y="488.1733333333334" type="line"/>
      <point x="166.95" y="0.0" type="line"/>
    </contour>
  </outline>
</glyph>
<glyph name="lslash" format="2">
  <advance width="496.2"/>
  <unicode hex="0142"/>
  <note>
lslash
</note>
  <outline>
    <contour>
      <point x="351.2" y="1556.0" type="line"/>
      <point x="143.61" y="1556.0" type="line"/>
      <point x="143.61" y="752.3933333333333" type="line"/>
      <point x="-40.56" y="619.2233333333334" type="line"/>
      <point x="56.62666666666667" y="481.57666666666665" type="line"/>
      <point x="143.61" y="544.6066666666667" type="line"/>
      <point x="143.61" y="0.0" type="line"/>
      <point x="351.2" y="0.0" type="line"/>
      <point x="351.2" y="694.08" type="line"/>
      <point x="538.1266666666667" y="830.4699999999999" type="line"/>
      <point x="439.8666666666667" y="967.6533333333333" type="line"/>
      <point x="351.2" y="902.8666666666667" type="line"/>
    </contour>
  </outline>
</glyph>
<glyph name="oe" format="2">
  <advance width="1474.5238095238094"/>
  <unicode hex="0153"/>
  <note>
oe
</note>
  <anchor x="737.5266666666666" y="0.0" name="bottom"/>
  <anchor x="737.5266666666666" y="1104.4600000000003" name="top"/>
  <outline>
    <contour>
      <point x="478.52666666666664" y="-20.0" type="curve" smooth="yes"/>
      <point x="601.48" y="-20.0"/>
      <point x="701.1133333333335" y="37.07666666666666"/>
      <point x="769.8666666666667" y="151.69333333333336" type="curve"/>
      <point x="843.23" y="35.223333333333336"/>
      <point x="945.6933333333334" y="-20.0"/>
      <point x="1083.3533333333332" y="-20.0" type="curve" smooth="yes"/>
      <point x="1183.52" y="-20.0"/>
      <point x="1279.2233333333334" y="5.706666666666666"/>
      <point x="1357.9533333333334" y="52.876666666666665" type="curve"/>
      <point x="1357.9533333333334" y="227.52" type="line"/>
      <point x="1272.76" y="176.49666666666667"/>
      <point x="1185.9333333333334" y="151.71666666666667"/>
      <point x="1110.9833333333331" y="151.71666666666667" type="curve" smooth="yes"/>
      <point x="956.5166666666667" y="151.71666666666667"/>
      <point x="878.2466666666666" y="270.87"/>
      <point x="873.8566666666667" y="507.3233333333333" type="curve"/>
      <point x="1399.44" y="507.3233333333333" type="line"/>
      <point x="1399.44" y="631.0" type="line" smooth="yes"/>
      <point x="1399.44" y="938.2166666666667"/>
      <point x="1265.2733333333333" y="1125.46"/>
      <point x="1044.9633333333334" y="1125.46" type="curve" smooth="yes"/>
      <point x="921.9866666666667" y="1125.46"/>
      <point x="829.5966666666667" y="1067.9933333333333"/>
      <point x="765.0133333333333" y="955.45" type="curve"/>
      <point x="692.4066666666668" y="1070.3100000000002"/>
      <point x="598.09" y="1125.46"/>
      <point x="479.74666666666667" y="1125.46" type="curve" smooth="yes"/>
      <point x="227.24" y="1125.46"/>
      <point x="80.56333333333333" y="919.4633333333334"/>
      <point x="80.56333333333333" y="557.0466666666666" type="curve" smooth="yes"/>
      <point x="80.56333333333333" y="243.14666666666668"/>
      <point x="203.26333333333332" y="-20.0"/>
    </contour>
    <contour>
      <point x="478.21" y="159.59333333333333" type="curve" smooth="yes"/>
      <point x="414.20666666666665" y="159.59333333333333"/>
      <point x="366.7166666666667" y="194.9366666666667"/>
      <point x="336.5933333333333" y="264.6966666666667" type="curve" smooth="yes"/>
      <point x="308.22666666666663" y="330.3333333333333"/>
      <point x="294.47" y="425.7266666666667"/>
      <point x="294.47" y="553.34" type="curve" smooth="yes"/>
      <point x="294.47" y="691.9566666666667"/>
      <point x="309.9833333333333" y="794.9366666666666"/>
      <point x="343.69333333333327" y="857.11" type="curve" smooth="yes"/>
      <point x="372.35333333333335" y="913.33"/>
      <point x="417.94" y="943.7199999999999"/>
      <point x="478.21" y="943.7199999999999" type="curve" smooth="yes"/>
      <point x="539.0666666666667" y="943.7199999999999"/>
      <point x="586.9466666666667" y="911.5233333333333"/>
      <point x="617.9966666666667" y="845.35" type="curve" smooth="yes"/>
      <point x="649.51" y="779.7866666666666"/>
      <point x="662.4133333333334" y="680.2466666666667"/>
      <point x="662.4133333333334" y="549.6066666666667" type="curve" smooth="yes"/>
      <point x="662.4133333333334" y="437.2366666666667"/>
      <point x="650.73" y="332.55333333333334"/>
      <point x="617.8033333333333" y="259.74666666666667" type="curve" smooth="yes"/>
      <point x="588.2166666666666" y="192.15666666666667"/>
      <point x="540.9699999999999" y="159.59333333333333"/>
    </contour>
    <contour>
      <point x="877.2466666666666" y="664.2133333333334" type="line"/>
      <point x="886.5400000000001" y="859.7366666666667"/>
      <point x="943.1766666666666" y="959.62"/>
      <point x="1041.7433333333333" y="959.62" type="curve" smooth="yes"/>
      <point x="1133.3100000000002" y="959.62"/>
      <point x="1194.63" y="860.5633333333333"/>
      <point x="1196.4833333333333" y="664.2133333333334" type="curve"/>
    </contour>
  </outline>
</glyph>
<glyph name="Tbar" format="2">
  <advance width="826.1714285714286"/>
  <unicode hex="0166"/>
  <note>
Tbar
</note>
  <outline>
    <contour>
      <point x="105.48333333333332" y="826.2133333333334" type="line"/>
      <point x="105.48333333333332" y="640.6933333333333" type="line"/>
      <point x="306.39000000000004" y="640.6933333333333" type="line"/>
      <point x="306.39000000000004" y="0.0" type="line"/>
      <point x="518.8333333333334" y="0.0" type="line"/>
      <point x="518.8333333333334" y="640.6933333333333" type="line"/>
      <point x="718.4233333333334" y="640.6933333333333" type="line"/>
      <point x="718.4233333333334" y="826.2133333333334" type="line"/>
      <point x="518.8333333333334" y="826.2133333333334" type="line"/>
      <point x="518.8333333333334" y="1271.48" type="line"/>
      <point x="802.42" y="1271.48" type="line"/>
      <point x="802.42" y="1462.0" type="line"/>
      <point x="22.803333333333335" y="1462.0" type="line"/>
      <point x="22.803333333333335" y="1271.48" type="line"/>
      <point x="306.39000000000004" y="1271.48" type="line"/>
      <point x="306.39000000000004" y="826.2133333333334" type="line"/>
    </contour>
  </outline>
</glyph>
<glyph name="tbar" format="2">
  <advance width="591.3095238095239"/>
  <unicode hex="0167"/>
  <note>
tbar
</note>
  <outline>
    <contour>
      <point x="386.84" y="-20.0" type="curve" smooth="yes"/>
      <point x="459.24999999999994" y="-20.0"/>
      <point x="515.3199999999999" y="-7.4399999999999995"/>
      <point x="553.5866666666666" y="16.68" type="curve"/>
      <point x="553.5866666666666" y="181.47" type="line"/>
      <point x="517.15" y="166.05666666666667"/>
      <point x="481.41999999999996" y="158.34999999999997"/>
      <point x="447.3233333333334" y="158.34999999999997" type="curve" smooth="yes"/>
      <point x="380.2966666666666" y="158.34999999999997"/>
      <point x="351.37" y="197.64333333333335"/>
      <point x="351.37" y="296.92" type="curve" smooth="yes"/>
      <point x="351.37" y="543.3033333333333" type="line"/>
      <point x="529.8566666666667" y="543.3033333333333" type="line"/>
      <point x="529.8566666666667" y="695.8766666666667" type="line"/>
      <point x="351.37" y="695.8766666666667" type="line"/>
      <point x="351.37" y="936.1333333333333" type="line"/>
      <point x="542.83" y="936.1333333333333" type="line"/>
      <point x="542.83" y="1104.4600000000003" type="line"/>
      <point x="351.37" y="1104.4600000000003" type="line"/>
      <point x="351.37" y="1350.4133333333334" type="line"/>
      <point x="216.33333333333337" y="1350.4133333333334" type="line"/>
      <point x="160.77666666666667" y="1106.7766666666669" type="line"/>
      <point x="36.05" y="1033.8333333333335" type="line"/>
      <point x="36.05" y="936.1333333333333" type="line"/>
      <point x="141.0" y="936.1333333333333" type="line"/>
      <point x="141.0" y="695.8766666666667" type="line"/>
      <point x="36.050000000000004" y="695.8766666666667" type="line"/>
      <point x="36.050000000000004" y="543.3033333333333" type="line"/>
      <point x="141.0" y="543.3033333333333" type="line"/>
      <point x="141.0" y="294.0133333333333" type="line" smooth="yes"/>
      <point x="141.0" y="84.85"/>
      <point x="220.63" y="-20.0"/>
    </contour>
  </outline>
</glyph>
<glyph name="longs" format="2">
  <advance width="504.17142857142863"/>
  <unicode hex="017F"/>
  <note>
longs
</note>
  <anchor x="252.45333333333335" y="0.0" name="bottom"/>
  <anchor x="252.45333333333335" y="1104.4600000000003" name="top"/>
  <outline>
    <contour>
      <point x="123.68666666666665" y="0.0" type="line"/>
      <point x="332.2033333333334" y="0.0" type="line"/>
      <point x="332.2033333333334" y="1190.8266666666668" type="line" smooth="yes"/>
      <point x="332.2033333333334" y="1249.0"/>
      <point x="337.5933333333333" y="1288.0766666666668"/>
      <point x="346.9833333333333" y="1320.1033333333332" type="curve" smooth="yes"/>
      <point x="358.81333333333333" y="1372.9633333333334"/>
      <point x="382.25333333333333" y="1395.6"/>
      <point x="424.30666666666673" y="1395.6" type="curve" smooth="yes"/>
      <point x="464.88999999999993" y="1395.6"/>
      <point x="496.4266666666667" y="1383.43"/>
      <point x="531.7433333333333" y="1364.5766666666668" type="curve"/>
      <point x="589.3" y="1528.5633333333333" type="line"/>
      <point x="536.01" y="1553.9033333333334"/>
      <point x="477.79333333333335" y="1567.0"/>
      <point x="413.65" y="1567.0" type="curve" smooth="yes"/>
      <point x="211.02333333333334" y="1567.0"/>
      <point x="123.68666666666665" y="1449.1233333333332"/>
      <point x="123.68666666666665" y="1192.8266666666668" type="curve" smooth="yes"/>
    </contour>
  </outline>
</glyph>
<glyph name="Uhorn" format="2">
  <advance width="1278.8809523809523"/>
  <unicode hex="01AF"/>
  <note>
Uhorn
</note>
  <anchor x="547.92" y="0.0" name="bottom"/>
  <anchor x="554.9433333333333" y="1462.0" name="top"/>
  <outline>
    <contour>
      <point x="548.92" y="-20.0" type="curve" smooth="yes"/>
      <point x="825.2299999999999" y="-20.0"/>
      <point x="972.4199999999998" y="160.29"/>
      <point x="972.4199999999998" y="502.33666666666664" type="curve" smooth="yes"/>
      <point x="972.4199999999998" y="1124.57" type="line"/>
      <point x="1084.0233333333333" y="1140.6666666666667"/>
      <point x="1166.1166666666666" y="1173.52"/>
      <point x="1225.65" y="1229.8600000000001" type="curve" smooth="yes"/>
      <point x="1295.9399999999998" y="1296.4933333333333"/>
      <point x="1334.9866666666667" y="1395.3700000000001"/>
      <point x="1357.2033333333334" y="1533.2433333333333" type="curve"/>
      <point x="1341.6666666666665" y="1556.0" type="line"/>
      <point x="1125.9333333333334" y="1556.0" type="line"/>
      <point x="1124.3233333333333" y="1381.3133333333333"/>
      <point x="1078.3" y="1291.73"/>
      <point x="972.4199999999998" y="1267.56" type="curve"/>
      <point x="972.4199999999998" y="1462.0" type="line"/>
      <point x="760.4399999999999" y="1462.0" type="line"/>
      <point x="760.4399999999999" y="486.46" type="line" smooth="yes"/>
      <point x="760.4399999999999" y="284.45000000000005"/>
      <point x="692.3633333333333" y="171.3"/>
      <point x="552.6266666666667" y="171.3" type="curve" smooth="yes"/>
      <point x="416.52333333333337" y="171.3"/>
      <point x="343.3" y="279.5"/>
      <point x="343.3" y="487.55666666666673" type="curve" smooth="yes"/>
      <point x="343.3" y="1462.0" type="line"/>
      <point x="131.24666666666667" y="1462.0" type="line"/>
      <point x="131.24666666666667" y="504.6533333333333" type="line" smooth="yes"/>
      <point x="131.24666666666667" y="161.56"/>
      <point x="276.78" y="-20.0"/>
    </contour>
  </outline>
</glyph>
<glyph name="uhorn" format="2">
  <advance width="1188.947619047619"/>
  <unicode hex="01B0"/>
  <note>
uhorn
</note>
  <anchor x="523.104761904762" y="0.0" name="bottom"/>
  <anchor x="486.62857142857143" y="1104.1952380952382" name="top"/>
  <outline>
    <contour>
      <point x="392.5904761904761" y="-20.0" type="curve" smooth="yes"/>
      <point x="518.8285714285714" y="-20.0"/>
      <point x="604.1238095238095" y="43.29523809523809"/>
      <point x="652.8" y="146.04285714285714" type="curve"/>
      <point x="665.4333333333333" y="146.04285714285714" type="line"/>
      <point x="690.6714285714286" y="0.0" type="line"/>
      <point x="858.0428571428571" y="0.0" type="line"/>
      <point x="858.0428571428571" y="836.8619047619048" type="line"/>
      <point x="938.7904761904762" y="848.552380952381"/>
      <point x="1015.3809523809524" y="874.6380952380953"/>
      <point x="1072.2809523809524" y="924.4285714285714" type="curve" smooth="yes"/>
      <point x="1163.8809523809523" y="983.0761904761905"/>
      <point x="1215.314285714286" y="1087.5380952380954"/>
      <point x="1242.4952380952382" y="1245.4619047619046" type="curve"/>
      <point x="1227.8190476190475" y="1268.152380952381" type="line"/>
      <point x="1011.4238095238096" y="1268.152380952381" type="line"/>
      <point x="1010.0857142857144" y="1177.404761904762"/>
      <point x="997.1" y="1108.7285714285713"/>
      <point x="968.7761904761904" y="1060.404761904762" type="curve" smooth="yes"/>
      <point x="944.4380952380951" y="1017.4047619047618"/>
      <point x="907.4238095238096" y="991.0952380952382"/>
      <point x="858.0428571428571" y="979.1095238095238" type="curve"/>
      <point x="858.0428571428571" y="1104.1952380952382" type="line"/>
      <point x="649.5333333333334" y="1104.1952380952382" type="line"/>
      <point x="649.5333333333334" y="549.2333333333333" type="line" smooth="yes"/>
      <point x="649.5333333333334" y="346.78095238095233"/>
      <point x="620.447619047619" y="158.01904761904763"/>
      <point x="463.5571428571428" y="158.01904761904763" type="curve" smooth="yes"/>
      <point x="365.4285714285714" y="158.01904761904763"/>
      <point x="324.6952380952381" y="241.37142857142857"/>
      <point x="324.6952380952381" y="425.9809523809524" type="curve" smooth="yes"/>
      <point x="324.6952380952381" y="1104.1952380952382" type="line"/>
      <point x="115.1857142857143" y="1104.1952380952382" type="line"/>
      <point x="115.1857142857143" y="383.61904761904765" type="line" smooth="yes"/>
      <point x="115.1857142857143" y="111.94285714285715"/>
      <point x="211.3809523809524" y="-20.0"/>
    </contour>
  </outline>
</glyph>
<glyph name="jdotless" format="2">
  <advance width="461.1190476190476"/>
  <unicode hex="0237"/>
  <note>
uni0237
</note>
  <anchor x="230.52999999999997" y="0.0" name="bottom"/>
  <anchor x="230.52999999999997" y="1104.4600000000003" name="top"/>
  <outline>
    <contour>
      <point x="74.58333333333333" y="-492.0" type="curve" smooth="yes"/>
      <point x="244.23333333333332" y="-492.0"/>
      <point x="337.29999999999995" y="-374.51666666666665"/>
      <point x="337.29999999999995" y="-153.74" type="curve" smooth="yes"/>
      <point x="337.29999999999995" y="1104.4600000000003" type="line"/>
      <point x="129.24666666666667" y="1104.4600000000003" type="line"/>
      <point x="129.24666666666667" y="-134.84333333333333" type="line" smooth="yes"/>
      <point x="129.24666666666667" y="-194.13666666666668"/>
      <point x="121.85666666666667" y="-239.28333333333333"/>
      <point x="106.07666666666667" y="-268.3566666666667" type="curve" smooth="yes"/>
      <point x="91.22333333333333" y="-296.57666666666665"/>
      <point x="68.22333333333333" y="-310.65000000000003"/>
      <point x="37.68666666666667" y="-310.65000000000003" type="curve" smooth="yes"/>
      <point x="12.980000000000004" y="-310.65000000000003"/>
      <point x="-12.65333333333334" y="-304.26"/>
      <point x="-40.60333333333333" y="-292.7966666666666" type="curve"/>
      <point x="-40.60333333333333" y="-469.44" type="line"/>
      <point x="-10.166666666666671" y="-484.61"/>
      <point x="27.586666666666662" y="-492.0"/>
    </contour>
  </outline>
</glyph>
<glyph name="apostrophemod" format="2">
  <advance width="384.5"/>
  <unicode hex="02BC"/>
  <note>
afii57929
</note>
  <outline>
    <contour>
      <point x="27.77619047619048" y="971.8190476190476" type="curve"/>
      <point x="184.1047619047619" y="971.8190476190476" type="line"/>
      <point x="262.03333333333336" y="1146.6619047619047"/>
      <point x="319.68095238095236" y="1303.604761904762"/>
      <point x="356.7238095238095" y="1440.0" type="curve"/>
      <point x="342.7238095238095" y="1462.0" type="line"/>
      <point x="128.43809523809526" y="1462.0" type="line"/>
      <point x="106.14285714285714" y="1307.0857142857142"/>
      <point x="73.14285714285715" y="1143.804761904762"/>
    </contour>
  </outline>
</glyph>
<glyph name="firsttonechinese" format="2">
  <advance width="1094.1285714285714"/>
  <unicode hex="02C9"/>
  <note>
uni02C9
</note>
  <outline>
    <contour>
      <point x="270.42857142857144" y="1267.547619047619" type="line"/>
      <point x="824.3619047619047" y="1267.547619047619" type="line"/>
      <point x="824.3619047619047" y="1426.9904761904763" type="line"/>
      <point x="270.42857142857144" y="1426.9904761904763" type="line"/>
    </contour>
  </outline>
</glyph>
<glyph name="lowringmod" format="2">
  <advance width="671.4095238095238"/>
  <unicode hex="02F3"/>
  <note>
uni02F3
</note>
  <anchor x="332.12333333333333" y="0.07333333333333347" name="_bottom"/>
  <outline>
    <contour>
      <point x="332.1233333333334" y="-562.99" type="curve" smooth="yes"/>
      <point x="470.73" y="-562.99"/>
      <point x="564.4833333333333" y="-477.09000000000003"/>
      <point x="564.4833333333333" y="-342.3366666666667" type="curve" smooth="yes"/>
      <point x="564.4833333333333" y="-213.73"/>
      <point x="467.58333333333337" y="-127.44"/>
      <point x="332.1233333333334" y="-127.44" type="curve" smooth="yes"/>
      <point x="193.37" y="-127.44"/>
      <point x="104.39666666666668" y="-212.0233333333333"/>
      <point x="104.39666666666668" y="-344.48333333333335" type="curve" smooth="yes"/>
      <point x="104.39666666666668" y="-478.9433333333333"/>
      <point x="192.83333333333331" y="-562.99"/>
    </contour>
    <contour>
      <point x="332.12333333333333" y="-449.9" type="curve" smooth="yes"/>
      <point x="261.39000000000004" y="-449.9"/>
      <point x="225.95" y="-412.7033333333333"/>
      <point x="225.95" y="-344.48333333333335" type="curve" smooth="yes"/>
      <point x="225.95" y="-281.58"/>
      <point x="268.9266666666666" y="-239.60333333333332"/>
      <point x="332.12333333333333" y="-239.60333333333332" type="curve" smooth="yes"/>
      <point x="396.2966666666667" y="-239.60333333333332"/>
      <point x="439.2233333333333" y="-281.58"/>
      <point x="439.2233333333333" y="-344.48333333333335" type="curve" smooth="yes"/>
      <point x="439.2233333333333" y="-410.85"/>
      <point x="394.3933333333333" y="-449.9"/>
    </contour>
  </outline>
</glyph>
<glyph name="gravecomb" format="2">
  <unicode hex="0300"/>
  <note>
gravecomb
</note>
  <anchor x="0.6619047619047684" y="1104.1952380952382" name="_top"/>
  <anchor x="0.6619047619047618" y="1569.0" name="top"/>
  <outline>
    <contour>
      <point x="75.58095238095238" y="1241.0" type="curve"/>
      <point x="215.58571428571426" y="1241.0" type="line"/>
      <point x="215.58571428571426" y="1265.9714285714285" type="line"/>
      <point x="158.4857142857143" y="1340.7333333333333"/>
      <point x="73.16190476190475" y="1488.9714285714285"/>
      <point x="37.823809523809516" y="1569.0" type="curve"/>
      <point x="-215.58571428571432" y="1569.0" type="line"/>
      <point x="-215.58571428571432" y="1548.6904761904761" type="line"/>
      <point x="-175.5285714285714" y="1477.547619047619"/>
      <point x="-18.700000000000003" y="1317.295238095238"/>
    </contour>
  </outline>
</glyph>
<glyph name="acutecomb" format="2">
  <unicode hex="0301"/>
  <note>
acutecomb
</note>
  <anchor x="-80.07142857142857" y="1139.547619047619" name="_top"/>
  <anchor x="0.0" y="1569.0" name="top"/>
  <outline>
    <contour>
      <point x="-215.58571428571432" y="1241.0" type="line"/>
      <point x="-75.91904761904762" y="1241.0" type="line"/>
      <point x="34.304761904761904" y="1331.252380952381"/>
      <point x="176.8238095238095" y="1480.1809523809525"/>
      <point x="215.58571428571426" y="1548.6904761904761" type="curve"/>
      <point x="215.58571428571426" y="1569.0" type="line"/>
      <point x="-37.16190476190476" y="1569.0" type="line"/>
      <point x="-71.55714285714285" y="1492.8714285714286"/>
      <point x="-149.1190476190476" y="1351.1571428571428"/>
      <point x="-215.58571428571432" y="1265.9714285714285" type="curve"/>
    </contour>
  </outline>
</glyph>
<glyph name="circumflexcomb" format="2">
  <unicode hex="0302"/>
  <note>
circumflex
</note>
  <anchor x="456.4142857142857" y="1104.195238095238" name="_top"/>
  <anchor x="456.4142857142857" y="1569.0" name="top"/>
  <outline>
    <contour>
      <point x="140.98571428571427" y="1241.0" type="line"/>
      <point x="266.06190476190477" y="1241.0" type="line"/>
      <point x="294.37142857142857" y="1264.3380952380953"/>
      <point x="333.35714285714283" y="1300.0285714285712"/>
      <point x="365.0190476190476" y="1332.7190476190476" type="curve" smooth="yes"/>
      <point x="385.652380952381" y="1354.3666666666666"/>
      <point x="407.2857142857143" y="1377.0142857142857"/>
      <point x="455.0904761904762" y="1430.8333333333335" type="curve"/>
      <point x="502.73809523809524" y="1378.1714285714286"/>
      <point x="533.8380952380952" y="1343.3809523809525"/>
      <point x="543.4857142857143" y="1334.7190476190476" type="curve" smooth="yes"/>
      <point x="573.2047619047619" y="1302.6333333333334"/>
      <point x="587.2333333333333" y="1288.252380952381"/>
      <point x="643.0904761904762" y="1241.0" type="curve"/>
      <point x="770.1809523809524" y="1241.0" type="line"/>
      <point x="770.1809523809524" y="1265.2952380952381" type="line"/>
      <point x="669.0285714285714" y="1394.4190476190477"/>
      <point x="593.6476190476191" y="1507.252380952381"/>
      <point x="562.9714285714285" y="1569.0" type="curve"/>
      <point x="346.84285714285716" y="1569.0" type="line"/>
      <point x="315.0952380952381" y="1503.4619047619049"/>
      <point x="246.47619047619045" y="1403.1095238095238"/>
      <point x="140.98571428571427" y="1265.2952380952381" type="curve"/>
    </contour>
  </outline>
</glyph>
<glyph name="tildecomb" format="2">
  <unicode hex="0303"/>
  <note>
tildecomb
</note>
  <anchor x="324.01666666666665" y="1104.46" name="_top"/>
  <anchor x="324.01666666666665" y="1512.3799999999999" name="top"/>
  <outline>
    <contour>
      <point x="2.842170943040401e-14" y="1239.6100000000001" type="curve"/>
      <point x="118.47999999999999" y="1239.6100000000001" type="line"/>
      <point x="130.94333333333333" y="1319.3166666666668"/>
      <point x="157.1633333333333" y="1355.1733333333334"/>
      <point x="197.38333333333333" y="1355.1733333333334" type="curve" smooth="yes"/>
      <point x="240.89333333333332" y="1355.1733333333334"/>
      <point x="278.82000000000005" y="1324.1000000000001"/>
      <point x="320.2833333333333" y="1292.1733333333332" type="curve" smooth="yes"/>
      <point x="352.48" y="1266.66"/>
      <point x="396.62666666666667" y="1241.6100000000001"/>
      <point x="449.65" y="1241.6100000000001" type="curve" smooth="yes"/>
      <point x="560.4266666666666" y="1241.6100000000001"/>
      <point x="635.1800000000001" y="1332.9"/>
      <point x="649.0333333333333" y="1512.3799999999999" type="curve"/>
      <point x="530.5533333333333" y="1512.3799999999999" type="line"/>
      <point x="517.1633333333333" y="1438.6966666666667"/>
      <point x="499.94333333333327" y="1397.28"/>
      <point x="453.87" y="1397.28" type="curve" smooth="yes"/>
      <point x="417.1633333333333" y="1397.28"/>
      <point x="381.09000000000003" y="1424.1833333333332"/>
      <point x="339.7" y="1453.8666666666666" type="curve" smooth="yes"/>
      <point x="302.4066666666667" y="1480.2333333333333"/>
      <point x="257.48" y="1510.38"/>
      <point x="199.82333333333332" y="1510.38" type="curve" smooth="yes"/>
      <point x="88.99666666666664" y="1510.38"/>
      <point x="15.073333333333316" y="1420.5033333333333"/>
    </contour>
  </outline>
</glyph>
<glyph name="macroncomb" format="2">
  <unicode hex="0304"/>
  <anchor x="276.9666666666667" y="1104.46" name="_top"/>
  <anchor x="276.9666666666667" y="1407.5966666666668" name="top"/>
  <outline>
    <contour>
      <point x="0.0" y="1247.7566666666664" type="line"/>
      <point x="553.9333333333334" y="1247.7566666666664" type="line"/>
      <point x="553.9333333333334" y="1407.5966666666668" type="line"/>
      <point x="0.0" y="1407.5966666666668" type="line"/>
    </contour>
  </outline>
</glyph>
<glyph name="brevecomb" format="2">
  <unicode hex="0306"/>
  <note>
breve
</note>
  <anchor x="568.4095238095238" y="1104.195238095238" name="_top"/>
  <anchor x="568.4095238095238" y="1537.2476190476189" name="top"/>
  <outline>
    <contour>
      <point x="564.0571428571428" y="1241.6904761904761" type="curve" smooth="yes"/>
      <point x="733.504761904762" y="1241.6904761904761"/>
      <point x="835.6857142857141" y="1350.547619047619"/>
      <point x="846.9666666666667" y="1537.2476190476189" type="curve"/>
      <point x="716.0571428571429" y="1537.2476190476189" type="line"/>
      <point x="703.0571428571427" y="1443.2047619047619"/>
      <point x="663.647619047619" y="1403.795238095238"/>
      <point x="566.7333333333333" y="1403.795238095238" type="curve" smooth="yes"/>
      <point x="464.86190476190467" y="1403.795238095238"/>
      <point x="427.40952380952376" y="1440.8952380952383"/>
      <point x="418.40952380952376" y="1537.2476190476189" type="curve"/>
      <point x="289.5142857142856" y="1537.2476190476189" type="line"/>
      <point x="297.19047619047626" y="1347.490476190476"/>
      <point x="389.69523809523804" y="1241.6904761904761"/>
    </contour>
  </outline>
</glyph>
<glyph name="dotaccentcomb" format="2">
  <unicode hex="0307"/>
  <note>
dotaccent
</note>
  <anchor x="253.8952380952381" y="1104.1952380952382" name="_top"/>
  <anchor x="253.8952380952381" y="1525.347619047619" name="top"/>
  <outline>
    <contour>
      <point x="254.90952380952382" y="1272.142857142857" type="curve" smooth="yes"/>
      <point x="331.28571428571433" y="1272.142857142857"/>
      <point x="376.12857142857143" y="1315.7619047619048"/>
      <point x="376.12857142857143" y="1399.2380952380954" type="curve" smooth="yes"/>
      <point x="376.12857142857143" y="1481.742857142857"/>
      <point x="334.5952380952381" y="1525.347619047619"/>
      <point x="254.90952380952382" y="1525.347619047619" type="curve" smooth="yes"/>
      <point x="173.54761904761904" y="1525.347619047619"/>
      <point x="130.66190476190474" y="1481.7428571428572"/>
      <point x="130.66190476190474" y="1399.2380952380954" type="curve" smooth="yes"/>
      <point x="130.66190476190474" y="1315.7619047619048"/>
      <point x="175.53333333333336" y="1272.142857142857"/>
    </contour>
  </outline>
</glyph>
<glyph name="dieresiscomb" format="2">
  <unicode hex="0308"/>
  <note>
dieresis
</note>
  <anchor x="564.3238095238095" y="1138.9142857142856" name="_top"/>
  <anchor x="564.3238095238095" y="1511.0380952380951" name="top"/>
  <outline>
    <contour>
      <point x="748.0952380952382" y="1285.8047619047618" type="curve" smooth="yes"/>
      <point x="813.5285714285714" y="1285.8047619047618"/>
      <point x="856.7666666666667" y="1325.3666666666666"/>
      <point x="856.7666666666667" y="1398.2666666666667" type="curve" smooth="yes"/>
      <point x="856.7666666666667" y="1471.8142857142857"/>
      <point x="812.2047619047619" y="1511.0380952380951"/>
      <point x="748.0952380952382" y="1511.0380952380951" type="curve" smooth="yes"/>
      <point x="682.0142857142857" y="1511.0380952380951"/>
      <point x="639.1" y="1471.8142857142857"/>
      <point x="639.1" y="1398.2666666666667" type="curve" smooth="yes"/>
      <point x="639.1" y="1326.0285714285715"/>
      <point x="682.6761904761904" y="1285.8047619047618"/>
    </contour>
    <contour>
      <point x="380.8904761904762" y="1285.8047619047618" type="curve" smooth="yes"/>
      <point x="445.64761904761906" y="1285.8047619047618"/>
      <point x="490.2095238095238" y="1327.3523809523808"/>
      <point x="490.2095238095238" y="1398.2666666666667" type="curve" smooth="yes"/>
      <point x="490.2095238095238" y="1469.1666666666665"/>
      <point x="445.64761904761906" y="1511.0380952380951"/>
      <point x="380.8904761904762" y="1511.0380952380951" type="curve" smooth="yes"/>
      <point x="315.45714285714286" y="1511.0380952380951"/>
      <point x="272.5428571428572" y="1471.8142857142857"/>
      <point x="272.5428571428572" y="1398.2666666666667" type="curve" smooth="yes"/>
      <point x="272.5428571428572" y="1324.7047619047619"/>
      <point x="315.45714285714286" y="1285.8047619047618"/>
    </contour>
  </outline>
</glyph>
<glyph name="hookabovecomb" format="2">
  <unicode hex="0309"/>
  <note>
hookabovecomb
</note>
  <anchor x="-1.0" y="1104.1952380952382" name="_top"/>
  <anchor x="-1.0" y="1688.8999999999999" name="top"/>
  <outline>
    <contour>
      <point x="-104.84285714285714" y="1213.9571428571428" type="line"/>
      <point x="26.71428571428571" y="1213.9571428571428" type="line"/>
      <point x="36.714285714285715" y="1307.157142857143" type="line"/>
      <point x="144.36190476190475" y="1333.4809523809522"/>
      <point x="197.6857142857143" y="1394.7904761904763"/>
      <point x="197.6857142857143" y="1493.0857142857144" type="curve" smooth="yes"/>
      <point x="197.6857142857143" y="1623.2809523809524"/>
      <point x="112.44761904761904" y="1688.8999999999999"/>
      <point x="-55.32380952380952" y="1688.8999999999999" type="curve" smooth="yes"/>
      <point x="-116.13809523809525" y="1688.8999999999999"/>
      <point x="-162.37619047619046" y="1682.9142857142858"/>
      <point x="-197.6857142857143" y="1670.9428571428573" type="curve"/>
      <point x="-197.6857142857143" y="1544.6809523809525" type="line"/>
      <point x="-155.77142857142857" y="1555.3142857142857"/>
      <point x="-117.84285714285714" y="1560.9619047619049"/>
      <point x="-82.57619047619048" y="1560.9619047619049" type="curve" smooth="yes"/>
      <point x="-17.05238095238095" y="1560.9619047619049"/>
      <point x="23.65238095238096" y="1534.904761904762"/>
      <point x="23.65238095238096" y="1480.4809523809524" type="curve" smooth="yes"/>
      <point x="23.65238095238096" y="1423.3952380952383"/>
      <point x="-24.166666666666664" y="1386.0"/>
      <point x="-120.10952380952381" y="1374.747619047619" type="curve"/>
    </contour>
  </outline>
</glyph>
<glyph name="ringcomb" format="2">
  <unicode hex="030A"/>
  <note>
ring
</note>
  <anchor x="569.8190476190476" y="1104.1952380952382" name="_top"/>
  <anchor x="569.8190476190476" y="1678.2761904761905" name="top"/>
  <outline>
    <contour>
      <point x="567.1714285714286" y="1243.057142857143" type="curve" smooth="yes"/>
      <point x="706.7047619047619" y="1243.057142857143"/>
      <point x="799.9285714285713" y="1328.9571428571428"/>
      <point x="799.9285714285713" y="1463.8428571428572" type="curve" smooth="yes"/>
      <point x="799.9285714285713" y="1592.0523809523809"/>
      <point x="703.6904761904761" y="1678.2761904761905"/>
      <point x="567.1714285714286" y="1678.2761904761905" type="curve" smooth="yes"/>
      <point x="428.947619047619" y="1678.2761904761905"/>
      <point x="339.04761904761904" y="1594.6857142857143"/>
      <point x="339.04761904761904" y="1461.1666666666665" type="curve" smooth="yes"/>
      <point x="339.04761904761904" y="1326.9714285714285"/>
      <point x="427.947619047619" y="1243.057142857143"/>
    </contour>
    <contour>
      <point x="567.1714285714286" y="1354.757142857143" type="curve" smooth="yes"/>
      <point x="495.77619047619044" y="1354.757142857143"/>
      <point x="460.0714285714286" y="1396.1238095238095"/>
      <point x="460.0714285714286" y="1461.1666666666665" type="curve" smooth="yes"/>
      <point x="460.0714285714286" y="1525.195238095238"/>
      <point x="505.76190476190476" y="1567.2380952380954"/>
      <point x="567.1714285714286" y="1567.2380952380954" type="curve" smooth="yes"/>
      <point x="632.2714285714285" y="1567.2380952380954"/>
      <point x="674.2714285714286" y="1525.1952380952382"/>
      <point x="674.2714285714286" y="1461.1666666666665" type="curve" smooth="yes"/>
      <point x="674.2714285714286" y="1395.4619047619046"/>
      <point x="629.242857142857" y="1354.757142857143"/>
    </contour>
  </outline>
</glyph>
<glyph name="hungarumlautcomb" format="2">
  <unicode hex="030B"/>
  <note>
hungarumlaut
</note>
  <anchor x="577.0285714285715" y="1104.1952380952382" name="_top"/>
  <anchor x="577.0285714285714" y="1569.0" name="top"/>
  <outline>
    <contour>
      <point x="551.1285714285715" y="1241.0" type="line"/>
      <point x="665.6428571428571" y="1241.0" type="line"/>
      <point x="769.1476190476191" y="1328.5619047619048"/>
      <point x="910.2571428571429" y="1478.8285714285714"/>
      <point x="950.004761904762" y="1548.6904761904761" type="curve"/>
      <point x="950.004761904762" y="1569.0" type="line"/>
      <point x="723.7761904761904" y="1569.0" type="line"/>
      <point x="690.0714285714286" y="1493.9"/>
      <point x="612.452380952381" y="1349.6047619047617"/>
      <point x="551.1285714285715" y="1265.9714285714285" type="curve"/>
    </contour>
    <contour>
      <point x="203.05238095238096" y="1241.0" type="line"/>
      <point x="318.2285714285714" y="1241.0" type="line"/>
      <point x="407.8619047619047" y="1314.352380952381"/>
      <point x="553.2095238095238" y="1469.8714285714286"/>
      <point x="601.2666666666667" y="1548.6904761904761" type="curve"/>
      <point x="601.2666666666667" y="1569.0" type="line"/>
      <point x="375.03809523809525" y="1569.0" type="line"/>
      <point x="341.33333333333337" y="1493.2380952380952"/>
      <point x="263.7142857142857" y="1349.6047619047617"/>
      <point x="203.05238095238096" y="1265.9714285714285" type="curve"/>
    </contour>
  </outline>
</glyph>
<glyph name="caroncomb" format="2">
  <unicode hex="030C"/>
  <note>
caron
</note>
  <anchor x="572.3809523809524" y="1104.1952380952382" name="_top"/>
  <anchor x="572.3809523809524" y="1569.0" name="top"/>
  <outline>
    <contour>
      <point x="462.80952380952385" y="1241.0" type="curve"/>
      <point x="678.2761904761904" y="1241.0" type="line"/>
      <point x="690.6" y="1264.6761904761906"/>
      <point x="708.9238095238096" y="1295.0285714285715"/>
      <point x="733.2333333333333" y="1331.0285714285715" type="curve" smooth="yes"/>
      <point x="772.2333333333332" y="1391.4238095238095"/>
      <point x="824.8952380952381" y="1466.4666666666667"/>
      <point x="886.1476190476192" y="1544.7047619047619" type="curve"/>
      <point x="886.1476190476192" y="1569.0" type="line"/>
      <point x="759.0571428571428" y="1569.0" type="line"/>
      <point x="701.8333333333333" y="1520.0714285714287"/>
      <point x="619.1" y="1433.5761904761905"/>
      <point x="573.0428571428572" y="1379.1666666666665" type="curve"/>
      <point x="482.8285714285714" y="1485.7476190476189"/>
      <point x="447.70476190476194" y="1513.9285714285716"/>
      <point x="382.02857142857147" y="1569.0" type="curve"/>
      <point x="256.29047619047617" y="1569.0" type="line"/>
      <point x="256.29047619047617" y="1544.7047619047619" type="line"/>
      <point x="319.88095238095235" y="1462.1"/>
      <point x="371.1761904761905" y="1390.1"/>
      <point x="410.17619047619047" y="1328.7047619047619" type="curve" smooth="yes"/>
      <point x="433.1333333333333" y="1294.395238095238"/>
      <point x="450.4571428571428" y="1264.7190476190476"/>
    </contour>
  </outline>
</glyph>
<glyph name="dblgravecomb" format="2">
  <unicode hex="030F"/>
  <note>
uni030F
</note>
  <anchor x="-0.3380952380952381" y="1104.1952380952382" name="_top"/>
  <anchor x="-0.3380952380952381" y="1569.0" name="top"/>
  <outline>
    <contour>
      <point x="258.8" y="1241.0" type="curve"/>
      <point x="373.9761904761905" y="1241.0" type="line"/>
      <point x="373.9761904761905" y="1265.9714285714285" type="line"/>
      <point x="321.68095238095236" y="1335.5619047619048"/>
      <point x="248.3571428571429" y="1464.8857142857144"/>
      <point x="201.32857142857142" y="1569.0" type="curve"/>
      <point x="-26.561904761904763" y="1569.0" type="line"/>
      <point x="-26.561904761904763" y="1548.6904761904761" type="line"/>
      <point x="17.523809523809526" y="1473.5047619047618"/>
      <point x="165.94285714285715" y="1317.2380952380952"/>
    </contour>
    <contour>
      <point x="-90.61428571428571" y="1241.0" type="curve"/>
      <point x="24.9" y="1241.0" type="line"/>
      <point x="24.9" y="1265.9714285714285" type="line"/>
      <point x="-19.81904761904762" y="1324.704761904762"/>
      <point x="-97.33809523809524" y="1455.8285714285714"/>
      <point x="-148.0857142857143" y="1569.0" type="curve"/>
      <point x="-373.9761904761905" y="1569.0" type="line"/>
      <point x="-373.9761904761905" y="1548.6904761904761" type="line"/>
      <point x="-331.24285714285713" y="1474.8428571428572"/>
      <point x="-181.83809523809524" y="1316.2809523809524"/>
    </contour>
  </outline>
</glyph>
<glyph name="commaturnedabovecomb" format="2">
  <unicode hex="0312"/>
  <anchor x="301.0" y="1104.1952380952382" name="_top"/>
  <anchor x="301.0" y="1569.0" name="top"/>
  <outline>
    <contour>
      <point x="156.9619047619048" y="1241.0" type="line"/>
      <point x="366.88095238095235" y="1241.0" type="line"/>
      <point x="377.21904761904767" y="1325.0857142857142"/>
      <point x="416.00952380952384" y="1470.2142857142858"/>
      <point x="444.03809523809525" y="1544.0285714285715" type="curve"/>
      <point x="444.03809523809525" y="1569.0" type="line"/>
      <point x="320.94761904761907" y="1569.0" type="line"/>
      <point x="250.93333333333334" y="1480.509523809524"/>
      <point x="190.83333333333334" y="1359.5761904761905"/>
      <point x="156.9619047619048" y="1262.0" type="curve"/>
    </contour>
  </outline>
</glyph>
<glyph name="commaaccentcomb" format="2">
  <unicode hex="0326"/>
  <anchor x="240.33333333333334" y="0.0" name="_bottom"/>
  <anchor x="240.33333333333331" y="-453.0" name="bottom"/>
  <outline>
    <contour>
      <point x="100.0" y="-453.0" type="line"/>
      <point x="221.09047619047618" y="-453.0" type="line"/>
      <point x="280.06190476190477" y="-369.3952380952381"/>
      <point x="339.0904761904762" y="-257.6047619047619"/>
      <point x="380.9904761904761" y="-145.0" type="curve"/>
      <point x="380.9904761904761" y="-125.0" type="line"/>
      <point x="169.38095238095238" y="-125.0" type="line"/>
      <point x="160.71904761904764" y="-207.38095238095238"/>
      <point x="127.01428571428573" y="-345.3809523809524"/>
      <point x="100.0" y="-428.0285714285714" type="curve"/>
    </contour>
  </outline>
</glyph>
<glyph name="cedillacomb" format="2">
  <unicode hex="0327"/>
  <note>
cedilla
</note>
  <anchor x="216.452380952381" y="0.0" name="_bottom"/>
  <anchor x="216.452380952381" y="-492.0" name="bottom"/>
  <outline>
    <contour>
      <point x="139.14285714285714" y="-492.0" type="curve" smooth="yes"/>
      <point x="319.2238095238095" y="-492.0"/>
      <point x="410.20952380952383" y="-410.09999999999997"/>
      <point x="410.20952380952383" y="-270.4809523809524" type="curve" smooth="yes"/>
      <point x="410.20952380952383" y="-172.86190476190478"/>
      <point x="349.26666666666665" y="-113.2"/>
      <point x="252.85714285714286" y="-89.84761904761905" type="curve"/>
      <point x="295.2523809523809" y="0.0" type="line"/>
      <point x="155.38571428571433" y="0.0" type="line"/>
      <point x="78.09047619047618" y="-158.67619047619047" type="line"/>
      <point x="182.09047619047618" y="-175.33809523809524"/>
      <point x="238.7952380952381" y="-211.01428571428573"/>
      <point x="238.7952380952381" y="-276.45238095238096" type="curve" smooth="yes"/>
      <point x="238.7952380952381" y="-329.2571428571428"/>
      <point x="204.03333333333336" y="-361.04761904761904"/>
      <point x="129.15714285714287" y="-361.04761904761904" type="curve" smooth="yes"/>
      <point x="92.20000000000002" y="-361.04761904761904"/>
      <point x="56.933333333333366" y="-355.7238095238095"/>
      <point x="22.695238095238096" y="-346.0761904761905" type="curve"/>
      <point x="22.695238095238096" y="-473.7190476190476" type="line"/>
      <point x="53.25714285714284" y="-486.0142857142857"/>
      <point x="91.52380952380955" y="-492.0"/>
    </contour>
  </outline>
</glyph>
<glyph name="ogonekcomb" format="2">
  <unicode hex="0328"/>
  <note>
ogonek
</note>
  <anchor x="400.1666666666667" y="10.0" name="_ogonek"/>
  <outline>
    <contour>
      <point x="251.89999999999998" y="-470.49047619047616" type="curve" smooth="yes"/>
      <point x="285.2095238095238" y="-470.49047619047616"/>
      <point x="320.1380952380952" y="-465.8285714285714"/>
      <point x="358.0095238095238" y="-455.84285714285716" type="curve"/>
      <point x="358.0095238095238" y="-318.96190476190475" type="line"/>
      <point x="335.41904761904766" y="-327.6095238095238"/>
      <point x="312.447619047619" y="-331.93333333333334"/>
      <point x="285.7857142857143" y="-331.93333333333334" type="curve" smooth="yes"/>
      <point x="237.67142857142858" y="-331.93333333333334"/>
      <point x="205.67142857142858" y="-303.2142857142857"/>
      <point x="205.67142857142858" y="-239.4809523809524" type="curve" smooth="yes"/>
      <point x="205.67142857142858" y="-167.04285714285714"/>
      <point x="244.98095238095237" y="-89.70476190476191"/>
      <point x="334.0238095238096" y="0.0" type="curve"/>
      <point x="197.8047619047619" y="0.0" type="line"/>
      <point x="100.25714285714284" y="-74.9"/>
      <point x="42.86190476190475" y="-170.33809523809524"/>
      <point x="42.86190476190475" y="-266.02857142857147" type="curve" smooth="yes"/>
      <point x="42.86190476190475" y="-394.9428571428571"/>
      <point x="122.69047619047619" y="-470.49047619047616"/>
    </contour>
  </outline>
</glyph>
<glyph name="tonos" format="2">
  <advance width="1126.3999999999999"/>
  <unicode hex="0384"/>
  <note>
tonos
</note>
  <anchor x="536.3666666666667" y="1104.195238095238" name="_top"/>
  <anchor x="754.6095238095238" y="1556.0" name="_topleft"/>
  <outline>
    <contour>
      <point x="417.8380952380952" y="1241.0" type="line"/>
      <point x="544.9857142857143" y="1241.0" type="line"/>
      <point x="614.2238095238096" y="1356.2809523809524"/>
      <point x="672.9285714285714" y="1472.8476190476192"/>
      <point x="708.5619047619048" y="1557.8904761904762" type="curve"/>
      <point x="708.5619047619048" y="1581.5380952380951" type="line"/>
      <point x="497.95238095238096" y="1581.5380952380951" type="line"/>
      <point x="481.64285714285717" y="1483.3857142857141"/>
      <point x="447.852380952381" y="1355.2952380952381"/>
      <point x="417.8380952380952" y="1269.2809523809524" type="curve"/>
    </contour>
  </outline>
</glyph>
<glyph name="dieresistonos" format="2">
  <advance width="1135.9285714285716"/>
  <unicode hex="0385"/>
  <note>
dieresistonos
</note>
  <anchor x="568.6333333333333" y="1104.1952380952382" name="_top"/>
  <outline>
    <contour>
      <point x="486.87619047619046" y="1332.9952380952382" type="line"/>
      <point x="586.842857142857" y="1332.9952380952382" type="line"/>
      <point x="659.6285714285714" y="1430.4142857142858"/>
      <point x="726.6857142857142" y="1559.095238095238"/>
      <point x="759.5428571428571" y="1639.9952380952382" type="curve"/>
      <point x="759.5428571428571" y="1660.3333333333333" type="line"/>
      <point x="556.9190476190475" y="1660.3333333333333" type="line"/>
      <point x="545.9619047619047" y="1571.4476190476191"/>
      <point x="516.5380952380953" y="1450.5142857142857"/>
      <point x="486.87619047619046" y="1357.9666666666667" type="curve"/>
    </contour>
    <contour>
      <point x="336.7809523809524" y="1230.4619047619046" type="curve" smooth="yes"/>
      <point x="394.9190476190476" y="1230.4619047619046"/>
      <point x="440.4809523809524" y="1264.742857142857"/>
      <point x="440.4809523809524" y="1343.5857142857142" type="curve" smooth="yes"/>
      <point x="440.4809523809524" y="1422.4285714285713"/>
      <point x="394.25714285714287" y="1455.3714285714286"/>
      <point x="336.7809523809524" y="1455.3714285714286" type="curve" smooth="yes"/>
      <point x="279.6285714285715" y="1455.3714285714286"/>
      <point x="236.05238095238096" y="1423.0904761904762"/>
      <point x="236.05238095238096" y="1343.5857142857142" type="curve" smooth="yes"/>
      <point x="236.05238095238096" y="1264.0809523809523"/>
      <point x="279.6285714285715" y="1230.4619047619046"/>
    </contour>
    <contour>
      <point x="796.5" y="1230.4619047619046" type="curve" smooth="yes"/>
      <point x="855.3142857142857" y="1230.4619047619046"/>
      <point x="900.8761904761905" y="1264.742857142857"/>
      <point x="900.8761904761905" y="1342.9238095238095" type="curve" smooth="yes"/>
      <point x="900.8761904761905" y="1421.7666666666667"/>
      <point x="855.3142857142857" y="1455.3714285714286"/>
      <point x="795.8380952380952" y="1455.3714285714286" type="curve" smooth="yes"/>
      <point x="735.052380952381" y="1455.3714285714286"/>
      <point x="695.1238095238095" y="1419.1190476190477"/>
      <point x="695.1238095238095" y="1343.5857142857142" type="curve" smooth="yes"/>
      <point x="695.1238095238095" y="1264.742857142857"/>
      <point x="738.3619047619047" y="1230.4619047619046"/>
    </contour>
  </outline>
</glyph>
<glyph name="Theta" format="2">
  <advance width="1166.9333333333334"/>
  <unicode hex="0398"/>
  <note>
Theta
</note>
  <outline>
    <contour>
      <point x="583.43" y="-20.0" type="curve" smooth="yes"/>
      <point x="899.0566666666667" y="-20.0"/>
      <point x="1073.54" y="249.0"/>
      <point x="1073.54" y="733.0" type="curve" smooth="yes"/>
      <point x="1073.54" y="1215.8533333333332"/>
      <point x="901.0566666666667" y="1484.3899999999999"/>
      <point x="585.9666666666666" y="1484.3899999999999" type="curve" smooth="yes"/>
      <point x="264.97333333333336" y="1484.3899999999999"/>
      <point x="93.39333333333333" y="1225.5633333333333"/>
      <point x="93.39333333333333" y="735.0" type="curve" smooth="yes"/>
      <point x="93.39333333333333" y="248.29333333333335"/>
      <point x="265.73" y="-20.0"/>
    </contour>
    <contour>
      <point x="583.43" y="171.29999999999998" type="curve" smooth="yes"/>
      <point x="405.5466666666667" y="171.29999999999998"/>
      <point x="311.2266666666667" y="365.1833333333333"/>
      <point x="311.2266666666667" y="733.0" type="curve" smooth="yes"/>
      <point x="311.2266666666667" y="1099.84"/>
      <point x="404.32666666666665" y="1293.5533333333333"/>
      <point x="585.9666666666666" y="1293.5533333333333" type="curve" smooth="yes"/>
      <point x="764.8500000000001" y="1293.5533333333333"/>
      <point x="855.2433333333333" y="1105.3033333333333"/>
      <point x="855.2433333333333" y="733.0" type="curve" smooth="yes"/>
      <point x="855.2433333333333" y="358.8666666666667"/>
      <point x="762.7766666666666" y="171.29999999999998"/>
    </contour>
    <contour>
      <point x="414.5966666666667" y="649.35" type="line"/>
      <point x="752.3366666666667" y="649.35" type="line"/>
      <point x="752.3366666666667" y="838.4066666666668" type="line"/>
      <point x="414.5966666666667" y="838.4066666666668" type="line"/>
    </contour>
  </outline>
</glyph>
<glyph name="Sigma" format="2">
  <advance width="838.0619047619048"/>
  <unicode hex="03A3"/>
  <note>
Sigma
</note>
  <outline>
    <contour>
      <point x="68.41333333333333" y="0.0" type="line"/>
      <point x="783.1333333333334" y="0.0" type="line"/>
      <point x="783.1333333333334" y="189.44666666666666" type="line"/>
      <point x="436.09999999999997" y="189.44666666666666" type="line"/>
      <point x="384.93" y="189.44666666666666"/>
      <point x="334.6866666666666" y="186.20333333333332"/>
      <point x="283.97999999999996" y="182.03333333333333" type="curve"/>
      <point x="613.9333333333333" y="765.56" type="line"/>
      <point x="301.37" y="1279.9666666666667" type="line"/>
      <point x="362.83" y="1274.87"/>
      <point x="404.9033333333333" y="1274.4066666666665"/>
      <point x="428.37" y="1274.4066666666668" type="curve"/>
      <point x="744.2566666666667" y="1274.4066666666668" type="line"/>
      <point x="744.2566666666667" y="1462.0" type="line"/>
      <point x="78.17" y="1462.0" type="line"/>
      <point x="78.17" y="1289.6499999999999" type="line"/>
      <point x="394.04999999999995" y="764.17" type="line"/>
      <point x="68.41333333333333" y="177.59333333333336" type="line"/>
    </contour>
  </outline>
</glyph>
<glyph name="Upsilon" format="2">
  <advance width="868.0238095238094"/>
  <unicode hex="03A5"/>
  <note>
Upsilon
</note>
  <anchor x="434.74" y="1462.0" name="top"/>
  <anchor x="9.766666666666666" y="1484.63" name="topleft"/>
  <outline>
    <contour>
      <point x="328.2133333333333" y="0.0" type="line"/>
      <point x="538.8033333333333" y="0.0" type="line"/>
      <point x="538.8033333333333" y="580.7300000000001" type="line"/>
      <point x="868.09" y="1462.0" type="line"/>
      <point x="644.5500000000001" y="1462.0" type="line"/>
      <point x="434.35" y="824.6866666666666" type="line"/>
      <point x="225.3933333333333" y="1462.0" type="line"/>
      <point x="0.0" y="1462.0" type="line"/>
      <point x="328.2133333333333" y="574.2433333333333" type="line"/>
    </contour>
  </outline>
</glyph>
<glyph name="Psi" format="2">
  <advance width="1360.0380952380954"/>
  <unicode hex="03A8"/>
  <note>
Psi
</note>
  <outline>
    <contour>
      <point x="577.4047619047619" y="0.0" type="line"/>
      <point x="780.6476190476191" y="0.0" type="line"/>
      <point x="780.6476190476191" y="442.39523809523814" type="line"/>
      <point x="799.8571428571429" y="442.39523809523814" type="line" smooth="yes"/>
      <point x="1105.6714285714286" y="442.39523809523814"/>
      <point x="1246.4857142857145" y="614.0428571428571"/>
      <point x="1246.4857142857145" y="990.1" type="curve" smooth="yes"/>
      <point x="1246.4857142857145" y="1462.0" type="line"/>
      <point x="1045.2285714285715" y="1462.0" type="line"/>
      <point x="1045.2285714285715" y="988.1285714285714" type="line" smooth="yes"/>
      <point x="1045.2285714285715" y="890.352380952381"/>
      <point x="1032.5809523809523" y="810.2809523809524"/>
      <point x="1007.947619047619" y="757.1809523809524" type="curve" smooth="yes"/>
      <point x="973.9047619047618" y="670.5142857142856"/>
      <point x="905.1857142857144" y="627.7380952380952"/>
      <point x="793.9000000000001" y="627.7380952380952" type="curve" smooth="yes"/>
      <point x="780.6476190476191" y="627.7380952380952" type="line"/>
      <point x="780.6476190476191" y="1462.0" type="line"/>
      <point x="577.4047619047619" y="1462.0" type="line"/>
      <point x="577.4047619047619" y="627.7380952380952" type="line"/>
      <point x="563.4904761904762" y="627.7380952380952" type="line" smooth="yes"/>
      <point x="474.2085336517059" y="627.7380952380952"/>
      <point x="413.6667422880897" y="656.6408582493493"/>
      <point x="376.42857142857144" y="707.7571428571429" type="curve" smooth="yes"/>
      <point x="332.147619047619" y="760.2380952380952"/>
      <point x="312.1619047619048" y="855.6619047619048"/>
      <point x="312.1619047619048" y="988.1285714285715" type="curve" smooth="yes"/>
      <point x="312.1619047619048" y="1462.0" type="line"/>
      <point x="110.56666666666669" y="1462.0" type="line"/>
      <point x="110.56666666666669" y="990.1" type="line" smooth="yes"/>
      <point x="110.56666666666669" y="614.0428571428571"/>
      <point x="252.38095238095238" y="442.73333333333335"/>
      <point x="557.5333333333333" y="442.39523809523814" type="curve" smooth="yes"/>
      <point x="577.4047619047619" y="442.39523809523814" type="line"/>
    </contour>
  </outline>
</glyph>
<glyph name="Omega" format="2">
  <advance width="1178.9619047619046"/>
  <unicode hex="03A9"/>
  <note>
uni03A9
</note>
  <anchor x="590.1133333333333" y="0.0" name="bottom"/>
  <anchor x="279.54761904761904" y="1489.4619047619046" name="topleft"/>
  <outline>
    <contour>
      <point x="46.540000000000006" y="0.0" type="line"/>
      <point x="515.99" y="0.0" type="line"/>
      <point x="515.99" y="173.32" type="line"/>
      <point x="373.8866666666667" y="338.00999999999993"/>
      <point x="317.37333333333333" y="520.6733333333333"/>
      <point x="317.37333333333333" y="809.61" type="curve" smooth="yes"/>
      <point x="317.37333333333333" y="1121.5466666666666"/>
      <point x="403.4266666666666" y="1293.5533333333333"/>
      <point x="589.65" y="1293.5533333333333" type="curve" smooth="yes"/>
      <point x="771.6533333333333" y="1293.5533333333333"/>
      <point x="860.0" y="1122.6933333333334"/>
      <point x="860.0" y="811.0" type="curve" smooth="yes"/>
      <point x="860.0" y="512.6966666666667"/>
      <point x="807.0733333333334" y="346.3566666666667"/>
      <point x="666.09" y="173.32" type="curve"/>
      <point x="666.09" y="0.0" type="line"/>
      <point x="1132.2966666666669" y="0.0" type="line"/>
      <point x="1132.2966666666669" y="191.76333333333332" type="line"/>
      <point x="855.9100000000001" y="191.76333333333332" type="line"/>
      <point x="922.5433333333333" y="263.2766666666667"/>
      <point x="974.1766666666666" y="345.5466666666666"/>
      <point x="1010.9566666666665" y="439.5733333333333" type="curve" smooth="yes"/>
      <point x="1056.5166666666667" y="553.99"/>
      <point x="1079.2966666666669" y="685.2366666666666"/>
      <point x="1079.2966666666669" y="832.7766666666666" type="curve" smooth="yes"/>
      <point x="1079.2966666666669" y="1056.9033333333334"/>
      <point x="1024.6866666666665" y="1231.6866666666665"/>
      <point x="925.4666666666666" y="1342.9066666666665" type="curve" smooth="yes"/>
      <point x="843.5666666666666" y="1434.1233333333332"/>
      <point x="729.5446809523811" y="1484.3899999999999"/>
      <point x="589.65" y="1484.3899999999999" type="curve" smooth="yes"/>
      <point x="447.9466666666666" y="1484.3899999999999"/>
      <point x="333.4866666666667" y="1434.83"/>
      <point x="250.5866666666667" y="1343.4166666666665" type="curve" smooth="yes"/>
      <point x="151.17333333333332" y="1232.3433333333335"/>
      <point x="98.15" y="1059.0733333333333"/>
      <point x="98.15" y="834.1666666666667" type="curve" smooth="yes"/>
      <point x="98.15" y="687.87"/>
      <point x="121.76000000000002" y="554.9633333333334"/>
      <point x="166.07666666666668" y="440.1066666666667" type="curve" smooth="yes"/>
      <point x="204.32" y="343.8366666666667"/>
      <point x="257.27000000000004" y="260.93333333333334"/>
      <point x="325.2433333333333" y="191.76333333333332" type="curve"/>
      <point x="46.540000000000006" y="191.76333333333332" type="line"/>
    </contour>
  </outline>
</glyph>
<glyph name="beta" format="2">
  <advance width="1002.8476190476191"/>
  <unicode hex="03B2"/>
  <note>
beta
</note>
  <outline>
    <contour>
      <point x="123.68666666666665" y="-492.0" type="line"/>
      <point x="332.2033333333334" y="-492.0" type="line"/>
      <point x="332.2033333333334" y="45.44" type="line"/>
      <point x="400.84000000000003" y="-1.0500000000000007"/>
      <point x="463.6433333333333" y="-20.0"/>
      <point x="563.3966666666668" y="-20.0" type="curve" smooth="yes"/>
      <point x="796.2466666666667" y="-20.0"/>
      <point x="930.7566666666667" y="143.60666666666665"/>
      <point x="930.7566666666667" y="428.0433333333333" type="curve" smooth="yes"/>
      <point x="930.7566666666667" y="663.8533333333334"/>
      <point x="833.0033333333333" y="783.4166666666667"/>
      <point x="629.3233333333333" y="814.83" type="curve"/>
      <point x="629.3233333333333" y="822.83" type="line"/>
      <point x="800.3199999999998" y="870.9233333333333"/>
      <point x="874.2933333333334" y="980.9966666666667"/>
      <point x="874.2933333333334" y="1180.5633333333333" type="curve" smooth="yes"/>
      <point x="874.2933333333334" y="1422.8300000000002"/>
      <point x="738.9566666666666" y="1567.0"/>
      <point x="509.38000000000005" y="1567.0" type="curve" smooth="yes"/>
      <point x="260.0" y="1567.0"/>
      <point x="123.68666666666665" y="1408.71"/>
      <point x="123.68666666666665" y="1120.35" type="curve" smooth="yes"/>
    </contour>
    <contour>
      <point x="516.3066666666666" y="159.42333333333332" type="curve" smooth="yes"/>
      <point x="453.5733333333334" y="159.42333333333332"/>
      <point x="388.57" y="181.71666666666667"/>
      <point x="332.2033333333334" y="225.76666666666665" type="curve"/>
      <point x="332.2033333333334" y="1109.5966666666668" type="line" smooth="yes"/>
      <point x="332.2033333333334" y="1292.4033333333332"/>
      <point x="388.89" y="1390.3566666666668"/>
      <point x="507.38000000000005" y="1390.3566666666668" type="curve" smooth="yes"/>
      <point x="606.75" y="1390.3566666666668"/>
      <point x="666.7766666666666" y="1313.67"/>
      <point x="666.7766666666666" y="1157.2733333333333" type="curve" smooth="yes"/>
      <point x="666.7766666666666" y="989.3366666666666"/>
      <point x="606.4833333333333" y="901.6766666666666"/>
      <point x="486.8666666666666" y="901.6766666666666" type="curve" smooth="yes"/>
      <point x="445.69666666666666" y="901.6766666666666" type="line"/>
      <point x="445.69666666666666" y="721.7900000000001" type="line"/>
      <point x="488.6966666666667" y="721.7900000000001" type="line" smooth="yes"/>
      <point x="638.8" y="721.7900000000001"/>
      <point x="716.8499999999999" y="626.1033333333332"/>
      <point x="716.8499999999999" y="438.7266666666667" type="curve" smooth="yes"/>
      <point x="716.8499999999999" y="252.42666666666668"/>
      <point x="652.7266666666666" y="159.42333333333332"/>
    </contour>
  </outline>
</glyph>
<glyph name="iota" format="2">
  <advance width="538.6666666666666"/>
  <unicode hex="03B9"/>
  <note>
iota
</note>
  <anchor x="269.33333333333337" y="1104.4600000000003" name="top"/>
  <outline>
    <contour>
      <point x="363.69666666666666" y="-20.0" type="curve" smooth="yes"/>
      <point x="417.1333333333333" y="-20.0"/>
      <point x="465.71666666666675" y="-11.146666666666667"/>
      <point x="508.5199999999999" y="6.950000000000001" type="curve"/>
      <point x="508.5199999999999" y="176.35" type="line"/>
      <point x="481.5233333333333" y="167.71666666666667"/>
      <point x="442.42333333333335" y="159.42333333333332"/>
      <point x="414.2033333333334" y="159.42333333333332" type="curve" smooth="yes"/>
      <point x="361.6166666666667" y="159.42333333333332"/>
      <point x="332.2033333333333" y="201.20333333333332"/>
      <point x="332.2033333333333" y="296.9866666666667" type="curve" smooth="yes"/>
      <point x="332.2033333333333" y="1104.4600000000003" type="line"/>
      <point x="122.29666666666668" y="1104.4600000000003" type="line"/>
      <point x="122.29666666666668" y="291.89000000000004" type="line" smooth="yes"/>
      <point x="122.29666666666668" y="74.31333333333333"/>
      <point x="196.17" y="-20.0"/>
    </contour>
  </outline>
</glyph>
<glyph name="kappa" format="2">
  <advance width="879.1238095238095"/>
  <unicode hex="03BA"/>
  <note>
kappa
</note>
  <outline>
    <contour>
      <point x="123.68666666666665" y="0.0" type="line"/>
      <point x="332.2033333333333" y="0.0" type="line"/>
      <point x="332.2033333333333" y="398.3" type="line"/>
      <point x="441.5466666666666" y="513.6733333333334" type="line"/>
      <point x="654.3800000000001" y="0.0" type="line"/>
      <point x="872.5300000000001" y="0.0" type="line"/>
      <point x="581.9966666666667" y="668.3933333333333" type="line"/>
      <point x="852.3833333333334" y="1104.4600000000003" type="line"/>
      <point x="631.2333333333333" y="1104.4600000000003" type="line"/>
      <point x="397.12666666666667" y="710.1300000000001" type="line"/>
      <point x="369.22666666666663" y="659.6466666666668"/>
      <point x="358.93333333333334" y="640.5966666666667"/>
      <point x="327.25333333333333" y="572.2133333333334" type="curve"/>
      <point x="321.49666666666667" y="572.2133333333334" type="line"/>
      <point x="328.35" y="641.21"/>
      <point x="332.2033333333334" y="714.2566666666667"/>
      <point x="332.2033333333333" y="790.8166666666666" type="curve"/>
      <point x="332.2033333333333" y="1104.4600000000003" type="line"/>
      <point x="123.68666666666665" y="1104.4600000000003" type="line"/>
    </contour>
  </outline>
</glyph>
<glyph name="lambda" format="2">
  <advance width="923.5"/>
  <unicode hex="03BB"/>
  <note>
lambda
</note>
  <outline>
    <contour>
      <point x="810.8533333333332" y="-20.0" type="curve" smooth="yes"/>
      <point x="852.9966666666667" y="-20.0"/>
      <point x="891.6766666666667" y="-11.83"/>
      <point x="924.9666666666667" y="4.046666666666665" type="curve"/>
      <point x="924.9666666666667" y="174.22666666666666" type="line"/>
      <point x="910.1133333333332" y="167.22666666666666"/>
      <point x="890.7233333333335" y="164.22666666666666"/>
      <point x="869.6499999999999" y="164.22666666666666" type="curve" smooth="yes"/>
      <point x="843.5766666666667" y="164.22666666666666"/>
      <point x="824.8933333333333" y="173.52"/>
      <point x="812.21" y="190.32666666666665" type="curve" smooth="yes"/>
      <point x="789.7966666666666" y="212.23"/>
      <point x="770.6999999999999" y="258.86333333333334"/>
      <point x="747.58" y="342.81" type="curve" smooth="yes"/>
      <point x="522.9933333333332" y="1257.7466666666667" type="line" smooth="yes"/>
      <point x="488.84999999999997" y="1380.2266666666667"/>
      <point x="444.9266666666666" y="1462.4666666666667"/>
      <point x="385.6866666666667" y="1511.5866666666666" type="curve" smooth="yes"/>
      <point x="335.69" y="1553.8533333333332"/>
      <point x="275.3766666666666" y="1572.2433333333333"/>
      <point x="200.74666666666667" y="1572.2433333333333" type="curve" smooth="yes"/>
      <point x="158.45666666666668" y="1572.2433333333333"/>
      <point x="127.11666666666667" y="1566.8533333333332"/>
      <point x="87.26666666666668" y="1556.0" type="curve"/>
      <point x="87.26666666666668" y="1375.2366666666665" type="line"/>
      <point x="108.75333333333333" y="1382.7"/>
      <point x="135.70333333333332" y="1386.6266666666666"/>
      <point x="160.63" y="1386.6266666666666" type="curve" smooth="yes"/>
      <point x="205.75000000000003" y="1386.6266666666666"/>
      <point x="244.57666666666668" y="1368.14"/>
      <point x="273.30666666666673" y="1338.8966666666665" type="curve" smooth="yes"/>
      <point x="301.64666666666665" y="1309.5800000000002"/>
      <point x="320.28" y="1269.3600000000001"/>
      <point x="326.72" y="1225.1133333333335" type="curve" smooth="yes"/>
      <point x="350.55333333333334" y="1097.8766666666666" type="line"/>
      <point x="12.123333333333338" y="0.0" type="line"/>
      <point x="220.17666666666668" y="0.0" type="line"/>
      <point x="398.47333333333336" y="634.37" type="line"/>
      <point x="410.7900000000001" y="679.2966666666666"/>
      <point x="423.4233333333333" y="740.2199999999999"/>
      <point x="438.22666666666663" y="844.0133333333333" type="curve"/>
      <point x="447.6166666666667" y="844.0133333333333" type="line"/>
      <point x="459.05666666666673" y="754.0166666666667"/>
      <point x="475.2266666666667" y="646.6766666666667"/>
      <point x="489.5199999999999" y="586.4533333333333" type="curve" smooth="yes"/>
      <point x="570.7666666666667" y="236.04333333333335" type="line" smooth="yes"/>
      <point x="613.3499999999999" y="68.48666666666666"/>
      <point x="680.9566666666666" y="-20.0"/>
    </contour>
  </outline>
</glyph>
<glyph name="omicron" format="2">
  <advance width="957.2285714285715"/>
  <unicode hex="03BF"/>
  <note>
omicron
</note>
  <anchor x="478.2833333333333" y="1104.4600000000003" name="top"/>
  <outline>
    <contour>
      <point x="478.06333333333333" y="-20.0" type="curve" smooth="yes"/>
      <point x="726.8866666666667" y="-20.0"/>
      <point x="876.0033333333333" y="192.65666666666664"/>
      <point x="876.0033333333333" y="551.34" type="curve" smooth="yes"/>
      <point x="876.0033333333333" y="908.4866666666666"/>
      <point x="727.8866666666667" y="1125.46"/>
      <point x="475.52666666666664" y="1125.46" type="curve" smooth="yes"/>
      <point x="226.21666666666667" y="1125.46"/>
      <point x="80.56333333333333" y="914.9033333333333"/>
      <point x="80.56333333333333" y="560.1199999999999" type="curve" smooth="yes"/>
      <point x="80.56333333333333" y="347.7033333333333"/>
      <point x="132.29333333333332" y="175.12"/>
      <point x="234.99666666666664" y="75.24333333333333" type="curve" smooth="yes"/>
      <point x="297.72666666666663" y="13.780000000000001"/>
      <point x="378.77333333333337" y="-20.0"/>
    </contour>
    <contour>
      <point x="477.74666666666667" y="160.35" type="curve" smooth="yes"/>
      <point x="321.78999999999996" y="160.35"/>
      <point x="294.47" y="351.52666666666664"/>
      <point x="294.47" y="549.3166666666666" type="curve" smooth="yes"/>
      <point x="294.47" y="757.7866666666666"/>
      <point x="323.42333333333335" y="943.7199999999999"/>
      <point x="477.67333333333335" y="943.7199999999999" type="curve" smooth="yes"/>
      <point x="630.7766666666668" y="943.7199999999999"/>
      <point x="663.0233333333333" y="763.8833333333333"/>
      <point x="663.0233333333333" y="553.4133333333333" type="curve" smooth="yes"/>
      <point x="663.0233333333333" y="355.21"/>
      <point x="627.2166666666667" y="160.35"/>
    </contour>
  </outline>
</glyph>
<glyph name="pi" format="2">
  <advance width="1071.2190476190476"/>
  <unicode hex="03C0"/>
  <note>
pi
</note>
  <outline>
    <contour>
      <point x="895.8999999999999" y="-17.56" type="curve" smooth="yes"/>
      <point x="949.1899999999999" y="-17.56"/>
      <point x="989.9433333333333" y="-10.39"/>
      <point x="1023.3299999999999" y="3.876666666666665" type="curve"/>
      <point x="1023.3299999999999" y="173.59333333333333" type="line"/>
      <point x="990.5033333333332" y="165.64333333333332"/>
      <point x="967.4799999999999" y="162.25333333333333"/>
      <point x="948.5533333333332" y="161.71666666666667" type="curve" smooth="yes"/>
      <point x="890.4066666666668" y="161.71666666666667"/>
      <point x="863.9433333333333" y="202.93666666666667"/>
      <point x="863.9433333333333" y="298.33" type="curve" smooth="yes"/>
      <point x="863.9433333333333" y="932.7433333333333" type="line"/>
      <point x="1034.1599999999999" y="932.7433333333333" type="line"/>
      <point x="1034.1599999999999" y="1104.4600000000003" type="line"/>
      <point x="136.94333333333336" y="1104.4600000000003" type="line"/>
      <point x="18.17" y="1022.88" type="line"/>
      <point x="18.17" y="932.7433333333333" type="line"/>
      <point x="187.77666666666664" y="932.7433333333333" type="line"/>
      <point x="187.77666666666664" y="0.0" type="line"/>
      <point x="397.2933333333333" y="0.0" type="line"/>
      <point x="397.2933333333333" y="932.7433333333333" type="line"/>
      <point x="654.4266666666666" y="932.7433333333333" type="line"/>
      <point x="654.4266666666666" y="293.23333333333335" type="line" smooth="yes"/>
      <point x="654.4266666666666" y="80.58333333333333"/>
      <point x="727.91" y="-17.56"/>
    </contour>
  </outline>
</glyph>
<glyph name="rho" format="2">
  <advance width="971.7095238095237"/>
  <unicode hex="03C1"/>
  <note>
rho
</note>
  <outline>
    <contour>
      <point x="122.46666666666667" y="-492.0" type="line"/>
      <point x="332.6380952380952" y="-492.0" type="line"/>
      <point x="332.6380952380952" y="-204.26666666666665" type="line" smooth="yes"/>
      <point x="332.6380952380952" y="-145.0"/>
      <point x="328.31428571428575" y="-74.0"/>
      <point x="319.65238095238095" y="63.3952380952381" type="curve"/>
      <point x="331.6238095238095" y="63.3952380952381" type="line"/>
      <point x="379.62380952380954" y="12.985714285714286"/>
      <point x="440.7095238095238" y="-20.0"/>
      <point x="538.3857142857142" y="-20.0" type="curve" smooth="yes"/>
      <point x="764.0333333333333" y="-20.0"/>
      <point x="891.6095238095238" y="176.98571428571427"/>
      <point x="891.6095238095238" y="558.9142857142857" type="curve" smooth="yes"/>
      <point x="891.6095238095238" y="940.5619047619048"/>
      <point x="766.6809523809525" y="1125.195238095238"/>
      <point x="510.6857142857143" y="1125.195238095238" type="curve" smooth="yes"/>
      <point x="252.64761904761906" y="1125.195238095238"/>
      <point x="122.46666666666667" y="942.547619047619"/>
      <point x="122.46666666666667" y="576.9285714285714" type="curve" smooth="yes"/>
    </contour>
    <contour>
      <point x="489.6428571428571" y="160.65238095238095" type="curve" smooth="yes"/>
      <point x="427.14761904761906" y="160.65238095238095"/>
      <point x="373.04761904761904" y="187.04761904761904"/>
      <point x="332.6380952380952" y="242.14761904761906" type="curve"/>
      <point x="332.6380952380952" y="578.2238095238096" type="line" smooth="yes"/>
      <point x="332.6380952380952" y="711.495238095238"/>
      <point x="348.01904761904757" y="808.0047619047618"/>
      <point x="379.45714285714286" y="865.4571428571429" type="curve" smooth="yes"/>
      <point x="406.19047619047615" y="918.8238095238095"/>
      <point x="448.2619047619047" y="945.1761904761904"/>
      <point x="504.0238095238095" y="945.1761904761904" type="curve" smooth="yes"/>
      <point x="553.4190476190477" y="945.1761904761904"/>
      <point x="597.7714285714286" y="924.1761904761905"/>
      <point x="622.8428571428572" y="867.6142857142858" type="curve" smooth="yes"/>
      <point x="659.6904761904761" y="808.1761904761905"/>
      <point x="676.7761904761905" y="697.3285714285714"/>
      <point x="676.7761904761905" y="552.9571428571428" type="curve" smooth="yes"/>
      <point x="676.7761904761905" y="410.93809523809523"/>
      <point x="659.6904761904763" y="303.7095238095238"/>
      <point x="620.1809523809524" y="240.27142857142857" type="curve" smooth="yes"/>
      <point x="592.4333333333334" y="188.96190476190475"/>
      <point x="547.3761904761905" y="160.65238095238095"/>
    </contour>
  </outline>
</glyph>
<glyph name="sigma" format="2">
  <advance width="989.0714285714286"/>
  <unicode hex="03C3"/>
  <note>
sigma
</note>
  <outline>
    <contour>
      <point x="467.5766666666666" y="-20.0" type="curve" smooth="yes"/>
      <point x="547.1833333333333" y="-20.0"/>
      <point x="616.0833333333333" y="0.6333333333333337"/>
      <point x="674.0566666666667" y="41.9" type="curve" smooth="yes"/>
      <point x="796.2733333333333" y="128.94666666666666"/>
      <point x="862.2233333333334" y="298.2133333333333"/>
      <point x="862.2233333333334" y="510.16999999999996" type="curve" smooth="yes"/>
      <point x="862.2233333333334" y="684.0033333333332"/>
      <point x="819.3466666666666" y="822.52"/>
      <point x="731.3499999999999" y="936.45" type="curve"/>
      <point x="950.4166666666666" y="936.45" type="line"/>
      <point x="950.4166666666666" y="1104.4600000000003" type="line"/>
      <point x="517.63" y="1104.4600000000003" type="line" smooth="yes"/>
      <point x="225.75666666666663" y="1104.4600000000003"/>
      <point x="81.17333333333333" y="901.6333333333333"/>
      <point x="81.17333333333333" y="538.2166666666667" type="curve" smooth="yes"/>
      <point x="81.17333333333333" y="171.17000000000002"/>
      <point x="231.14333333333335" y="-20.0"/>
    </contour>
    <contour>
      <point x="470.50333333333333" y="159.5933333333333" type="curve" smooth="yes"/>
      <point x="416.8666666666667" y="159.5933333333333"/>
      <point x="373.67" y="186.42333333333335"/>
      <point x="343.62" y="247.57000000000002" type="curve" smooth="yes"/>
      <point x="311.5933333333333" y="310.20666666666665"/>
      <point x="295.08" y="404.4066666666667"/>
      <point x="295.08" y="544.6800000000001" type="curve" smooth="yes"/>
      <point x="295.08" y="689.7833333333333"/>
      <point x="314.27666666666664" y="805.5166666666667"/>
      <point x="363.01" y="869.4699999999999" type="curve" smooth="yes"/>
      <point x="399.9633333333333" y="917.1066666666667"/>
      <point x="451.82000000000005" y="936.45"/>
      <point x="515.63" y="936.45" type="curve" smooth="yes"/>
      <point x="568.4366666666666" y="936.45" type="line"/>
      <point x="590.0466666666667" y="889.9599999999999"/>
      <point x="607.1933333333333" y="842.9333333333333"/>
      <point x="619.34" y="793.0533333333334" type="curve" smooth="yes"/>
      <point x="639.17" y="713.8299999999999"/>
      <point x="648.3900000000001" y="628.3633333333335"/>
      <point x="648.3900000000001" y="528.7033333333334" type="curve" smooth="yes"/>
      <point x="648.3900000000001" y="383.94"/>
      <point x="627.9733333333334" y="278.0333333333333"/>
      <point x="585.75" y="222.08" type="curve" smooth="yes"/>
      <point x="558.2366666666666" y="179.52"/>
      <point x="515.6266666666667" y="159.5933333333333"/>
    </contour>
  </outline>
</glyph>
<glyph name="tau" format="2">
  <advance width="725.7142857142857"/>
  <unicode hex="03C4"/>
  <note>
tau
</note>
  <outline>
    <contour>
      <point x="489.98333333333335" y="-21.293333333333333" type="curve" smooth="yes"/>
      <point x="554.49" y="-21.293333333333333"/>
      <point x="619.0266666666666" y="-7.4399999999999995"/>
      <point x="654.73" y="15.459999999999999" type="curve"/>
      <point x="654.73" y="181.47" type="line"/>
      <point x="615.3166666666667" y="164.91"/>
      <point x="578.4633333333334" y="157.05666666666664"/>
      <point x="537.6833333333333" y="157.05666666666664" type="curve" smooth="yes"/>
      <point x="467.29" y="157.05666666666664"/>
      <point x="432.9233333333333" y="212.96333333333334"/>
      <point x="432.9233333333333" y="319.84999999999997" type="curve" smooth="yes"/>
      <point x="432.9233333333333" y="932.7433333333333" type="line"/>
      <point x="690.6766666666666" y="932.7433333333333" type="line"/>
      <point x="690.6766666666666" y="1104.4600000000003" type="line"/>
      <point x="142.25666666666666" y="1104.4600000000003" type="line"/>
      <point x="23.166666666666664" y="1021.9533333333333" type="line"/>
      <point x="23.166666666666664" y="932.7433333333333" type="line"/>
      <point x="223.55333333333334" y="932.7433333333333" type="line"/>
      <point x="223.55333333333334" y="319.72666666666663" type="line" smooth="yes"/>
      <point x="223.55333333333334" y="88.19333333333334"/>
      <point x="306.0133333333333" y="-21.293333333333333"/>
    </contour>
  </outline>
</glyph>
<glyph name="upsilon" format="2">
  <advance width="966.3809523809524"/>
  <unicode hex="03C5"/>
  <note>
upsilon
</note>
  <anchor x="482.5285714285714" y="1104.1952380952382" name="top"/>
  <outline>
    <contour>
      <point x="480.27619047619044" y="-18.676190476190474" type="curve" smooth="yes"/>
      <point x="746.1999999999999" y="-18.676190476190474"/>
      <point x="882.3666666666667" y="186.8857142857143"/>
      <point x="882.3666666666667" y="565.6999999999999" type="curve" smooth="yes"/>
      <point x="882.3666666666667" y="777.1523809523809"/>
      <point x="865.7333333333335" y="890.052380952381"/>
      <point x="819.0428571428572" y="1104.1952380952382" type="curve"/>
      <point x="611.1809523809524" y="1104.1952380952382" type="line"/>
      <point x="656.1952380952381" y="912.3095238095239"/>
      <point x="673.5190476190476" y="758.9428571428572"/>
      <point x="673.5190476190476" y="572.3047619047619" type="curve" smooth="yes"/>
      <point x="673.5190476190476" y="429.62380952380954"/>
      <point x="653.1095238095238" y="310.53809523809525"/>
      <point x="614.2761904761904" y="246.49523809523808" type="curve" smooth="yes"/>
      <point x="587.5428571428571" y="188.28571428571428"/>
      <point x="544.5142857142857" y="160.00476190476192"/>
      <point x="480.23333333333335" y="160.00476190476192" type="curve" smooth="yes"/>
      <point x="345.3857142857143" y="160.00476190476192"/>
      <point x="324.6952380952381" y="297.17619047619047"/>
      <point x="324.6952380952381" y="472.46190476190475" type="curve" smooth="yes"/>
      <point x="324.6952380952381" y="1104.1952380952382" type="line"/>
      <point x="115.18571428571427" y="1104.1952380952382" type="line"/>
      <point x="115.18571428571427" y="476.15238095238095" type="line" smooth="yes"/>
      <point x="115.18571428571427" y="356.1666666666667"/>
      <point x="128.15714285714284" y="259.8571428571429"/>
      <point x="157.42380952380952" y="186.23809523809524" type="curve" smooth="yes"/>
      <point x="211.6761904761905" y="44.88571428571428"/>
      <point x="315.84285714285716" y="-18.676190476190474"/>
    </contour>
  </outline>
</glyph>
<glyph name="chi" format="2">
  <advance width="918.3714285714286"/>
  <unicode hex="03C7"/>
  <note>
chi
</note>
  <outline>
    <contour>
      <point x="7.352380952380951" y="-492.0" type="line"/>
      <point x="216.9047619047619" y="-492.0" type="line"/>
      <point x="441.2714285714286" y="106.30476190476192" type="line"/>
      <point x="512.5428571428572" y="-187.23333333333338" type="line" smooth="yes"/>
      <point x="533.4714285714286" y="-268.0190476190476"/>
      <point x="554.7523809523809" y="-325.56666666666666"/>
      <point x="578.0333333333333" y="-367.83333333333337" type="curve" smooth="yes"/>
      <point x="625.9333333333333" y="-454.7190476190476"/>
      <point x="693.4380952380952" y="-492.0"/>
      <point x="790.4904761904762" y="-492.0" type="curve" smooth="yes"/>
      <point x="828.7142857142858" y="-492.0"/>
      <point x="862.6285714285715" y="-486.67619047619047"/>
      <point x="895.8666666666668" y="-475.6904761904762" type="curve"/>
      <point x="895.8666666666668" y="-297.03809523809525" type="line"/>
      <point x="869.6142857142856" y="-304.0380952380952"/>
      <point x="846.6571428571428" y="-306.05238095238093"/>
      <point x="826.9809523809523" y="-306.05238095238093" type="curve" smooth="yes"/>
      <point x="785.4190476190477" y="-306.05238095238093"/>
      <point x="754.4904761904762" y="-294.7"/>
      <point x="733.5333333333333" y="-256.44761904761907" type="curve" smooth="yes"/>
      <point x="719.1952380952381" y="-231.43333333333334"/>
      <point x="706.1952380952381" y="-192.74285714285716"/>
      <point x="691.2095238095238" y="-137.3904761904762" type="curve" smooth="yes"/>
      <point x="563.8142857142858" y="341.32380952380953" type="line"/>
      <point x="892.3571428571429" y="1104.1952380952382" type="line"/>
      <point x="683.4809523809524" y="1104.1952380952382" type="line"/>
      <point x="476.19999999999993" y="557.8380952380952" type="line"/>
      <point x="413.0" y="815.0761904761905" type="line" smooth="yes"/>
      <point x="392.3666666666667" y="898.004761904762"/>
      <point x="369.3809523809524" y="963.5809523809525"/>
      <point x="341.39523809523814" y="1009.847619047619" type="curve" smooth="yes"/>
      <point x="298.15714285714284" y="1082.9714285714285"/>
      <point x="232.6809523809524" y="1117.195238095238"/>
      <point x="139.68571428571428" y="1117.195238095238" type="curve" smooth="yes"/>
      <point x="100.44761904761906" y="1117.195238095238"/>
      <point x="67.85714285714286" y="1111.8714285714284"/>
      <point x="34.971428571428575" y="1101.547619047619" type="curve"/>
      <point x="34.971428571428575" y="921.5714285714286" type="line"/>
      <point x="60.547619047619044" y="928.5714285714286"/>
      <point x="82.84285714285714" y="931.9095238095239"/>
      <point x="107.16666666666669" y="931.9095238095239" type="curve" smooth="yes"/>
      <point x="145.72857142857143" y="931.9095238095239"/>
      <point x="174.99523809523808" y="919.5857142857143"/>
      <point x="196.6142857142857" y="881.0380952380953" type="curve" smooth="yes"/>
      <point x="209.62857142857143" y="858.0380952380953"/>
      <point x="223.30476190476188" y="819.6571428571428"/>
      <point x="237.64285714285714" y="765.2333333333333" type="curve" smooth="yes"/>
      <point x="354.64285714285717" y="332.747619047619" type="line"/>
    </contour>
  </outline>
</glyph>
<glyph name="thetaSymbol" format="2">
  <advance width="1033.3095238095236"/>
  <unicode hex="03D1"/>
  <note>
theta1
</note>
  <outline>
    <contour>
      <point x="479.0095238095238" y="-20.0" type="curve" smooth="yes"/>
      <point x="765.4714285714284" y="-20.0"/>
      <point x="907.6666666666666" y="235.74761904761905"/>
      <point x="909.6523809523809" y="740.7904761904762" type="curve" smooth="yes"/>
      <point x="909.6523809523809" y="762.552380952381"/>
      <point x="908.3142857142858" y="783.3142857142857"/>
      <point x="907.6380952380953" y="805.0761904761905" type="curve"/>
      <point x="1039.990476190476" y="805.0761904761905" type="line"/>
      <point x="1039.990476190476" y="975.1666666666666" type="line"/>
      <point x="900.9904761904762" y="975.1666666666666" type="line"/>
      <point x="880.9761904761904" y="1205.3761904761905"/>
      <point x="831.047619047619" y="1367.6714285714286"/>
      <point x="747.895238095238" y="1462.0666666666668" type="curve" smooth="yes"/>
      <point x="684.9238095238095" y="1541.5761904761905"/>
      <point x="599.6285714285714" y="1579.0"/>
      <point x="498.65714285714284" y="1579.0" type="curve" smooth="yes"/>
      <point x="292.7333333333333" y="1579.0"/>
      <point x="171.96190476190475" y="1444.4380952380952"/>
      <point x="171.96190476190475" y="1236.2857142857142" type="curve" smooth="yes"/>
      <point x="171.96190476190475" y="969.652380952381"/>
      <point x="365.2142857142857" y="816.0190476190477"/>
      <point x="691.7904761904762" y="802.4285714285714" type="curve"/>
      <point x="692.7904761904763" y="790.0619047619048"/>
      <point x="693.7904761904763" y="742.3285714285714"/>
      <point x="693.7904761904763" y="723.5666666666666" type="curve" smooth="yes"/>
      <point x="693.7904761904763" y="449.1666666666667"/>
      <point x="665.0142857142856" y="160.0190476190476"/>
      <point x="489.99523809523805" y="160.0190476190476" type="curve" smooth="yes"/>
      <point x="406.4285714285714" y="160.0190476190476"/>
      <point x="371.9190476190476" y="220.89523809523808"/>
      <point x="371.9190476190476" y="331.92857142857144" type="curve" smooth="yes"/>
      <point x="371.9190476190476" y="381.02857142857147"/>
      <point x="375.9333333333334" y="432.53809523809525"/>
      <point x="379.947619047619" y="482.69523809523815" type="curve" smooth="yes"/>
      <point x="383.62380952380954" y="524.4857142857144"/>
      <point x="386.96190476190475" y="563.5999999999999"/>
      <point x="386.96190476190475" y="597.3190476190475" type="curve" smooth="yes"/>
      <point x="386.96190476190475" y="752.7523809523809"/>
      <point x="313.51428571428573" y="824.0619047619048"/>
      <point x="188.6857142857143" y="824.0619047619048" type="curve" smooth="yes"/>
      <point x="117.85714285714286" y="824.0619047619048"/>
      <point x="59.576190476190476" y="801.7809523809524"/>
      <point x="5.409523809523808" y="769.895238095238" type="curve"/>
      <point x="60.900000000000006" y="627.0285714285715" type="line"/>
      <point x="87.26666666666667" y="640.7047619047619"/>
      <point x="110.94285714285714" y="648.7047619047619"/>
      <point x="132.61904761904762" y="648.7047619047619" type="curve" smooth="yes"/>
      <point x="171.0285714285714" y="648.7047619047619"/>
      <point x="185.36666666666667" y="623.2952380952381"/>
      <point x="185.36666666666667" y="565.504761904762" type="curve" smooth="yes"/>
      <point x="185.36666666666667" y="539.4333333333334"/>
      <point x="182.02857142857144" y="501.64285714285717"/>
      <point x="178.35238095238094" y="459.852380952381" type="curve" smooth="yes"/>
      <point x="174.67619047619047" y="413.6952380952381"/>
      <point x="170.66190476190476" y="363.53809523809525"/>
      <point x="170.66190476190476" y="324.12857142857143" type="curve" smooth="yes"/>
      <point x="170.66190476190476" y="99.32380952380953"/>
      <point x="281.53333333333336" y="-20.0"/>
    </contour>
    <contour>
      <point x="686.7761904761904" y="975.1666666666666" type="curve"/>
      <point x="491.4190476190476" y="978.1666666666667"/>
      <point x="380.49999999999994" y="1076.2380952380952"/>
      <point x="380.49999999999994" y="1246.5809523809523" type="curve" smooth="yes"/>
      <point x="380.49999999999994" y="1351.7809523809526"/>
      <point x="423.5857142857143" y="1406.2619047619048"/>
      <point x="493.3904761904762" y="1406.2619047619048" type="curve" smooth="yes"/>
      <point x="543.8714285714285" y="1406.2619047619048"/>
      <point x="581.6333333333333" y="1377.1333333333334"/>
      <point x="612.3809523809524" y="1318.2142857142856" type="curve" smooth="yes"/>
      <point x="654.3809523809524" y="1247.3809523809525"/>
      <point x="677.7476190476191" y="1128.6190476190475"/>
    </contour>
  </outline>
</glyph>
<glyph name="UpsilonhookSymbol" format="2">
  <advance width="897.8095238095237"/>
  <unicode hex="03D2"/>
  <note>
Upsilon1
</note>
  <anchor x="448.64" y="1462.0" name="top"/>
  <outline>
    <contour>
      <point x="328.2133333333333" y="0.0" type="line"/>
      <point x="538.8033333333333" y="0.0" type="line"/>
      <point x="538.8033333333333" y="556.1733333333333" type="line"/>
      <point x="561.34" y="639.9066666666666"/>
      <point x="588.8266666666667" y="729.15"/>
      <point x="616.2400000000001" y="811.8566666666667" type="curve" smooth="yes"/>
      <point x="654.6800000000001" y="940.3033333333333"/>
      <point x="689.8266666666666" y="1046.0400000000002"/>
      <point x="714.8266666666666" y="1113.2133333333336" type="curve" smooth="yes"/>
      <point x="739.85" y="1175.0666666666666"/>
      <point x="760.02" y="1215.2133333333334"/>
      <point x="776.8733333333332" y="1239.75" type="curve" smooth="yes"/>
      <point x="806.6266666666668" y="1280.8933333333334"/>
      <point x="834.7466666666667" y="1293.3566666666666"/>
      <point x="864.9399999999999" y="1293.3566666666666" type="curve" smooth="yes"/>
      <point x="878.7199999999999" y="1293.3566666666666"/>
      <point x="889.7199999999999" y="1291.3566666666666"/>
      <point x="898.0133333333334" y="1288.2833333333333" type="curve"/>
      <point x="898.0133333333334" y="1460.7566666666667" type="line"/>
      <point x="867.1866666666666" y="1470.5366666666666"/>
      <point x="842.3833333333334" y="1475.0"/>
      <point x="813.9466666666667" y="1475.0" type="curve" smooth="yes"/>
      <point x="734.2666666666668" y="1475.0"/>
      <point x="685.05" y="1449.0"/>
      <point x="639.6866666666666" y="1386.8766666666668" type="curve" smooth="yes"/>
      <point x="618.1999999999999" y="1356.51"/>
      <point x="595.1033333333334" y="1314.0933333333335"/>
      <point x="565.7633333333334" y="1241.5566666666666" type="curve" smooth="yes"/>
      <point x="528.0833333333334" y="1153.2666666666667"/>
      <point x="477.3533333333333" y="992.3866666666667"/>
      <point x="434.35" y="823.3933333333333" type="curve"/>
      <point x="225.3933333333333" y="1462.0" type="line"/>
      <point x="0.0" y="1462.0" type="line"/>
      <point x="328.2133333333333" y="574.2433333333333" type="line"/>
    </contour>
  </outline>
</glyph>
